<?xml version="1.0" encoding="UTF-8"?>
<svg id="Layer_1" data-name="Layer 1" xmlns="http://www.w3.org/2000/svg" viewBox="0 0 640 640">
  <defs>
    <style>
      .cls-1 {
        fill: #231f20;
      }

      .cls-1, .cls-2, .cls-3 {
        stroke-width: 0px;
      }

      .cls-2 {
        fill: #fff;
      }

      .cls-3 {
        fill: #ffcd00;
      }
    </style>
  </defs>
  <rect class="cls-3" y="0" width="640" height="640"/>
  <g>
    <g>
      <path class="cls-1" d="m100.81,253.78h-44.2c-.39,0-.71.32-.71.71v8.81c0,.39.32.71.71.71h16.24v54.3c0,.39.32.71.71.71h10.38c.39,0,.71-.32.71-.71v-54.3h16.16c.39,0,.71-.32.71-.71v-8.81c0-.39-.32-.71-.71-.71Z"/>
      <path class="cls-1" d="m168.82,253.78h-35.61c-.39,0-.71.32-.71.71v63.82c0,.39.32.71.71.71h35.61c.39,0,.71-.32.71-.71v-8.81c0-.39-.32-.71-.71-.71h-24.53v-17.12h19.33c.39,0,.71-.32.71-.71v-9.11c0-.39-.32-.71-.71-.71h-19.33v-17.12h24.53c.39,0,.71-.32.71-.71v-8.81c0-.39-.32-.71-.71-.71Z"/>
      <path class="cls-1" d="m224.54,280.69c-.32-.14-.75-.35-1.31-.61-6.9-3.17-10.39-6.56-10.39-10.08,0-2.25.73-3.98,2.22-5.31,1.5-1.33,3.58-2,6.18-2,1.83,0,3.48.43,4.88,1.29,1.43.87,2.77,2.28,3.98,4.18.2.31.6.42.93.25l8.11-4.18c.32-.16.46-.54.34-.87-1.27-3.55-3.59-6.31-6.9-8.2-3.26-1.87-7.36-2.82-12.17-2.82-5.88,0-10.72,1.69-14.36,5.03-3.67,3.35-5.53,7.78-5.53,13.17,0,4.17,1.24,7.74,3.67,10.64,2.43,2.88,7.1,5.98,14.32,9.5.46.2,1.11.51,1.99.95,5.92,2.79,8.92,5.95,8.92,9.38,0,2.7-.82,4.78-2.5,6.37-1.67,1.58-3.98,2.38-6.85,2.38-3.09,0-5.65-.71-7.61-2.11-1.95-1.39-3.31-3.45-4.04-6.13-.06-.2-.2-.37-.39-.46-.19-.09-.41-.09-.6,0l-8.28,3.84c-.31.14-.47.48-.4.81,1.11,4.8,3.5,8.55,7.1,11.14,3.58,2.58,8.21,3.88,13.77,3.88,6.64,0,11.99-1.86,15.92-5.53,3.94-3.68,5.94-8.71,5.94-14.93,0-4.31-1.24-7.96-3.7-10.86-2.41-2.84-6.86-5.77-13.24-8.71Z"/>
      <path class="cls-1" d="m293.84,282.89l24.88-27.93c.19-.21.23-.51.12-.77s-.37-.42-.65-.42h-12.68c-.21,0-.4.09-.54.25l-21.68,24.98v-24.51c0-.39-.32-.71-.71-.71h-10.37c-.39,0-.71.32-.71.71v63.82c0,.39.32.71.71.71h10.37c.39,0,.71-.32.71-.71v-30.52l23.96,30.96c.14.17.34.28.56.28h13.38c.27,0,.52-.16.64-.4s.09-.54-.09-.75l-27.92-34.97Z"/>
      <rect class="cls-1" x="350.11" y="211.32" width="11.8" height="107.7" rx=".71" ry=".71"/>
      <path class="cls-1" d="m427.15,308.31h-22.48v-53.82c0-.39-.32-.71-.71-.71h-10.37c-.39,0-.71.32-.71.71v63.82c0,.39.32.71.71.71h33.56c.39,0,.71-.32.71-.71v-9.29c0-.39-.32-.71-.71-.71Z"/>
      <path class="cls-1" d="m487.64,251.66c-.12-.25-.37-.41-.65-.41s-.53.16-.65.41l-30.9,66.34c-.1.22-.09.48.04.68.13.2.36.33.6.33h10.9c.28,0,.53-.16.65-.42l7.22-16.02h24.36l7.05,16.01c.11.26.37.43.65.43h10.94c.24,0,.47-.12.6-.33.13-.2.15-.46.04-.68l-30.86-66.34Zm-2.21,27.29c.41-1.01.82-2.15,1.22-3.38.16-.48.31-.97.46-1.48.17.57.35,1.11.52,1.62.41,1.22.81,2.3,1.2,3.27l6.09,13.56h-15.58l6.1-13.58Z"/>
      <path class="cls-1" d="m583.39,253.78h-44.2c-.39,0-.71.32-.71.71v8.81c0,.39.32.71.71.71h16.24v54.3c0,.39.32.71.71.71h10.38c.39,0,.71-.32.71-.71v-54.3h16.16c.39,0,.71-.32.71-.71v-8.81c0-.39-.32-.71-.71-.71Z"/>
      <rect class="cls-1" x="214.21" y="318.67" width="11.8" height="42.81" rx=".71" ry=".71"/>
    </g>
    <g>
      <g>
        <path class="cls-2" d="m413.71,380.01c0,3.14-1.14,6.18-3.18,8.23-2.05,2.06-5.07,2.83-8.2,2.83s-5.9-1.03-7.94-3.09c-2.05-2.06-3.53-4.84-3.53-7.98s1.59-5.8,3.64-7.86,4.7-3.35,7.83-3.35,6.14.93,8.19,2.99c2.05,2.06,3.2,5.08,3.2,8.22Z"/>
        <path class="cls-2" d="m402.75,403.09c0,3.85-1.42,7.45-3.93,9.97-2.51,2.52-6.09,3.84-9.93,3.84s-7.54-1.2-10.05-3.72c-2.51-2.52-4.35-6.24-4.35-10.09s2.27-7.13,4.79-9.65c2.51-2.52,5.77-4.59,9.61-4.59s7.34,1.82,9.86,4.34c2.51,2.52,4.01,6.05,4.01,9.9Z"/>
        <path class="cls-2" d="m390.08,369.16c0,3.53-1.34,6.42-3.64,8.74-2.3,2.31-5.19,3.83-8.7,3.83s-6.33-1.58-8.64-3.89c-2.3-2.31-4.43-5.15-4.43-8.68s1.73-6.76,4.03-9.07c2.3-2.31,5.52-3.28,9.03-3.28s6.73.98,9.03,3.29c2.3,2.31,3.31,5.54,3.31,9.07Z"/>
        <path class="cls-2" d="m425.22,409.69c0,3.03-1.02,5.58-3,7.57-1.98,1.99-4.52,3.65-7.54,3.65s-5.94-1.28-7.92-3.27-3.11-4.93-3.11-7.96,1.1-6,3.08-7.99c1.98-1.99,4.93-2.6,7.95-2.6s6.03.56,8.01,2.54c1.98,1.99,2.53,5.01,2.53,8.04Z"/>
        <path class="cls-2" d="m423.51,391.55c0,3.34-2.88,6.14-6.2,6.14s-6.05-2.8-6.05-6.14,2.73-6.12,6.05-6.12,6.2,2.78,6.2,6.12Z"/>
        <path class="cls-2" d="m416.41,363.51c0,3.32-2.6,6.2-5.91,6.2s-6.18-2.88-6.18-6.2,2.88-6.07,6.18-6.07,5.91,2.74,5.91,6.07Z"/>
        <path class="cls-2" d="m376.76,390.97c0,4.47-3.93,8.33-8.38,8.33s-8.37-3.86-8.37-8.33,3.92-8.16,8.37-8.16,8.38,3.7,8.38,8.16Z"/>
        <path class="cls-2" d="m432.83,380.98c0,3.54-2.92,6.52-6.44,6.52s-6.28-2.99-6.28-6.52,2.76-6.44,6.28-6.44,6.44,2.91,6.44,6.44Z"/>
        <path class="cls-2" d="m407.53,422.05c0,3.62-3.09,6.63-6.69,6.63s-6.64-3.01-6.64-6.63,3.04-6.33,6.64-6.33,6.69,2.71,6.69,6.33Z"/>
        <path class="cls-2" d="m396.63,354.57c0,2.44-1.95,4.38-4.37,4.38s-4.51-1.95-4.51-4.38,2.08-4.47,4.51-4.47,4.37,2.04,4.37,4.47Z"/>
        <path class="cls-2" d="m402.89,361.93c0,2.29-1.81,4.12-4.1,4.12s-4.21-1.83-4.21-4.12,1.93-4.02,4.21-4.02,4.1,1.73,4.1,4.02Z"/>
        <path class="cls-2" d="m405.67,353.97c0,1.65-1.32,3.03-2.96,3.03s-2.88-1.39-2.88-3.03,1.24-2.88,2.88-2.88,2.96,1.23,2.96,2.88Z"/>
        <path class="cls-2" d="m393.27,362.1c0,.81-.7,1.41-1.5,1.41s-1.44-.61-1.44-1.41.64-1.41,1.44-1.41,1.5.6,1.5,1.41Z"/>
        <path class="cls-2" d="m396.53,367.86c0,1.26-1.09,2.23-2.35,2.23s-2.28-.96-2.28-2.23,1.02-2.25,2.28-2.25,2.35.99,2.35,2.25Z"/>
        <path class="cls-2" d="m386.93,354.47c0,1.29-1.08,2.24-2.36,2.24s-2.29-.95-2.29-2.24,1.01-2.33,2.29-2.33,2.36,1.04,2.36,2.33Z"/>
        <path class="cls-2" d="m366.01,378.22c0,2.5-1.95,4.5-4.44,4.5s-4.64-2-4.64-4.5,2.16-4.37,4.64-4.37,4.44,1.87,4.44,4.37Z"/>
        <path class="cls-2" d="m374,411.39c0,3.1-2.48,5.69-5.57,5.69s-5.49-2.59-5.49-5.69,2.41-5.67,5.49-5.67,5.57,2.57,5.57,5.67Z"/>
        <path class="cls-2" d="m392.36,422.83c0,1.8-1.36,3.18-3.15,3.18s-3.33-1.38-3.33-3.18,1.54-3.28,3.33-3.28,3.15,1.48,3.15,3.28Z"/>
        <path class="cls-2" d="m390.31,384.46c0,2.05-1.62,3.81-3.66,3.81s-3.68-1.76-3.68-3.81,1.64-3.76,3.68-3.76,3.66,1.71,3.66,3.76Z"/>
        <path class="cls-2" d="m381.56,386.53c0,1.3-1.06,2.38-2.36,2.38s-2.39-1.08-2.39-2.38,1.1-2.37,2.39-2.37,2.36,1.07,2.36,2.37Z"/>
        <path class="cls-2" d="m410.56,395.9c0,2.13-1.78,3.85-3.89,3.85s-3.87-1.72-3.87-3.85,1.75-3.9,3.87-3.9,3.89,1.78,3.89,3.9Z"/>
        <path class="cls-2" d="m422.77,371.58c0,2.31-1.88,4.23-4.18,4.23s-4.06-1.91-4.06-4.23,1.76-4.03,4.06-4.03,4.18,1.72,4.18,4.03Z"/>
        <path class="cls-2" d="m360.4,385.57c0,1.43-1.08,2.53-2.5,2.53s-2.56-1.1-2.56-2.53,1.14-2.65,2.56-2.65,2.5,1.22,2.5,2.65Z"/>
        <path class="cls-2" d="m360.87,397.81c0,1.27-1.08,2.31-2.34,2.31s-2.22-1.04-2.22-2.31.96-2.24,2.22-2.24,2.34.97,2.34,2.24Z"/>
        <path class="cls-2" d="m364.82,404.52c0,1.77-1.47,3.18-3.23,3.18s-3.09-1.41-3.09-3.18,1.33-3.23,3.09-3.23,3.23,1.46,3.23,3.23Z"/>
        <path class="cls-2" d="m371.54,402.35c0,1.3-1,2.43-2.3,2.43s-2.44-1.13-2.44-2.43,1.14-2.42,2.44-2.42,2.3,1.12,2.3,2.42Z"/>
        <path class="cls-2" d="m378.09,415.85c0,1.3-.97,2.43-2.27,2.43s-2.43-1.13-2.43-2.43,1.14-2.38,2.43-2.38,2.27,1.08,2.27,2.38Z"/>
        <path class="cls-2" d="m433.91,392.6c0,2.45-2.14,4.52-4.58,4.52s-4.48-2.07-4.48-4.52,2.04-4.41,4.48-4.41,4.58,1.96,4.58,4.41Z"/>
        <path class="cls-2" d="m429.68,400.71c0,1.5-1.13,2.7-2.63,2.7s-2.61-1.2-2.61-2.7,1.12-2.75,2.61-2.75,2.63,1.25,2.63,2.75Z"/>
        <path class="cls-2" d="m428.73,370.79c0,1.28-.95,2.25-2.22,2.25s-2.38-.97-2.38-2.25,1.11-2.3,2.38-2.3,2.22,1.03,2.22,2.3Z"/>
        <path class="cls-2" d="m419.23,379.39c0,1.2-.95,2.17-2.14,2.17s-2.12-.97-2.12-2.17.92-2.23,2.12-2.23,2.14,1.03,2.14,2.23Z"/>
        <path class="cls-2" d="m423.21,363.54c0,1.52-1.32,2.85-2.84,2.85s-2.84-1.33-2.84-2.85,1.32-2.66,2.84-2.66,2.84,1.14,2.84,2.66Z"/>
        <path class="cls-2" d="m411.6,354.93c0,.84-.67,1.47-1.51,1.47s-1.57-.63-1.57-1.47.73-1.48,1.57-1.48,1.51.64,1.51,1.48Z"/>
        <path class="cls-2" d="m416.08,357.15c0,.59-.46,1.09-1.04,1.09s-1.07-.5-1.07-1.09.48-1.08,1.07-1.08,1.04.49,1.04,1.08Z"/>
        <path class="cls-2" d="m384.85,421.83c0,2.45-1.86,4.52-4.29,4.52s-4.39-2.08-4.39-4.52,1.95-4.45,4.39-4.45,4.29,2,4.29,4.45Z"/>
      </g>
      <g>
        <path class="cls-2" d="m449.35,404.34h2.87l.22,1.26c.4-.45,1.69-1.44,3.6-1.44,2.46,0,5.23,1.9,5.23,5.32v7.23h-3.19v-6.81c0-1.69-1.25-2.87-2.78-2.87-1.21,0-2.78.88-2.78,2.9v6.78h-3.17v-12.38Z"/>
        <path class="cls-2" d="m469.67,416.89c-1.24,0-2.33-.27-3.27-.82-.94-.54-1.67-1.3-2.19-2.28-.52-.97-.78-2.1-.78-3.37s.26-2.3.78-3.24,1.23-1.68,2.14-2.22c.91-.54,1.95-.8,3.12-.8s2.24.26,3.14.77,1.61,1.23,2.12,2.14c.5.92.76,1.98.76,3.21,0,.18-.01.38-.04.61-.02.22-.05.46-.09.71h-8.52c.07.53.23.98.51,1.35.27.37.61.66,1.02.87.4.21.86.31,1.37.31.61,0,1.16-.12,1.65-.37.49-.25.84-.59,1.05-1.02l2.8.84c-.5,1.06-1.23,1.87-2.2,2.45-.97.58-2.1.87-3.37.87Zm2.35-7.6c-.02-.46-.14-.88-.37-1.25-.23-.37-.54-.66-.92-.87-.38-.21-.8-.31-1.26-.31-.41,0-.8.1-1.16.31-.36.21-.67.49-.93.85-.26.36-.43.78-.51,1.26h5.15Z"/>
        <path class="cls-2" d="m478.84,404.34v-3.16h3.19v3.16h2.75v2.8h-2.75v5.03c0,.64.14,1.1.42,1.36.28.26.63.4,1.05.42.42.02.85,0,1.27-.07v2.72c-.76.17-1.5.21-2.22.15s-1.36-.26-1.92-.58-1-.81-1.32-1.47c-.32-.66-.48-1.5-.48-2.53v-5.03h-1.76v-2.8h1.76Z"/>
        <path class="cls-2" d="m493.81,416.72h-3.24l-3.66-12.38h3.27l2.06,8.37,2.18-8.37h3.17l2.1,8.37,2.03-8.37h3.24l-3.66,12.38h-3.32l-2.05-7.77-2.1,7.77Z"/>
        <path class="cls-2" d="m512.41,416.89c-1.2,0-2.28-.26-3.22-.78-.94-.52-1.68-1.25-2.22-2.2-.54-.95-.81-2.07-.81-3.35s.28-2.43.83-3.39c.55-.96,1.31-1.7,2.27-2.22.96-.52,2.03-.78,3.22-.78s2.26.26,3.22.78c.96.52,1.72,1.25,2.28,2.2.56.95.84,2.07.84,3.35s-.29,2.44-.85,3.39c-.57.96-1.34,1.7-2.3,2.22-.96.52-2.05.78-3.26.78Zm-.02-2.85c.51,0,1-.13,1.46-.38.46-.26.84-.64,1.14-1.16.3-.52.45-1.18.45-1.99s-.14-1.42-.42-1.94c-.28-.52-.65-.91-1.1-1.16-.45-.26-.94-.38-1.47-.38s-.99.13-1.42.38c-.44.26-.79.64-1.05,1.16-.26.52-.4,1.18-.4,1.99s.13,1.42.38,1.94c.26.52.6.91,1.03,1.16.43.26.9.38,1.41.38Z"/>
        <path class="cls-2" d="m521.02,404.34h2.87l.22,1.58c.35-.43.74-.78,1.18-1.05.44-.27.92-.46,1.45-.57.53-.11,1.08-.09,1.66.04v2.97c-.45-.15-.91-.19-1.4-.12-.49.07-.94.24-1.36.52-.42.28-.77.68-1.04,1.2-.27.52-.41,1.18-.41,1.97v5.84h-3.17v-12.38Z"/>
        <path class="cls-2" d="m530.75,401.18h3.19v7.99h.79l4.08-4.83h4.13l-5.45,6.14,5.5,6.24h-4.16l-4.14-4.9h-.77v4.9h-3.19v-15.54Z"/>
      </g>
      <g>
        <path class="cls-2" d="m457.05,392.84h-7.71v-30.47h7.71v30.47Z"/>
        <path class="cls-2" d="m479.38,361.89c4.88,0,8.1,1.7,11.23,4.27l-3.74,5.44c-2.13-1.96-4.57-2.96-7.49-2.96-5.57,0-9.05,3.96-9.05,8.97s3.48,8.97,9.05,8.97c2.92,0,5.35-1,7.49-2.96l3.74,5.44c-3.13,2.57-6.36,4.27-11.23,4.27-10.32,0-16.8-7.23-16.8-15.72s6.49-15.72,16.8-15.72Z"/>
        <path class="cls-2" d="m492.92,377.6c0-8.58,6.79-15.72,16.15-15.72s16.15,7.14,16.15,15.72-6.79,15.72-16.15,15.72-16.15-7.14-16.15-15.72Zm24.6,0c0-5.05-3.57-8.88-8.45-8.88s-8.4,3.83-8.4,8.88,3.53,8.88,8.4,8.88,8.45-3.83,8.45-8.88Z"/>
        <polygon class="cls-2" points="556.6 362.37 548.67 381.61 540.79 362.37 530.75 362.37 530.75 392.84 538.45 392.84 538.45 373.79 546.19 392.49 551.2 392.49 558.94 373.79 558.94 392.84 566.65 392.84 566.65 362.37 556.6 362.37"/>
      </g>
    </g>
  </g>
</svg>