<?xml version="1.0" encoding="UTF-8"?>
<svg id="Layer_1" data-name="Layer 1" xmlns="http://www.w3.org/2000/svg" viewBox="0 0 200 100">
  <defs>
    <style>
      .cls-1 {
        fill-rule: evenodd;
      }

      .cls-1, .cls-2 {
        fill: #fff;
        stroke-width: 0px;
      }
    </style>
  </defs>
  <g>
    <path class="cls-2" d="m32.19,70.76h1.89s-.08,5.26-.08,5.26h.03l2.14-5.25h1.83s-.05,5.24-.05,5.24h.01l2.03-5.24h1.77s-3.54,8.61-3.54,8.61h-1.83s-.02-5.56-.02-5.56h-.05l-2.29,5.55h-1.81s-.04-8.62-.04-8.62Z"/>
    <path class="cls-2" d="m45.1,70.77h2.41s.65,8.61.65,8.61h-1.97s-.11-1.85-.11-1.85h-2.52s-.84,1.84-.84,1.84h-1.79s4.17-8.6,4.17-8.6Zm.88,5.24l-.17-3.3h-.04l-1.51,3.3h1.71Z"/>
    <path class="cls-2" d="m52,72.38h-2.16s.32-1.59.32-1.59h6.25s-.32,1.6-.32,1.6h-2.15s-1.42,6.99-1.42,6.99h-1.95s1.42-7,1.42-7Z"/>
    <path class="cls-2" d="m58.09,70.8h5.38s-.33,1.62-.33,1.62h-3.44s-.37,1.8-.37,1.8h2.73s-.33,1.62-.33,1.62h-2.73s-.39,1.92-.39,1.92h3.45s-.33,1.63-.33,1.63h-5.39s1.74-8.6,1.74-8.6Z"/>
    <path class="cls-2" d="m65.65,70.82h3.28c1.84,0,2.54,1.08,2.22,2.63-.23,1.16-.88,2.06-1.95,2.44l.97,3.52h-2.1s-.7-3.17-.7-3.17h-.89s-.64,3.16-.64,3.16h-1.94s1.74-8.59,1.74-8.59Zm2.2,3.98c.73,0,1.2-.4,1.36-1.21.15-.72-.1-1.21-.84-1.21h-1.11s-.49,2.42-.49,2.42h1.07Z"/>
    <path class="cls-2" d="m74.54,76.71l1.19-5.88h1.94s-1.17,5.8-1.17,5.8c-.19.95.29,1.34.95,1.34.7,0,1.29-.49,1.44-1.32l1.18-5.8h1.87l-1.17,5.77c-.39,1.93-1.88,2.97-3.71,2.96-1.83,0-2.92-.86-2.51-2.86Z"/>
    <path class="cls-2" d="m84.22,70.85h3.29c1.76,0,2.35,1.2,2.04,2.71-.32,1.59-1.39,2.89-3.24,2.88h-1.28s-.61,3-.61,3h-1.94s1.74-8.59,1.74-8.59Zm2.04,4.09c.72,0,1.23-.5,1.39-1.3.15-.71-.11-1.23-.8-1.23h-1.01s-.51,2.52-.51,2.52h.93Z"/>
  </g>
  <g>
    <path class="cls-1" d="m62.15,34.93c-.72,5.04-1.43,10.07-2.15,15.11-.22,1.52-.42,3.05-.66,4.57-.1.64-.46,1.16-1.17,1.08-.67-.08-.76-.63-.68-1.21.83-5.72,1.64-11.43,2.46-17.14.1-.72.2-1.43.3-2.14l-12.1,1.8c-.65,4.54-1.29,9.09-1.94,13.64-.19,1.36-.32,2.74-.64,4.08-.09.38-.74.87-1.15.89-.59.03-.66-.6-.58-1.13.07-.58.15-1.17.23-1.75.73-5.15,1.47-10.3,2.2-15.45l-12.06,1.79c-.51,3.52-1.01,7.04-1.48,10.56-.35,2.62-.84,5.3-.69,7.91.58,9.35,9.39,10.83,14.45,7.98,1.48-.84,2.74-2.07,4.15-3.14.78,1.71,2.07,3.15,4.05,3.84,2.9,1.02,5.79.78,8.51-.54,5-2.42,7.29-6.76,8.06-12.06.86-5.87,1.69-11.75,2.53-17.62.13-.95.27-1.91.41-2.87l-12.03,1.78Z"/>
    <path class="cls-1" d="m90.81,30.67c-.21,1.5-.42,3.01-.63,4.51-.9,6.37-1.81,12.72-2.72,19.09-.11.75-.24,1.57-1.21,1.46-1.08-.12-.68-1.05-.6-1.65,1.07-7.7,2.18-15.39,3.28-23.08,0-.02,0-.03,0-.05l-12.05,1.79c-1.13,7.99-2.27,15.98-3.4,23.97-.54,3.81,1.36,7.33,4.85,8.95,2.97,1.38,6.12,1.47,9.26.95,4.98-.81,8.88-3.27,10.72-8.15.66-1.75.83-3.7,1.1-5.58,1-6.78,1.95-13.57,2.92-20.34.18-1.21.35-2.41.52-3.66l-12.04,1.79Z"/>
    <path class="cls-1" d="m125.92,25.46l-20.42,3.03c-2.42,16.97-4.83,33.94-7.25,50.92,3.99,0,7.86.01,11.77.02.69-4.78,1.38-9.52,2.06-14.2.99.52,1.83,1.16,2.77,1.42,2.48.68,4.84.13,6.91-1.34,3.28-2.31,4.71-5.69,5.26-9.53.77-5.45,1.59-10.91,2.32-16.36.31-2.37.65-4.76.64-7.13,0-3.16-1.61-5.65-4.05-6.82Zm-8.95,17.92c-.52,3.73-1.04,7.46-1.58,11.19-.04.28-.09.65-.28.8-.27.23-.73.45-1.01.36-.25-.07-.53-.58-.51-.88.09-1.27.28-2.54.46-3.8.65-4.64,1.3-9.28,1.97-13.91.05-.34.16-.77.4-.95.26-.2.73-.28,1.06-.2.22.05.35.47.45.61-.34,2.38-.64,4.59-.95,6.79Z"/>
    <path class="cls-2" d="m139.05,72.53l-2.81,4.27,1.2-4.18c-7.75.57-13.84,2.6-13.72,4.61.14,2.06,6.77,3.31,14.82,2.8,8.05-.5,14.47-2.59,14.35-4.65-.13-1.97-6.24-3.21-13.83-2.85Z"/>
    <polygon class="cls-1" points="150.71 46.34 162.26 19.85 138.68 23.39 131.57 55.42 144.24 52.36 138.62 73.1 168 35.27 156.3 37.84 150.71 46.34"/>
  </g>
</svg>