<?xml version="1.0" encoding="UTF-8"?>
<svg id="Layer_1" data-name="Layer 1" xmlns="http://www.w3.org/2000/svg" xmlns:xlink="http://www.w3.org/1999/xlink" viewBox="0 0 200 100">
  <defs>
    <style>
      .cls-1 {
        clip-path: url(#clippath);
      }

      .cls-2 {
        fill: none;
      }

      .cls-2, .cls-3, .cls-4, .cls-5, .cls-6 {
        stroke-width: 0px;
      }

      .cls-3 {
        fill: url(#radial-gradient);
      }

      .cls-5 {
        fill: #1b3562;
      }

      .cls-6 {
        fill: #223469;
      }
    </style>
    <clipPath id="clippath">
      <path class="cls-2" d="m89.78,74.11c-.09.35-.28.64-.42.81-.54-2.02-1.5-3.06-1.96-3.48.39,0,1.08.11,1.84.87.54.55.72,1.16.54,1.8Zm-2.66-2.46c-.03.19-.07.52-.07.92v.18c0,.68,0,2.48.64,3.13.16.16.35.24.57.24h.02s.63.09.8-.86c-.08-.31-.7-2.61-1.96-3.62Zm-.97-.03c-.33-.1-1.62-.36-3.54.89-.97.63-1.46,1.35-1.41,2.07.04.65.54,1.28,1.34,1.69.32-.2,2.31-1.55,3.62-4.65Zm-.39,5.02h0Zm.62-4.64c-.64,1.6-1.53,2.77-2.17,3.47-.62.68-1.13,1.07-1.31,1.2.09.28.45,1.34,1.28,1.34.97,0,1.56-1.34,1.57-1.36h0c.05-.11,1.16-2.53.63-4.65Zm3.42-3.94c-.07-.33-.25-.55-.38-.67-.06.23-.2.63-.43,1.12-.31.63-.86,1.53-1.78,2.3.44.09,1.35.08,2.17-1.17.37-.59.51-1.12.41-1.58Zm-1.4-2.17c-.22-.02-.42.05-.59.21-.71.62-.8,2.45-.84,3.13v.13c-.03.42,0,.92.03,1.18,1.57-1.3,2.11-3.21,2.17-3.47-.09-1.08-.74-1.17-.77-1.18Zm-1.99,3.45c-.04-2.52-.87-4.29-2.15-4.6-.27-.07-.53-.03-.75.1-.44.27-.64.86-.71,1.09,1.45.9,2.35,2.07,2.86,2.91.33.55.55,1.03.66,1.32.1-.44.09-.81.09-.82Zm-3.95-3.03c-.86.36-1.35.97-1.36,1.7,0,.45.16.91.49,1.33.34.44.83.81,1.41,1.06,1.82.78,2.85.3,3.1.15-1.13-2.79-3.31-4.06-3.64-4.24Z"/>
    </clipPath>
    <radialGradient id="radial-gradient" cx="-3963.96" cy="-7042.55" fx="-3963.96" fy="-7042.55" r="1.87" gradientTransform="translate(12735.23 42412.26) rotate(.49) scale(3.18 6) skewX(1.01)" gradientUnits="userSpaceOnUse">
      <stop offset="0" stop-color="#7dc143"/>
      <stop offset=".11" stop-color="#68b345"/>
      <stop offset=".32" stop-color="#3b9b47"/>
      <stop offset=".59" stop-color="#007e44"/>
      <stop offset=".72" stop-color="#006c43"/>
      <stop offset="1" stop-color="#000"/>
    </radialGradient>
  </defs>
  <path class="cls-5" d="m118.79,40.17v14.12h-10.93c0-2.33,0,.74,0-6.14-2.37.16-4.91.41-6.75.74-3.6.61-5.48,2.17-5.48,4.54v.86h-21.98v-.33c0-4.63-3.32-5.48-10.52-7.33-10.07-2.54-18.75-4.95-18.75-16.21,0-9.17,7.9-15.43,19.32-15.43,12.85,0,19.65,5.77,19.77,17.27h-11.17c-.16-5.57-3.15-8.47-8.84-8.47-4.67,0-7.74,2.29-7.74,5.49,0,3.81,2.95,5.08,11.13,7.12,8.76,2.17,16.62,4.42,18.05,13.18,1.56-4.46,6.22-7.16,14.2-8.43,2.54-.37,6.06-.78,8.76-.98v-.94c0-3.97-1.88-5.98-5.48-5.98-3.32,0-5.28,1.72-5.57,5.2h-10.97c.29-4.22,1.8-7.29,4.38-9.54,2.87-2.5,7.08-3.85,12.16-3.85,10.68,0,16.41,5.24,16.41,15.1Zm3.44-25.17h11.38v39.29h-11.38V15Zm33.4,11.05v8.55h-7.2v19.69h-11.38V18.81h11.38v7.24h7.2Zm-88.48,39.16h-.04c-.55,0-.89.27-1.1.61h0l-.04-.55h-.33v2.8h.37v-1.83c.21-.44.59-.7,1.05-.7.01,0,.12,0,.13,0l-.03-.34Zm-2.21,1.46c0-.96-.49-1.46-1.15-1.46-.59,0-1.23.46-1.23,1.46s.58,1.46,1.29,1.46c.47,0,.78-.16,1.09-.49l-.18-.24c-.26.27-.53.42-.9.42-.52,0-.92-.39-.92-1.08h2.01v-.07Zm-2-.22c.06-.63.45-.93.85-.93.5,0,.76.4.79.93h-1.65Zm-1.43-2.3v1.5c-.21-.25-.54-.44-.92-.44-.65,0-1.17.49-1.17,1.46s.51,1.45,1.16,1.45c.42,0,.71-.21.94-.45l.04.41h.33v-3.97l-.37.05Zm0,3.19c-.28.29-.53.46-.87.46-.47,0-.85-.36-.85-1.14s.38-1.15.84-1.15c.33,0,.59.16.88.46v1.37Zm-3.61-2.14c-.42,0-.78.22-1.06.5l-.04-.44h-.33v2.8h.37v-2.06c.32-.31.62-.49.98-.49.39,0,.56.2.56.59v1.96h.37v-2.04c0-.52-.28-.82-.85-.82Zm-2.64.06v2.06c-.32.3-.62.49-.98.49-.39,0-.56-.19-.56-.59v-1.96h-.37v2.04c0,.52.28.82.84.82.42,0,.78-.23,1.06-.5l.04.44h.33v-2.8h-.37Zm-3.84-.06c-.69,0-1.27.52-1.27,1.46s.59,1.46,1.27,1.46,1.27-.53,1.27-1.46-.58-1.46-1.27-1.46Zm0,2.6c-.6,0-.91-.52-.91-1.15,0-.66.34-1.15.91-1.15s.9.53.9,1.15c0,.66-.34,1.15-.9,1.15Zm-1.32-3.34v-.35h-2.31v3.94h.38v-1.89h1.48l-.05-.34h-1.43v-1.36h1.93Zm14.83-5.64v1.93c-.19.16-.39.29-.62.29-.24,0-.34-.14-.34-.4v-1.82h-.86v2.07c0,.59.35.83.83.83s.81-.28.98-.5l.07.44h.79v-2.84h-.86Zm-2.8,1.79c-.14.33-.35.51-.65.51-.42,0-.58-.36-.58-.87,0-.56.22-.86.58-.86.29,0,.46.13.6.44l.62-.32c-.24-.52-.72-.75-1.22-.75-.63,0-1.43.35-1.43,1.48s.73,1.48,1.39,1.48c.55,0,1.06-.22,1.33-.8l-.63-.32Zm-3.44-1.79v1.93c-.19.16-.39.29-.62.29s-.33-.14-.33-.4v-1.82h-.86v2.07c0,.59.35.83.83.83s.81-.28.98-.5l.06.44h.79v-2.84h-.86Zm-2.23-.06h-.02c-.51,0-.76.3-.92.53h0l-.06-.48h-.79v2.84h.86v-1.76c.16-.22.41-.39.82-.39.06,0,.13,0,.2,0l-.08-.76Zm-3.31.06v1.93c-.19.16-.39.29-.62.29s-.33-.14-.33-.4v-1.82h-.86v2.07c0,.59.35.83.83.83s.81-.28.98-.5l.06.44h.79v-2.84h-.86Zm-3.58.44l1.34-1.54h-1.01l-1.32,1.63v-1.63h-.87v3.94h.87v-1.26l.43-.49,1.15,1.81.91-.13-1.49-2.34Zm24.09-1.55v27.27h.39v-27.27h-.39Z"/>
  <g>
    <path class="cls-6" d="m139.77,71.14l-.06-.03c.51-.26.84-.81.84-1.51,0-1.17-.92-1.97-2.21-1.97h-3.71c-.08,0-.15.07-.15.15v7.24c0,.08.07.15.15.15h3.54c1.77,0,2.71-.76,2.71-2.26,0-.85-.44-1.51-1.12-1.77m-3.89-2.4h2.2c.79,0,1.22.22,1.22.86,0,.73-.41,1.1-1.22,1.1h-2.2c-.08,0-.15-.07-.15-.15v-1.68c0-.09.07-.15.15-.15m2.22,5.35h-2.22c-.08,0-.15-.06-.15-.15v-2c0-.08.07-.15.15-.15h2.25c1.06.02,1.51.32,1.51,1.16,0,.74-.46,1.14-1.54,1.14"/>
    <path class="cls-6" d="m147.59,67.73l-2.47,4.71c-.05.1-.2.1-.26,0l-2.47-4.71c-.03-.05-.08-.08-.13-.08h-1.2c-.08,0-.14.09-.09.15l3.89,7.29c.05.1.2.1.26,0l3.89-7.29c.04-.07-.02-.15-.09-.15h-1.21s-.09.03-.12.08"/>
    <path class="cls-6" d="m131.99,71.14l-.06-.03c.51-.26.84-.81.84-1.51,0-1.17-.92-1.97-2.21-1.97h-3.71c-.08,0-.15.07-.15.15v7.24c0,.08.07.15.15.15h3.54c1.77,0,2.71-.76,2.71-2.26,0-.85-.44-1.51-1.12-1.77m-3.89-2.4h2.2c.79,0,1.22.22,1.22.86,0,.73-.41,1.1-1.22,1.1h-2.2c-.08,0-.15-.07-.15-.15v-1.69c0-.08.07-.14.15-.14m2.23,5.35h-2.23c-.08,0-.15-.06-.15-.15v-2c0-.08.06-.15.15-.15h2.25c1.06.02,1.51.32,1.51,1.16,0,.74-.46,1.14-1.53,1.14"/>
    <path class="cls-6" d="m148.84,74.01l2.47-4.71c.05-.1.2-.1.26,0l2.47,4.71s.08.08.13.08h1.2c.08,0,.14-.09.09-.15l-3.89-7.29c-.05-.1-.2-.1-.26,0l-3.89,7.29c-.04.07.02.15.09.15h1.21s.09-.03.12-.08"/>
    <path class="cls-4" d="m123.51,68.38c0-.21-.07-.39-.21-.51-.14-.15-.31-.21-.51-.21s-.39.07-.51.21c-.09.09-.15.19-.19.32-.02.06-.03.13-.03.2,0,.2.07.37.21.51.13.14.3.21.51.21.2,0,.37-.06.51-.21.15-.15.21-.32.21-.51"/>
    <path class="cls-4" d="m123.56,75.18c-.09-.17-.1-.72-.1-1.4v-2.99c0-.62.06-1.19-.53-1.19-.19,0-.56.14-1,.37.23.15.32.45.32,1.11v2.7c0,.78,0,1.21-.1,1.39h1.42Z"/>
    <path class="cls-4" d="m120.09,75.3c-.56,0-.96-.17-1.22-.51-.17-.23-.27-.67-.27-1.28v-3.04h-.85v-.67l.85-.1.09-1.32,1.13-.09v1.41h1.39v.75h-1.39v3.08c0,.58.25.87.72.87.3,0,.59-.07.91-.24l.1.72c-.52.27-1.01.41-1.47.41"/>
    <path class="cls-4" d="m101.87,74.04c-.31.25-.68.41-1.08.41-.56,0-.9-.24-.9-.82,0-.86.8-1.44,1.98-1.13v1.54h0Zm1.33,1.15c-.09-.31-.1-.83-.1-1.26v-2.34c0-1.52-.68-2.02-2.16-2.02-.58,0-1.05.12-1.58.36l-.15.77c.5-.27,1.1-.38,1.67-.38,1.04,0,.99.82.99,1.61-1.44-.44-3.25.11-3.22,1.87.02.99.74,1.51,1.66,1.53.62,0,1.15-.23,1.57-.68l.09.54h1.22Z"/>
    <path class="cls-4" d="m115.8,75.18c.04-.11.04-.37.05-.67v-2.97c0-.74-.22-1.08-.77-1.08-.42,0-.91.3-1.3.64v2.7c0,.31,0,.6.02.83,0,.23.03.42.05.53h-1.34c.05-.22.06-.68.06-1.32v-2.8c0-.68-.11-.96-.32-1.1.48-.24.77-.36.98-.36.39,0,.49.35.5.79.47-.48,1.14-.85,1.76-.85s1.06.21,1.34.66c.06.1.11.23.15.39.05.24.08.54.08.92v2.28c0,.91.04,1.28.09,1.39h-1.34Z"/>
    <path class="cls-4" d="m106.96,70.53c-.09,0-.18,0-.31,0-.39,0-.78.21-1.16.63v2.76c0,.8.03,1.19.07,1.28h-1.34c.02-.09.03-.19.04-.31.02-.26.02-.6.02-.96v-2.85c0-.62-.1-.97-.32-1.1.39-.21.75-.36.98-.36.41,0,.49.38.49.8.38-.57.85-.86,1.39-.86.1,0,.21,0,.3.03l-.17.94Z"/>
    <path class="cls-4" d="m111.5,75.18c-.09-.2-.1-.83-.1-1.26v-2.34c0-1.52-.68-2.02-2.16-2.02-.58,0-1.06.12-1.59.35l-.15.77c.19-.1.39-.18.6-.24.34-.09.71-.15,1.07-.15,1.04,0,.99.82.99,1.61-1.43-.44-3.25.11-3.22,1.87.02.99.74,1.51,1.66,1.53.62,0,1.16-.24,1.58-.68,0,0,.03.35.09.54h1.22v.02Zm-1.34-1.15c-.31.25-.68.41-1.08.41-.56,0-.9-.24-.9-.82,0-.86.8-1.43,1.98-1.13v1.54h0Z"/>
    <path class="cls-4" d="m97.45,68.5c-.62-.25-1.26-.37-1.92-.37-.84,0-1.5.3-2.05.87-.56.58-.83,1.34-.83,2.23,0,.98.25,1.77.74,2.34.49.57,1.14.87,2.02.87.46,0,.84-.06,1.16-.19v-1.93c0-.14,0-.26,0-.37h-1.04c-.02-.34-.06-.7-.11-.91l2.52.09c-.09.3-.1.66-.1,1.28v.99c0,.69.04,1.16.1,1.4-.87.36-1.74.54-2.62.54-1.3,0-2.3-.36-3.03-1.08-.72-.72-1.13-1.68-1.13-2.9s.45-2.26,1.25-3.05c.79-.78,1.83-1.16,3.13-1.16,1.11,0,1.51.15,2.11.35l-.2.98"/>
    <g>
      <path id="SVGID" class="cls-4" d="m89.78,74.11c-.09.35-.28.64-.42.81-.54-2.02-1.5-3.06-1.96-3.48.39,0,1.08.11,1.84.87.54.55.72,1.16.54,1.8Zm-2.66-2.46c-.03.19-.07.52-.07.92v.18c0,.68,0,2.48.64,3.13.16.16.35.24.57.24h.02s.63.09.8-.86c-.08-.31-.7-2.61-1.96-3.62Zm-.97-.03c-.33-.1-1.62-.36-3.54.89-.97.63-1.46,1.35-1.41,2.07.04.65.54,1.28,1.34,1.69.32-.2,2.31-1.55,3.62-4.65Zm-.39,5.02h0Zm.62-4.64c-.64,1.6-1.53,2.77-2.17,3.47-.62.68-1.13,1.07-1.31,1.2.09.28.45,1.34,1.28,1.34.97,0,1.56-1.34,1.57-1.36h0c.05-.11,1.16-2.53.63-4.65Zm3.42-3.94c-.07-.33-.25-.55-.38-.67-.06.23-.2.63-.43,1.12-.31.63-.86,1.53-1.78,2.3.44.09,1.35.08,2.17-1.17.37-.59.51-1.12.41-1.58Zm-1.4-2.17c-.22-.02-.42.05-.59.21-.71.62-.8,2.45-.84,3.13v.13c-.03.42,0,.92.03,1.18,1.57-1.3,2.11-3.21,2.17-3.47-.09-1.08-.74-1.17-.77-1.18Zm-1.99,3.45c-.04-2.52-.87-4.29-2.15-4.6-.27-.07-.53-.03-.75.1-.44.27-.64.86-.71,1.09,1.45.9,2.35,2.07,2.86,2.91.33.55.55,1.03.66,1.32.1-.44.09-.81.09-.82Zm-3.95-3.03c-.86.36-1.35.97-1.36,1.7,0,.45.16.91.49,1.33.34.44.83.81,1.41,1.06,1.82.78,2.85.3,3.1.15-1.13-2.79-3.31-4.06-3.64-4.24Z"/>
      <g class="cls-1">
        <path class="cls-3" d="m86.52,82.34c3.29.03,5.96-4.98,5.96-11.19,0-6.21-2.68-11.26-5.97-11.3-3.29-.03-5.96,4.98-5.96,11.19s2.68,11.27,5.97,11.3Z"/>
      </g>
    </g>
  </g>
</svg>