<?xml version="1.0" encoding="UTF-8"?>
<svg id="Layer_1" data-name="Layer 1" xmlns="http://www.w3.org/2000/svg" viewBox="0 0 200 100">
  <defs>
    <style>
      .cls-1 {
        fill: #691812;
        stroke-width: 0px;
      }
    </style>
  </defs>
  <path class="cls-1" d="m145.09,50.73c.1.02-.1-.02,0,0,0,.52,0,1.04,0,1.55.04,2.07.97,2.78,2.89,2.01,1.19-.47,2.4-1.06,3.35-1.88,2.08-1.8,4.25-3.6,5.92-5.76,1.58-2.04.4-5.1-2.1-5.71-1.79-.44-3.77-.38-5.64-.22-1.74.14-2.88,1.38-3.29,3.06-.56,2.28-.84,4.59-1.13,6.95m2.88,25.4c-3.04.61-6.01.52-8.97.16-.51-.06-1.23-.69-1.35-1.17-.44-1.79-.89-3.62-.95-5.44-.2-5.94-.46-11.89-.25-17.83.18-5.06.93-10.12,1.56-15.16.24-1.91,1.08-2.44,2.92-2.44,5.39,0,10.78,0,16.16,0,6.55.01,10.6,5.26,9.19,11.63-1.08,4.88-4.43,7.72-8.41,10.1-2.3,1.38-4.64,2.69-6.96,4.04-4.52,2.62-5.29,4.29-4.29,9.38.43,2.2.87,4.4,1.34,6.73"/>
  <path class="cls-1" d="m88.82,33.43c-3.76,1.03-7.31,2.56-8.04,6.88-.42,2.48-.14,5.17.27,7.68.71,4.36,1.99,8.62,2.65,12.98,1.29,8.52-2.81,15.13-10.72,16.73-8.93,1.8-16.18-4.97-16.25-12.86-.04-4.32.83-8.48,2-12.6,1.05-3.7,1.63-7.47,1.26-11.3-.31-3.15-2.29-5.21-5.13-6.46-.84-.37-1.72-.64-2.72-1.01,3.27-.27,6.25.39,9.14,1.45,3.08,1.13,4.89,4.21,5.04,7.84.2,4.72-1.27,9.15-2.07,13.7-.64,3.63-.82,7.3.4,10.85.78,2.26,2.38,3.75,4.84,4.04,2.5.29,4.75-.35,5.93-2.71.74-1.48,1.17-3.21,1.31-4.87.3-3.46-.23-6.87-.94-10.28-.71-3.45-1.24-6.99-1.41-10.51-.21-4.25,1.52-6.81,5.52-8.13,2.84-.94,5.88-1.26,8.82-1.85.04.15.07.3.1.45"/>
  <path class="cls-1" d="m21.04,46.58c-.44.25-.99-.06-1.02-.56-.16-3.47.59-6.43,1.72-9.32.18-.46.7-.97,1.16-1.09,2.78-.7,5.55-1.51,8.38-1.87,5.5-.72,10.99-.42,16.36,1.08,5.62,1.57,5.84,2.78,3.6,7.75-.23.52-.48,1.03-.78,1.52-.84,1.38-1.41,1.31-2.56.1-.94-.99-2.03-1.91-3.21-2.58-2.05-1.16-3.55-.58-4.16,1.69-.66,2.47-1.3,5.01-1.42,7.54-.33,7.12-.06,14.23,1.84,21.17.25.89.44,1.8.74,2.68.4,1.19-.27,1.75-1.23,1.79-2.59.1-5.18.11-7.77,0-.44-.02-1.1-.83-1.21-1.37-.48-2.3-1.01-4.63-1.12-6.96-.4-8.02.52-15.94,2.02-23.81.15-.78-.04-1.62-.17-2.45-.06-.36-.39-.61-.75-.56-.79.1-1.6.16-2.26.51-2.32,1.22-4.54,2.65-6.8,3.99-.43.26-.87.5-1.37.78"/>
  <path class="cls-1" d="m104.17,76.52c-3.31,0-6.63.02-9.95-.01-.76,0-1.58-.05-2.27-.33-.48-.19-1.11-.8-1.12-1.23-.1-4.53-.19-9.07-.06-13.6.1-3.44.37-6.89.85-10.29.73-5.17,1.72-10.31,2.59-15.46.18-1.03.7-1.42,1.81-1.37,2.27.1,4.56.02,6.84.04,1.59,0,1.87.33,1.35,1.85-1,2.93-2.33,5.76-3.08,8.74-1.03,4.07-1.68,8.24-2.44,12.37-.55,2.98-.51,5.94.49,8.84.99,2.87,3.97,4.5,6.77,3.39,1.97-.78,3.81-1.97,5.6-3.13,1.83-1.18,2.17-1.24,2.81.77.83,2.59,1.5,5.24,2.11,7.89.3,1.32-.72,1.53-1.74,1.53-3.52,0-7.05,0-10.57,0"/>
  <path class="cls-1" d="m130.93,76.23c-.28.05-.86.25-1.45.27-1.92.04-3.83.01-5.75.02-1.52,0-2.61-.49-2.8-2.2-.22-2.04-.64-4.07-.73-6.11-.19-4.64-.44-9.3-.26-13.94.21-5.54.76-11.07,1.34-16.59.31-2.88,1.16-3.42,4.05-3.42,1.5,0,3,.01,4.5,0,1.31-.01,1.69.43,1.34,1.81-1.74,6.81-3.01,13.73-2.51,20.76.46,6.38,1.45,12.72,2.25,19.41"/>
  <path class="cls-1" d="m70.42,43.48c-1.81-3.61-3.48-6.92-5.12-10.24-.12-.25-.19-.64-.08-.88,1.6-3.39,3.23-6.77,4.94-10.35.37.42.61.61.73.85,1.53,2.93,3.06,5.85,4.52,8.81.21.43.31,1.12.12,1.52-1.61,3.35-3.3,6.65-5.12,10.28"/>
  <path class="cls-1" d="m179.12,32.57c.04-2.44-1.95-4.47-4.42-4.52-2.45-.04-4.48,1.95-4.52,4.44-.04,2.43,1.95,4.45,4.43,4.5,2.43.05,4.47-1.96,4.51-4.43m.88-.02c0,2.94-2.41,5.34-5.35,5.33-3-.01-5.36-2.38-5.35-5.38,0-2.95,2.4-5.33,5.35-5.33,2.99,0,5.36,2.38,5.35,5.38"/>
  <path class="cls-1" d="m174.22,32.07c.3-.01.65.12.8-.22.09-.2.08-.5-.02-.7-.16-.3-.49-.2-.78-.18v1.1Zm1.76,2.9h-.93c-.25-.67-.49-1.34-.74-2.01-.03,0-.06.01-.08.02v1.98h-.88v-4.85c.55,0,1.11-.07,1.65.02.54.08.88.49.98,1.04.11.59,0,1.13-.5,1.52-.07.06-.15.1-.24.16.25.69.5,1.39.76,2.12"/>
</svg>