<?xml version="1.0" encoding="UTF-8"?>
<svg id="Layer_1" data-name="Layer 1" xmlns="http://www.w3.org/2000/svg" viewBox="0 0 200 100">
  <defs>
    <style>
      .cls-1 {
        fill: #b6a999;
        stroke-width: 0px;
      }
    </style>
  </defs>
  <path class="cls-1" d="m113.21,64.31c4.16,0,7.23-1.04,9.14-3.08,1.91-2.04,2.87-5.11,2.87-9.12,0-3.54-.42-5.85-1.24-6.85-.78-1.06-2.69-1.58-5.81-1.58-.28,0-1.13,0-1.47-.13-.12-.06-.29-.19-.29-.63,0-.23,0-.95,1.42-.95l.9.07h18.62c.61,0,1.01.08,1.24.25l.07.05.08.03c.1.04.25.24.25.54s-.17.5-.51.63c-.28.09-.68.13-1.24.13h-.67c-1.63,0-2.83.49-3.67,1.51-.84,1.02-1.24,3.12-1.24,6.42,0,2.51.04,4.67.11,6.23.12,1.56.23,2.55.34,3.14.19.8.32,1.16.4,1.34l.03.08.07.07c.07.09.12.23.12.33,0,.27-.09.58-.52.58-.1,0-.46-.13-1.06-.38-.6-.25-1.2-.38-1.75-.38-1.11,0-3.44.56-7.12,1.7-3.59,1.08-9.43,1.63-9.43,1.63l-.57.02c-13.57,0-20.65-11.22-23.69-16l-.07-.12-.12-.19c-.18-.29-.35-.55-.5-.78l-14.92-22.8v30.69c0,.99.25,2.07.8,2.74,1.25,1.53,2.85,2.2,5.18,2.2.32-.03.69-.06,1.01-.06,1.87,0,2.06,1.09,2.06,1.55,0,.38-.14,1.61-1.94,1.61h-17.05c-1.86,0-2.06-1.04-2.06-1.48,0-1.04.74-1.34.97-1.4.32-.14.79-.22,1.28-.22,2.18,0,4.84-1.07,5.7-2.31.44-.62.82-1.97.82-2.64V22.83c-.75-.62-1.56-1.02-2.43-1.19-1.01-.2-2.34-.3-3.96-.3-.37,0-.74-.05-1.13-.15-.66-.27-1.01-.74-1.01-1.34,0-.38.15-1.62,2.07-1.62h13.84c2.13,0,3.8,3.82,3.87,3.99l.06.1c1.7,3.05,7.43,13.3,9.87,17.07.2.3.64,1.09,1.2,2.07,1.68,2.98,4.82,8.52,7.32,11.94,5.12,7,5.58,7.27,7.94,8.91,2.63,1.83,3.78,1.85,5.33,2,.11.01.47,0,.47,0"/>
  <path class="cls-1" d="m104.47,56.95s-.08,0-.12-.01c-.51-.1-.8-.51-2.43-2.81-.38-.56-.78-1.16-1.21-1.8-3.07-4.53-7.69-11.34-7.75-13.76.33-8.76,2.76-14.95,7.41-18.88,3.43-2.92,7.37-4.4,11.73-4.4,1.26,0,2.57.13,3.92.37,1.68.3,3.65.95,4.82,1.41,1,.39,3.35,1.23,4.11,1.5l.38.14c.41.15.78.24,1.1.24,1.03,0,1.41-.8,1.78-1.75.46-1.1.77-1.5,1.22-1.56.38.08.53.53.57.9v.08s-.02,1.1-.02,1.1l-.02,1.36c-.07,3.84-.19,11.82-.24,12.2-.02.12-.02.18-.04.26-.02.08-.15.21-.21.21-.19.02-.28.03-.36.03-.27,0-.42-.14-.52-.49-.07-.21-.15-.76-.23-1.34-.16-1.14-.36-2.59-.66-3.45-.12-.32-.2-.6-.28-.86l-.05-.17c-.44-1.42-.69-2.19-2.48-3.81-2.45-2.17-5.3-3.57-8.46-4.14-.77-.14-1.54-.21-2.31-.21-4.32,0-8.42,2.2-10.69,5.72-2.6,4.05-3.77,8.11-4.47,15.51-.05.42-.07.95-.07,1.58,0,1.68.18,4.23.71,6.36.69,2.88,2.53,6.81,4.8,10.28l.12.18s-.03,0-.05,0"/>
  <polygon class="cls-1" points="65.19 73.64 67.45 73.64 67.45 77.83 74.13 77.83 74.13 73.64 76.39 73.64 76.39 84.39 74.13 84.39 74.13 79.51 67.45 79.51 67.45 84.39 65.19 84.39 65.19 73.64"/>
  <path class="cls-1" d="m88.28,79.02c0-2.35-1.45-3.99-3.98-3.99s-3.97,1.64-3.97,3.99,1.44,3.99,3.97,3.99,3.98-1.64,3.98-3.99m-10.3,0c0-3.03,1.78-5.68,6.32-5.68s6.33,2.65,6.33,5.68-1.78,5.67-6.33,5.67-6.32-2.65-6.32-5.67"/>
  <polygon class="cls-1" points="94.67 75.33 90.63 75.33 90.63 73.64 100.97 73.64 100.97 75.33 96.93 75.33 96.93 84.39 94.67 84.39 94.67 75.33"/>
  <polygon class="cls-1" points="102.31 73.64 111.65 73.64 111.65 75.32 104.57 75.32 104.57 78.04 111.36 78.04 111.36 79.72 104.57 79.72 104.57 82.7 111.77 82.7 111.77 84.39 102.31 84.39 102.31 73.64"/>
  <polygon class="cls-1" points="113.47 73.64 115.73 73.64 115.73 82.62 122.27 82.62 122.27 84.39 113.47 84.39 113.47 73.64"/>
  <path class="cls-1" d="m127.94,73.34c1.66,0,4.96.3,5.26,3.42h-2.44c-.07-.84-.82-1.73-2.71-1.73-1.51,0-2.5.45-2.5,1.48,0,2.54,8.01.09,8.01,4.7,0,2.77-2.88,3.5-5.16,3.5-3.87,0-5.41-1.52-5.45-3.78h2.44c.06,1.43,1.22,2.1,3.09,2.1,1.39,0,2.65-.43,2.65-1.58,0-2.67-7.92-.35-7.92-4.76,0-2.41,2.12-3.33,4.74-3.33"/>
</svg>