<?xml version="1.0" encoding="UTF-8"?>
<svg id="Layer_1" data-name="Layer 1" xmlns="http://www.w3.org/2000/svg" viewBox="0 0 200 100">
  <defs>
    <style>
      .cls-1 {
        fill: #fff;
        stroke-width: 0px;
      }
    </style>
  </defs>
  <path class="cls-1" d="m38.98,58.2h-13.01l-2.1,4.9h-3.87l11.74-26.21h1.26l12.02,26.21h-3.91l-2.13-4.9Zm-1.26-2.89l-5.34-12.14-5.18,12.14h10.52Z"/>
  <path class="cls-1" d="m65.74,52.11v10.99h-4.03v-11.07l-10.12-15.02h4.55l7.71,11.31,7.95-11.31h4.27l-10.32,15.1Z"/>
  <path class="cls-1" d="m95.71,51.25l-2.49,2.73v9.13h-4.03v-26.09h4.03v11.66l10.75-11.66h4.66l-10.2,11.23,11.31,14.86h-4.94l-9.09-11.86Z"/>
  <path class="cls-1" d="m138.88,58.2h-13.01l-2.1,4.9h-3.87l11.74-26.21h1.26l12.02,26.21h-3.91l-2.13-4.9Zm-1.26-2.89l-5.34-12.14-5.18,12.14h10.52Z"/>
  <path class="cls-1" d="m180,37.01v26.09h-1.74l-16.52-18.46v18.46h-3.91v-26.09h1.74l16.56,18.22v-18.22h3.87Z"/>
</svg>