<?xml version="1.0" encoding="UTF-8"?>
<svg id="Layer_1" data-name="Layer 1" xmlns="http://www.w3.org/2000/svg" xmlns:xlink="http://www.w3.org/1999/xlink" viewBox="0 0 200 100">
  <defs>
    <style>
      .cls-1 {
        mask: url(#mask);
      }

      .cls-2 {
        fill: #221f1f;
      }

      .cls-2, .cls-3, .cls-4, .cls-5 {
        fill-rule: evenodd;
        stroke-width: 0px;
      }

      .cls-3 {
        fill: #221e1f;
      }

      .cls-4 {
        fill: #2d78bc;
      }

      .cls-5 {
        fill: #fff;
      }

      .cls-6 {
        mask: url(#mask-1);
      }
    </style>
    <mask id="mask" x="20" y="38.88" width="16.61" height="16.61" maskUnits="userSpaceOnUse">
      <g id="mask0">
        <path class="cls-5" d="m20,38.88h16.61v16.61h-16.61v-16.61Z"/>
      </g>
    </mask>
    <mask id="mask-1" x="170.13" y="42.6" width="9.87" height="14.83" maskUnits="userSpaceOnUse">
      <g id="mask1">
        <path class="cls-5" d="m170.13,42.6h9.87v14.83h-9.87v-14.83Z"/>
      </g>
    </mask>
  </defs>
  <path class="cls-4" d="m49.11,61.12h-4.49c-3.35,0-6.06-2.71-6.06-6.06v-10.55s10.55,0,10.55,0c3.35,0,6.06,2.71,6.06,6.06v4.49c0,3.35-2.71,6.06-6.06,6.06Z"/>
  <g class="cls-1">
    <path class="cls-3" d="m26.06,38.88h4.49c3.35,0,6.06,2.71,6.06,6.06v10.55h-10.55c-3.35,0-6.06-2.71-6.06-6.06v-4.49c0-3.35,2.71-6.06,6.06-6.06Z"/>
  </g>
  <path class="cls-2" d="m67.04,46.97l-1.87,5.39h3.69l-1.81-5.39Zm3.46,10.45l-.87-2.62h-5.27l-.9,2.62h-3.02l5.39-14.83h2.27l5.41,14.83h-3.02Z"/>
  <path class="cls-2" d="m81.43,57.43v-6.56c0-1.17-.65-1.98-1.79-1.98s-1.81.79-1.81,1.98v6.56h-2.71v-10.85h2.64v1c.71-.75,1.6-1.12,2.71-1.12,1.19,0,2.1.37,2.75,1.15.6.73.92,1.69.92,2.89v6.94h-2.71Z"/>
  <path class="cls-2" d="m92.21,52.84h-2.14c-1.02,0-1.52.42-1.52,1.23s.52,1.25,1.56,1.25c.94,0,1.54-.23,1.85-.69.17-.25.25-.65.25-1.21v-.58Zm.06,4.58v-.94c-.69.69-1.58,1.04-2.67,1.04s-2-.29-2.65-.85c-.69-.58-1.02-1.44-1.02-2.54,0-1.04.37-1.83,1.1-2.4.67-.5,1.54-.75,2.6-.75h2.56v-.54c0-1.15-.67-1.71-2.02-1.71-.87,0-1.56.29-2.08.9l-1.73-1.69c.52-.58,1.12-.98,1.77-1.21.56-.19,1.27-.29,2.15-.29,3.08,0,4.62,1.27,4.62,3.83v7.14h-2.65Z"/>
  <path class="cls-2" d="m103.24,49.93c-.27-.69-.81-1.04-1.6-1.04s-1.33.35-1.6,1.04c-.15.4-.23,1.08-.23,2.06s.08,1.67.23,2.06c.27.71.81,1.06,1.6,1.06s1.33-.35,1.6-1.04c.17-.44.25-1.12.25-2.08s-.08-1.63-.25-2.06Zm.31,7.5v-1.02c-.69.77-1.58,1.15-2.69,1.15-2.06,0-3.27-1.02-3.62-3.06-.1-.56-.15-1.4-.15-2.5s.04-1.92.15-2.48c.35-2.04,1.54-3.06,3.6-3.06,1.1,0,2,.35,2.65,1.08v-4.94h2.71v14.83h-2.64Z"/>
  <path class="cls-2" d="m114.16,49.91c-.27-.69-.81-1.02-1.6-1.02s-1.31.35-1.58,1.04c-.19.46-.29,1.15-.29,2.06s.08,1.62.27,2.08c.29.69.83,1.04,1.6,1.04s1.33-.35,1.6-1.04c.19-.44.29-1.15.29-2.08s-.1-1.62-.29-2.08Zm1.77,6.31c-.85.9-1.98,1.33-3.37,1.33s-2.5-.44-3.35-1.33c-.81-.85-1.23-2.25-1.23-4.23,0-3.69,1.52-5.54,4.58-5.54s4.6,1.85,4.6,5.54c0,1.98-.42,3.37-1.23,4.23Z"/>
  <path class="cls-2" d="m122.01,57.43c-1.89,0-3.16-1.21-3.16-3.1v-11.73h2.71v11.56c0,.65.31.98.96.98h1.04v2.29h-1.54Z"/>
  <path class="cls-2" d="m131.13,57.43v-1c-.71.75-1.6,1.12-2.71,1.12-1.19,0-2.1-.37-2.75-1.15-.6-.73-.92-1.69-.92-2.89v-6.93h2.71v6.56c0,1.17.65,1.98,1.79,1.98s1.81-.79,1.81-1.98v-6.56h2.71v10.85h-2.65Z"/>
  <path class="cls-2" d="m142.54,49.93c-.27-.69-.79-1.04-1.6-1.04s-1.33.35-1.6,1.04c-.15.4-.23,1.08-.23,2.06s.08,1.67.23,2.06c.27.71.81,1.06,1.6,1.06s1.33-.35,1.6-1.06c.15-.4.23-1.08.23-2.06s-.08-1.67-.23-2.06Zm2.79,4.56c-.35,2.04-1.54,3.06-3.6,3.06-1.1,0-2.02-.37-2.71-1.15v1.02h-2.62v-14.83h2.71v4.94c.65-.73,1.52-1.08,2.62-1.08,2.06,0,3.25,1.02,3.6,3.06.1.56.15,1.39.15,2.48s-.04,1.94-.15,2.5Z"/>
  <path class="cls-2" d="m153.32,52.84h-2.15c-1.02,0-1.52.42-1.52,1.23s.52,1.25,1.56,1.25c.94,0,1.54-.23,1.85-.69.17-.25.25-.65.25-1.21v-.58Zm.06,4.58v-.94c-.69.69-1.58,1.04-2.67,1.04s-2-.29-2.65-.85c-.69-.58-1.02-1.44-1.02-2.54,0-1.04.38-1.83,1.1-2.4.67-.5,1.54-.75,2.6-.75h2.56v-.54c0-1.15-.67-1.71-2.02-1.71-.87,0-1.56.29-2.08.9l-1.73-1.69c.52-.58,1.12-.98,1.77-1.21.56-.19,1.27-.29,2.15-.29,3.08,0,4.62,1.27,4.62,3.83v7.14h-2.65Z"/>
  <path class="cls-2" d="m164.88,57.43v-6.56c0-1.17-.65-1.98-1.79-1.98s-1.81.79-1.81,1.98v6.56h-2.71v-10.85h2.64v1c.71-.75,1.6-1.12,2.71-1.12,1.19,0,2.1.37,2.75,1.15.6.73.92,1.69.92,2.89v6.94h-2.71Z"/>
  <g class="cls-6">
    <path class="cls-2" d="m176.65,57.43l-2.67-4.52-1.15,1.29v3.23h-2.71v-14.83h2.71v8.41l3.6-4.44h3.27l-3.87,4.37,4.16,6.48h-3.35Z"/>
  </g>
</svg>