<?xml version="1.0" encoding="UTF-8"?>
<svg id="Layer_1" data-name="Layer 1" xmlns="http://www.w3.org/2000/svg" viewBox="0 0 200 100">
  <defs>
    <style>
      .cls-1 {
        fill: #231f20;
      }

      .cls-1, .cls-2, .cls-3 {
        stroke-width: 0px;
      }

      .cls-2 {
        fill: #fff;
      }

      .cls-3 {
        fill: #ec1c24;
      }
    </style>
  </defs>
  <path class="cls-3" d="m147.48,76.91c0,4.45-3.64,8.09-8.08,8.09H60.61c-4.45,0-8.08-3.64-8.08-8.09V23.09c0-4.45,3.64-8.09,8.08-8.09h78.79c4.45,0,8.08,3.64,8.08,8.09v53.82Z"/>
  <path class="cls-2" d="m133.7,67.52c0,2.22-1.82,4.04-4.04,4.04h-59.89c-2.23,0-4.05-1.82-4.05-4.04V31.76c0-2.22,1.82-4.04,4.05-4.04h59.89c2.22,0,4.04,1.82,4.04,4.04v35.77Z"/>
  <path class="cls-1" d="m129.65,71.88h-59.89c-2.4,0-4.36-1.95-4.36-4.36V31.76c0-2.4,1.96-4.35,4.36-4.35h59.89c2.4,0,4.36,1.95,4.36,4.35v35.77c0,2.4-1.96,4.36-4.36,4.36m-59.89-43.85c-2.06,0-3.73,1.67-3.73,3.73v35.77c0,2.06,1.67,3.73,3.73,3.73h59.89c2.06,0,3.73-1.68,3.73-3.73V31.76c0-2.06-1.67-3.73-3.73-3.73h-59.89Zm58.39,42.24h-56.9c-2.29,0-4.16-1.82-4.16-4.05v-33.14c0-2.23,1.86-4.05,4.16-4.05h56.9c2.29,0,4.16,1.82,4.16,4.05v33.14c0,2.24-1.87,4.05-4.16,4.05m-56.9-40.62c-1.95,0-3.53,1.54-3.53,3.43v33.14c0,1.89,1.58,3.43,3.53,3.43h56.9c1.95,0,3.53-1.54,3.53-3.43v-33.14c0-1.89-1.58-3.43-3.53-3.43h-56.9Zm55.48,39.06h-54.05c-2.18,0-3.96-1.69-3.96-3.77v-30.59c0-2.07,1.77-3.76,3.96-3.76h54.05c2.19,0,3.96,1.69,3.96,3.76v30.59c0,2.08-1.77,3.77-3.96,3.77m-54.05-37.5c-1.84,0-3.34,1.41-3.34,3.14v30.59c0,1.73,1.5,3.14,3.34,3.14h54.05c1.84,0,3.34-1.41,3.34-3.14v-30.59c0-1.73-1.5-3.14-3.34-3.14h-54.05Z"/>
  <path class="cls-3" d="m80.32,52.52v-3.03h2.39c1.58,0,2.28.47,2.28,1.55s-.69,1.48-2.24,1.48h-2.44Zm-5.11,3.83h7.26c3.68,0,5.29-.43,6.41-1.73.68-.78,1.07-1.94,1.07-3.15,0-1.3-.39-2.3-1.14-2.97-.55-.48-1.03-.66-2.17-.91,1.59-.52,1.99-.82,2.4-1.87.21-.5.32-1.05.32-1.58,0-1.62-.82-2.96-2.1-3.49-1.3-.55-2.8-.73-5.86-.73h-6.18v16.42Zm5.11-9.85v-2.83h2.44c1.1,0,1.71.51,1.71,1.4,0,.57-.25,1.03-.66,1.23-.37.19-.48.21-1.57.21h-1.92Z"/>
  <path class="cls-3" d="m82.47,56.44h-7.34v-16.6h6.27c3.09,0,4.58.19,5.9.74,1.33.55,2.15,1.91,2.15,3.57,0,.53-.11,1.08-.33,1.61-.39,1-.77,1.34-2.15,1.82.98.23,1.41.43,1.9.86.78.69,1.17,1.71,1.17,3.04,0,1.25-.4,2.42-1.09,3.21-1.14,1.31-2.77,1.76-6.48,1.76m-7.17-.18h7.17c3.65,0,5.25-.43,6.35-1.7.67-.76,1.05-1.89,1.05-3.09,0-1.27-.37-2.25-1.11-2.9-.52-.45-.96-.63-2.13-.89l-.32-.07.31-.1c1.57-.52,1.95-.81,2.34-1.82.21-.51.32-1.04.32-1.54,0-1.58-.78-2.89-2.05-3.41-1.29-.54-2.76-.72-5.83-.72h-6.1v16.25Zm7.46-3.66h-2.53v-3.21h2.48c1.64,0,2.37.5,2.37,1.64s-.72,1.57-2.32,1.57m-2.35-.18h2.35c1.51,0,2.15-.42,2.15-1.39s-.66-1.46-2.2-1.46h-2.31v2.86Zm1.83-5.85h-2.01v-3.01h2.53c1.15,0,1.8.54,1.8,1.49,0,.6-.27,1.09-.71,1.31-.39.2-.53.22-1.61.22m-1.83-.18h1.83c1.08,0,1.19-.02,1.53-.2.38-.19.61-.62.61-1.15,0-.84-.58-1.31-1.63-1.31h-2.35v2.66Z"/>
  <path class="cls-3" d="m92.51,52.88h5.2v-5.66h2.58l.39.05.48.09c.55.11,1.05,1.09,1.05,2.03l-.02,1.66c0,.37.09.96.3,1.82h5.32v-.62c-.3-.09-.46-.25-.46-.48l-.03-.59-.09-2.29c-.07-1.51-.37-2.35-1.05-2.87-.64-.5-1.21-.71-2.71-.89,1.41-.3,2.01-.55,2.6-1.1.76-.71,1.12-1.64,1.12-2.92,0-3.31-2.01-4.68-6.83-4.68h-7.85v16.43Zm5.2-9.35v-3.08h2.69c1.25,0,1.92.48,1.92,1.39,0,1.3-.5,1.69-2.22,1.69h-2.4Z"/>
  <path class="cls-3" d="m107.89,52.97h-5.47l-.02-.07c-.2-.82-.3-1.44-.3-1.84l.02-1.66c0-.89-.48-1.84-.98-1.94l-.48-.09-.38-.05h-2.48v5.66h-5.38v-16.61h7.94c4.85,0,6.92,1.43,6.92,4.77,0,1.3-.37,2.25-1.15,2.98-.54.49-1.06.75-2.16,1.01,1.13.17,1.68.38,2.27.84.7.53,1.01,1.39,1.08,2.94l.11,2.88c0,.19.13.32.39.4l.06.02v.77Zm-5.33-.18h5.16v-.46c-.38-.13-.46-.37-.46-.54l-.11-2.87c-.07-1.5-.36-2.31-1.02-2.81-.65-.51-1.22-.7-2.67-.87v-.17c1.4-.3,1.97-.54,2.55-1.08.75-.7,1.09-1.61,1.09-2.86,0-3.26-1.95-4.59-6.74-4.59h-7.76v16.25h5.03v-5.66h2.67l.4.05.49.09c.59.12,1.12,1.13,1.12,2.12l-.02,1.66c0,.37.1.97.28,1.74m-2.44-9.18h-2.48v-3.26h2.78c1.66,0,2,.81,2,1.48,0,1.36-.54,1.77-2.3,1.77m-2.31-.18h2.31c1.67,0,2.13-.34,2.13-1.6,0-.87-.62-1.31-1.83-1.31h-2.61v2.9Z"/>
  <path class="cls-3" d="m125.55,49.99c-.16,1.42-.32,2.04-.68,2.81-1.21,2.58-3.74,3.97-7.21,3.97-5.23,0-8.44-3.31-8.44-8.69s3.33-8.58,8.46-8.58c1.82,0,3.6.45,4.86,1.26.73.46,1.36,1.12,1.84,1.94.59.96.82,1.69,1.07,3.47h-5.04c-.11-.66-.21-.94-.39-1.3-.45-.79-1.3-1.25-2.37-1.25-2.03,0-3.13,1.57-3.13,4.49s1.12,4.63,3.17,4.63c.71,0,1.32-.19,1.78-.55.23-.18.43-.43.59-.71.25-.41.34-.73.48-1.49h4.99Z"/>
  <path class="cls-3" d="m117.66,56.86c-5.26,0-8.53-3.36-8.53-8.78s3.36-8.67,8.55-8.67c1.85,0,3.64.46,4.91,1.27.75.47,1.39,1.15,1.87,1.97.6.98.84,1.73,1.08,3.5v.1s-5.2,0-5.2,0v-.07c-.13-.67-.22-.94-.39-1.28-.44-.77-1.26-1.2-2.29-1.2-1.99,0-3.04,1.52-3.04,4.41s1.1,4.54,3.08,4.54c.69,0,1.29-.18,1.73-.53.21-.17.42-.42.57-.68.25-.41.34-.73.47-1.46v-.07h5.18v.1c-.16,1.39-.32,2.02-.7,2.84-1.22,2.6-3.81,4.03-7.29,4.03m.02-17.27c-5.09,0-8.38,3.33-8.38,8.49s3.2,8.6,8.36,8.6c3.41,0,5.94-1.39,7.13-3.92.36-.77.52-1.39.66-2.68h-4.82c-.13.69-.23,1.03-.48,1.44-.16.28-.38.54-.61.73-.47.37-1.1.57-1.84.57-2.1,0-3.26-1.68-3.26-4.72s1.14-4.58,3.22-4.58c1.1,0,1.97.46,2.45,1.29.17.35.27.62.39,1.26h4.87c-.24-1.67-.47-2.4-1.05-3.34-.47-.8-1.09-1.46-1.82-1.91-1.24-.79-3-1.24-4.82-1.24"/>
  <path class="cls-1" d="m78.51,64.84c-.28.36-.66.52-1.26.52-1.19,0-1.98-.88-1.98-2.19s.84-2.12,2.12-2.12c.55,0,1.05.17,1.39.45.13.12.25.25.34.41.09.16.13.27.18.54h-.91c-.16-.48-.44-.66-.99-.66-.75,0-1.21.55-1.21,1.43s.48,1.44,1.22,1.44c.36,0,.62-.12.83-.36.12-.13.17-.26.25-.54h-.99v-.69h1.81v2.21h-.55l-.11-.6c-.05.07-.09.12-.13.17"/>
  <path class="cls-1" d="m81.17,61.1l-1.55,4.17h.92l.28-.84h1.69l.3.84h.96l-1.57-4.17h-1.03Zm.46.76l.64,1.88h-1.21l.57-1.88Z"/>
  <path class="cls-1" d="m86.42,62.08c-.13-.23-.39-.33-.82-.33s-.7.2-.7.51c0,.28.29.43.98.54,1.14.17,1.65.55,1.65,1.25,0,.85-.64,1.34-1.77,1.34-.57,0-1.02-.14-1.33-.4-.12-.1-.21-.23-.28-.37-.09-.18-.13-.3-.16-.61h.88c.04.16.06.22.11.3.15.24.45.37.87.37.5,0,.8-.19.8-.51s-.3-.49-1.03-.6c-1.11-.17-1.57-.54-1.57-1.24,0-.8.62-1.28,1.64-1.28.53,0,1,.15,1.28.4.1.1.19.21.26.34.08.16.12.28.14.56h-.87c-.02-.14-.04-.2-.08-.27"/>
  <polygon class="cls-1" points="89.93 65.27 89.93 61.16 93.05 61.16 93.05 61.87 90.83 61.87 90.83 62.76 92.85 62.76 92.85 63.46 90.83 63.46 90.83 64.53 93.15 64.53 93.15 65.27 89.93 65.27"/>
  <path class="cls-1" d="m97.46,65.54l.44-.43-.5-.47c.22-.24.3-.36.39-.57.11-.24.15-.54.15-.85,0-1.33-.83-2.18-2.13-2.18s-2.13.85-2.13,2.17.83,2.16,2.1,2.16c.36,0,.75-.09.96-.21.04-.03.1-.06.18-.13l.54.51Zm-1.12-1.87l-.45.43.5.47c-.26.09-.37.12-.55.12-.74,0-1.24-.59-1.24-1.48s.47-1.42,1.21-1.42,1.22.54,1.22,1.47c0,.49-.02.59-.17.91l-.51-.48Z"/>
  <path class="cls-1" d="m99.48,61.16v2.57c0,.24.02.38.08.51.12.26.4.4.76.4.26,0,.47-.07.62-.2.18-.16.24-.34.24-.71v-2.57h.9v2.66c0,1-.62,1.56-1.74,1.56s-1.75-.56-1.75-1.56v-2.66h.9Z"/>
  <rect class="cls-1" x="102.92" y="61.16" width=".9" height="4.11"/>
  <path class="cls-1" d="m105.59,63.81h.97c.89,0,1.47-.52,1.47-1.32s-.56-1.32-1.46-1.32h-1.87v4.11h.9v-1.46Zm0-.74v-1.19h.87c.43,0,.66.21.66.6s-.22.59-.7.59h-.83Z"/>
  <polygon class="cls-1" points="108.64 65.27 108.64 61.16 110.12 61.16 110.95 64.41 110.97 64.64 111.01 64.64 111.03 64.41 111.77 61.16 113.26 61.16 113.26 65.27 112.42 65.27 112.42 62.07 112.42 61.81 112.41 61.81 112.35 62.07 111.53 65.27 110.37 65.27 109.55 62.12 109.49 61.81 109.47 61.81 109.47 62.11 109.47 65.27 108.64 65.27"/>
  <polygon class="cls-1" points="114.14 65.27 114.14 61.16 117.26 61.16 117.26 61.87 115.04 61.87 115.04 62.76 117.06 62.76 117.06 63.46 115.04 63.46 115.04 64.53 117.37 64.53 117.37 65.27 114.14 65.27"/>
  <polygon class="cls-1" points="119.21 61.16 120.94 64.57 120.98 64.57 120.96 64.35 120.96 61.16 121.69 61.16 121.69 65.27 120.56 65.27 118.83 61.93 118.81 61.93 118.82 62.13 118.82 65.27 118.09 65.27 118.09 61.16 119.21 61.16"/>
  <polygon class="cls-1" points="123.49 61.89 122.2 61.89 122.2 61.16 125.67 61.16 125.67 61.89 124.39 61.89 124.39 65.27 123.49 65.27 123.49 61.89"/>
</svg>