<?xml version="1.0" encoding="UTF-8"?>
<svg id="Layer_1" data-name="Layer 1" xmlns="http://www.w3.org/2000/svg" viewBox="0 0 200 100">
  <defs>
    <style>
      .cls-1 {
        fill: #fff;
        stroke-width: 0px;
      }
    </style>
  </defs>
  <path class="cls-1" d="m92.16,74.75c-.48,0-.88.3-1.03.71l-2.1,5.31-.19.6-.17-.61-1.62-5.16s-.02-.04-.02-.05h0c-.15-.45-.56-.75-1.04-.75h-2.62c-.59.03-1.06.51-1.06,1.11,0,.16.08.37.13.57l.34,1.08-1.28,3.23-.2.6-.17-.6-1.61-5.17s-.02-.04-.02-.05h0c-.15-.45-.57-.75-1.04-.75h-2.62c-.58.03-1.06.51-1.06,1.11,0,.16.06.37.13.57l3.92,11.68c.12.48.56.83,1.06.83s.91-.32,1.05-.77l2.75-6.93.2-.62.16.61,2.31,6.88c.12.48.55.83,1.07.83s.92-.33,1.06-.8l4.64-11.84c.07-.15.11-.31.11-.48,0-.62-.5-1.11-1.11-1.11"/>
  <path class="cls-1" d="m111.68,74.75c-.48,0-.88.3-1.04.71l-2.08,5.31-.2.6-.15-.61-1.63-5.16s0-.04,0-.05h0c-.16-.45-.57-.75-1.05-.75h-2.62c-.59.03-1.05.51-1.05,1.11,0,.16.06.37.12.57l.34,1.08-1.29,3.23-.21.6-.16-.6-1.61-5.17s-.02-.04-.03-.05h0c-.14-.45-.56-.75-1.03-.75h-2.62c-.59.03-1.06.51-1.06,1.11,0,.16.07.37.13.57l3.93,11.68c.12.48.55.83,1.06.83.49,0,.9-.32,1.05-.77l2.74-6.93.19-.62.17.61,2.3,6.88c.13.48.56.83,1.07.83s.93-.33,1.06-.8l4.65-11.84c.07-.15.11-.31.11-.48,0-.62-.5-1.11-1.11-1.11"/>
  <path class="cls-1" d="m124.37,74.77h-9.16c-.53,0-.95.43-.95.96h0v12.16s0,0,0,0h0c.02.55.48,1,1.02,1h2.59c.56-.02,1-.46,1.01-1.03v-5.68s3.71,0,3.73,0c.55,0,.99-.45.99-1.01s-.45-1-1.01-1h-3.7v-3.25s5.52,0,5.52,0c.57-.03,1.02-.49,1.02-1.07s-.49-1.07-1.08-1.07"/>
  <path class="cls-1" d="m110.17,36.02c1.67,1.87,1.85,7.42,6.03,5.21,2.52-1.33,2.48-6.93-.87-8.95-2.72-1.61-4.2.56-5.19,3.22-.08.21-.08.42.03.52"/>
  <path class="cls-1" d="m103.66,35.13c-1.75,1.45-2.95,5.43-6.17,4.08-2.6-1.32-2.85-6.48,1.63-8.86,3.12-1.44,4.71,1.41,4.73,4.43,0,.11-.1.26-.19.35"/>
  <path class="cls-1" d="m107.98,45.28c1.73-.18,1.34-1.78.03-2.18-1.17-.35-2.94-.58-4.2-.55-2.22.05-2.17,1.75-1.01,2.04.87.29,1.44.41,2.19,1.38.69,1.34.38-.4,2.99-.68"/>
  <path class="cls-1" d="m116.14,16.59c2.17-3.62,5.95-2.91,7.84-1.11,2.08,1.96,2.42,4.22,1.62,5.81-1.09,2.13-3.87,4.73-5.68,2.22-.8-1.11-2.5-2.43-3.42-2.81-1.42-.6-1.69-1.88-.36-4.1"/>
  <path class="cls-1" d="m108.13,49.05c-.95,2.5-5.86,1.64-6.01-.78,0-.1.13-.07.19-.06,2.19.51,4.27.75,5.68.75.05,0,.17-.03.15.09m16.65-16.52c-.2-.64-.51-.6-.5-.08.18,6.59-3.76,13.65-12.18,13.7-2.15,0-1.51,3.45-5.43,1.72-2.83-1.91-4.46,1.85-6.47-2.2-.44-1.17-1.1-1.63-1.96-1.85-8.31-2.06-10.97-13.5-3.64-22.74,1.45.86,1.98,1,3.53-.42.81-.74,2.16-1.57,2.9-1.84,1.76-.67,2.72-1.42,1.19-4.79-1.95-4.36-5.96-3.13-7.79-1.62-2.07,1.71-3.52,4.45-.86,7.69-7.45,5.02-8.72,11.2-8.55,16.56.18,5.71-1.28,5.22.54,11.03.16.51-.2.5-.47.33-7.76-4.97-11.96-20.13.14-28.49.27-.24.16-.56-.83.02-10.47,5.54-11.44,16.27-9.7,23.49.85,3.5-.44,4.15.92,8.74,3.12,9.58,5.77,10.34,9.53,10.62,6.83,0,2.2-3.77,2.45-8.5,0-.28.34-.41.53.16,3.76,8.44,6.42,16.11,16.3,15.39,5.72-.74,2.55-3.59,2.2-5.2-4.21-13.96,6-17.26,3.11-3.64-1.91,7.8,4.13,7.02,8.37,4.22,4.38-2.88,9.86-21.86,6.69-32.31"/>
  <path class="cls-1" d="m84.37,63.78c-1.21,0-2.2.99-2.2,2.19s.99,2.2,2.2,2.2,2.18-.99,2.18-2.2-.97-2.19-2.18-2.19m1.83,2.19c0,1.01-.83,1.83-1.83,1.83s-1.83-.82-1.83-1.83.82-1.82,1.83-1.82,1.83.82,1.83,1.82"/>
  <path class="cls-1" d="m84.99,66.31c-.04.27-.27.45-.57.45-.42,0-.69-.37-.69-.8s.24-.78.69-.78c.3,0,.51.17.57.43h.31c-.05-.48-.43-.76-.89-.76-.65,0-1.03.48-1.03,1.1s.41,1.11,1.04,1.11c.44,0,.8-.29.89-.76h-.32Z"/>
  <path class="cls-1" d="m122.9,69.01c-1.22,0-2.19.98-2.19,2.19s.97,2.19,2.19,2.19,2.19-.97,2.19-2.19-.98-2.19-2.19-2.19m1.83,2.19c0,1.01-.83,1.83-1.83,1.83s-1.84-.82-1.84-1.83.82-1.82,1.84-1.82,1.83.81,1.83,1.82"/>
  <path class="cls-1" d="m122.52,71.08v-.64h.43c.22,0,.45.06.45.31,0,.32-.23.33-.51.33h-.37Zm0,.27h.36l.55.89h.34l-.59-.91c.31-.04.54-.2.54-.56,0-.41-.24-.59-.73-.59h-.8v2.07h.32v-.89Z"/>
</svg>