<?xml version="1.0" encoding="UTF-8"?>
<svg id="Layer_1" data-name="Layer 1" xmlns="http://www.w3.org/2000/svg" viewBox="0 0 200 100">
  <defs>
    <style>
      .cls-1 {
        fill: #2a317d;
      }

      .cls-1, .cls-2 {
        fill-rule: evenodd;
      }

      .cls-1, .cls-2, .cls-3, .cls-4, .cls-5 {
        stroke-width: 0px;
      }

      .cls-2 {
        fill: #ef8122;
      }

      .cls-3 {
        fill: #2b3381;
      }

      .cls-4 {
        fill: #2a2321;
      }

      .cls-5 {
        fill: #fff;
      }
    </style>
  </defs>
  <g id="katman_2" data-name="katman 2">
    <g id="Layer_1-2" data-name="Layer 1">
      <path id="Path_14" data-name="Path 14" class="cls-3" d="m112.44,49.78c.02-10.16,8.26-18.38,18.42-18.37,10.16.01,18.39,8.26,18.38,18.42,0,10.16-8.25,18.39-18.41,18.39-10.17,0-18.41-8.26-18.39-18.43h0"/>
      <path id="Path_6" data-name="Path 6" class="cls-5" d="m119.86,52.93v1.09c0,4.11,2.18,4.55,5.59,4.78,1.19.08,2.43.08,3.61.08,2.33,0,4.61,0,6.93-.19,4.11-.29,6.03-1.15,6.03-5.59,0-4.67-2.43-5.51-6.56-5.51h-3.57l-3.63-.11c-1.21,0-3.06.14-3.06-1.64,0-1.09,1.01-1.3,1.95-1.36,1.38-.06,2.73-.15,4.11-.15h2.61c1.2,0,2.01.34,2.08,1.72h5.3c.1-1.19-.1-2.38-.57-3.47-1.26-2.16-3.74-2.16-5.93-2.2l-3.83-.05c-2.66-.08-5.32.11-7.95.54-2.85.78-3.29,2.59-3.29,5.27,0,3.4,1.05,4.99,4.53,5.24,2.96.19,5.93.19,8.89.19h.86c1.19,0,2.51.14,2.51,1.64s-1.2,1.5-2.39,1.56c-1.19.06-2.43.1-3.63.1h-2.55c-1.22,0-2.77,0-2.77-1.67,0-.1,0-.2,0-.31l-5.26.03Z"/>
      <path id="Path_7" data-name="Path 7" class="cls-3" d="m148.2,49.64c.02-10.16,8.26-18.38,18.42-18.37,10.16.01,18.39,8.26,18.38,18.42,0,10.16-8.25,18.39-18.41,18.39-10.17,0-18.41-8.26-18.39-18.43h0"/>
      <path id="Path_8" data-name="Path 8" class="cls-5" d="m170.33,51.65h-7.42l3.71-7.29,3.71,7.29Zm1.91,3.83l1.64,3.35h5.82l-9.44-18.39h-7.11l-9.63,18.43h5.87l1.72-3.35,11.13-.04Z"/>
      <path id="Path_9" data-name="Path 9" class="cls-4" d="m54.51,41.12l9.8,17.39h-6.04l-1.62-3.1h-11.21l-1.65,3.1h-5.86l9.66-17.39h6.92Zm-7.12,10.62h7.31l-3.59-6.78-3.72,6.78Z"/>
      <path id="Path_10" data-name="Path 10" class="cls-4" d="m82.86,47.13c-.15-1.43-.29-1.85-2.54-1.95h-7.46c-.7.03-1.43.07-1.99.54-.7.54-.74,1.45-.81,3.1v2.3c.02.11.03.23.02.34,0,.25,0,1.58.79,2.34.64.59,1.6.64,2.61.72h6.57c1.06-.03,2-.05,2.57-.86.32-.52.35-1.06.35-1.64h-7.32v-3.4l12.73.03c0,1.17.02,2.32-.03,3.51,0,.64-.03,1.28-.1,1.92-.17,1.77-.76,3.27-2.51,4.02-1.45.61-3.25.61-4.8.61h-8.85c-1.95,0-3.89-.02-5.59-1.28-.37-.29-.7-.62-.98-.98-1.21-1.77-1.01-4.41-1.04-6.36-.02-.52-.02-1.03-.02-1.58,0-.74.03-1.48.12-2.22.27-2.14,1.04-3.84,3.15-4.73,1.23-.52,2.49-.57,5.14-.61.7,0,1.38-.03,2.07-.03h4.26c1.38-.04,2.76,0,4.14.12,2.27.22,3.2.84,3.89,1.67,1.11,1.36,1.11,2.78,1.06,4.41h-5.44Z"/>
      <path id="Path_11" data-name="Path 11" class="cls-4" d="m110.08,41.12v3.84h-14.14v2.9h13.37v3.64h-13.37v3.06h14.14v3.94h-19.43v-17.39h19.43Z"/>
      <path id="Path_12" data-name="Path 12" class="cls-2" d="m36.68,27.62c1.27.75,1.15,2.48.42,3.56-1.84,2.76-4.12,5.2-6.09,7.86-1.01,1.37-3.82,5.43-5.2,8.43-.96-3.16-1.68-7.45-.7-11.83,2.5-2.36,5.14-5.01,7.71-7.25.99-.87,2.58-1.53,3.85-.78Z"/>
      <path id="Path_13" data-name="Path 13" class="cls-1" d="m24.29,48.94c.55,1.59,1.22,3.13,1.99,4.62,1.45,2.85,3.81,6.05,4.74,7.31,1.97,2.69,4.25,5.18,6.09,7.97.72,1.09.84,2.83-.42,3.56-1.27.72-2.86.06-3.86-.84-1.67-1.49-3.35-3-5.01-4.53-2.86-2.64-5.66-5.38-8.25-8.25-2.16-2.39-4.61-5.61-4.55-8.96-.07-3.35,2.39-6.52,4.55-8.88,1.02-1.12,2.08-2.21,3.17-3.28-.3,3.56.23,7.4,1.58,11.29h0Z"/>
    </g>
  </g>
</svg>