<?xml version="1.0" encoding="UTF-8"?>
<svg id="Layer_1" data-name="Layer 1" xmlns="http://www.w3.org/2000/svg" viewBox="0 0 200 100">
  <defs>
    <style>
      .cls-1 {
        fill: #d22228;
        stroke-width: 0px;
      }
    </style>
  </defs>
  <polygon class="cls-1" points="10 45.83 34.34 45.83 33.01 47.64 10 47.64 10 45.83"/>
  <polygon class="cls-1" points="10 42.48 36.82 42.48 35.48 44.28 10 44.28 10 42.48"/>
  <polygon class="cls-1" points="10 49.19 31.87 49.19 30.55 50.99 10 50.99 10 49.19"/>
  <polygon class="cls-1" points="190 47.64 165.75 47.64 167.08 45.83 190 45.83 190 47.64"/>
  <polygon class="cls-1" points="190 50.99 163.29 50.99 164.61 49.19 190 49.19 190 50.99"/>
  <polygon class="cls-1" points="169.55 42.48 190 42.48 190 44.29 168.22 44.29 169.55 42.48"/>
  <path class="cls-1" d="m33.58,50.99l11.55-15.68h14.33c1.58,0,1.56.6.79,1.65-.79,1.06-2.12,2.89-2.93,3.98-.41.55-1.14,1.55,1.29,1.55h19.2c-1.6,2.19-6.78,8.51-16.08,8.51h-28.17Z"/>
  <path class="cls-1" d="m99.73,42.48l-6.26,8.51h-16.52s6.26-8.51,6.27-8.51h16.52Z"/>
  <path class="cls-1" d="m123.62,42.48l-6.27,8.51h-16.52s6.26-8.51,6.27-8.51h16.52Z"/>
  <path class="cls-1" d="m129,42.48s-1.21,1.65-1.79,2.44c-2.07,2.8-.24,6.07,6.53,6.07h26.53l6.27-8.51h-37.53Z"/>
  <path class="cls-1" d="m41.65,25.55l-5.75,7.81h31.34c1.58,0,1.56.6.79,1.65-.79,1.06-2.1,2.91-2.9,4-.41.55-1.14,1.55,1.29,1.55h12.82s2.07-2.81,3.8-5.16c2.36-3.19.2-9.84-8.22-9.84h-33.17Z"/>
  <polygon class="cls-1" points="125.04 40.55 84.63 40.55 95.68 25.55 112.2 25.55 105.86 34.15 113.24 34.15 119.57 25.55 136.09 25.55 125.04 40.55"/>
  <path class="cls-1" d="m158.97,25.55l-11.05,15h-17.5s11.05-15,11.06-15h17.49Z"/>
  <g>
    <path class="cls-1" d="m50.53,71.21c-.91,0-1.75-.13-2.51-.4-.76-.26-1.45-.62-2.07-1.08l1.29-1.98c1.01.73,2.11,1.09,3.31,1.09.63,0,1.14-.1,1.54-.31.4-.21.6-.54.6-1,0-.65-.49-1.1-1.46-1.35l-1.55-.41c-1.05-.28-1.84-.72-2.37-1.3-.54-.58-.8-1.35-.8-2.28,0-1.17.42-2.08,1.27-2.74.84-.66,2-.99,3.46-.99.8,0,1.55.11,2.24.33.7.22,1.35.55,1.97.98l-1.26,2c-.87-.63-1.84-.94-2.9-.94-.53,0-.99.09-1.39.28-.39.18-.59.51-.59.98,0,.33.12.59.36.79.24.19.6.35,1.08.49l1.55.41c1.02.27,1.81.71,2.37,1.3.56.6.84,1.37.84,2.32,0,1.22-.44,2.16-1.32,2.83-.88.67-2.1,1-3.67,1Z"/>
    <path class="cls-1" d="m60.29,71.12c-.92,0-1.63-.33-2.12-.98-.49-.65-.74-1.58-.74-2.77v-5.86h2.68v5.69c0,.51.11.91.32,1.2.22.3.56.44,1.03.44.34,0,.65-.08.91-.25.26-.17.47-.38.63-.64v-6.45h2.68v9.42h-2.53v-1.64c-.28.54-.66.98-1.14,1.32-.47.34-1.04.51-1.71.51Z"/>
    <path class="cls-1" d="m68.1,74.45v-12.93h2.53v1.63c.26-.57.63-1.01,1.12-1.33.49-.32,1.04-.48,1.67-.48,1.06,0,1.89.4,2.48,1.21.6.81.9,1.91.9,3.32v.74c0,1.4-.3,2.51-.9,3.32-.6.81-1.43,1.21-2.48,1.21-1.22,0-2.1-.57-2.64-1.7v5.02h-2.68Zm4.3-10.86c-.68,0-1.22.29-1.63.87v3.57c.41.57.95.85,1.63.85.55,0,.98-.2,1.27-.6.3-.4.44-.98.44-1.73v-.63c0-.75-.15-1.33-.44-1.73-.3-.4-.72-.6-1.27-.6Z"/>
    <path class="cls-1" d="m78.84,74.45v-12.93h2.53v1.63c.26-.57.63-1.01,1.12-1.33.49-.32,1.04-.48,1.67-.48,1.06,0,1.89.4,2.48,1.21.6.81.9,1.91.9,3.32v.74c0,1.4-.3,2.51-.9,3.32-.6.81-1.43,1.21-2.48,1.21-1.22,0-2.1-.57-2.64-1.7v5.02h-2.68Zm4.3-10.86c-.68,0-1.22.29-1.63.87v3.57c.41.57.95.85,1.63.85.55,0,.98-.2,1.27-.6.3-.4.44-.98.44-1.73v-.63c0-.75-.15-1.33-.44-1.73-.3-.4-.72-.6-1.27-.6Z"/>
    <path class="cls-1" d="m92.38,71.12c-1.11,0-1.86-.25-2.26-.75-.4-.5-.6-1.22-.6-2.17v-10.2h2.68v10.07c0,.32.07.55.21.67.14.13.35.19.62.19.11,0,.23-.01.35-.04v2.16c-.3.04-.63.06-1,.06Z"/>
    <path class="cls-1" d="m96.44,74.45l1.13-3.51h-.92l-2.85-9.42h2.92l1.72,7.15h.31l1.85-7.15h2.83l-4.19,12.93h-2.79Z"/>
    <path class="cls-1" d="m113.7,71.21c-1.12,0-2.09-.24-2.92-.71-.83-.47-1.46-1.15-1.91-2.02-.45-.87-.67-1.91-.67-3.1v-1.07c0-1.19.22-2.23.67-3.1.45-.87,1.09-1.55,1.91-2.02.82-.47,1.8-.71,2.92-.71,1.71,0,3.13.62,4.25,1.87l-1.63,1.76c-.74-.81-1.57-1.22-2.49-1.22s-1.59.3-2.08.91c-.49.61-.73,1.49-.73,2.63v.85c0,1.13.24,2.01.72,2.62.48.62,1.17.92,2.07.92.47,0,.92-.09,1.36-.28.44-.18.86-.49,1.27-.92l1.63,1.76c-.53.62-1.17,1.08-1.91,1.39-.75.31-1.56.46-2.45.46Z"/>
    <path class="cls-1" d="m119.74,70.94v-12.93h2.68v5.01c.3-.52.67-.93,1.13-1.23.46-.3,1-.45,1.64-.45.94,0,1.65.32,2.15.97.5.65.75,1.57.75,2.78v5.86h-2.68v-5.69c0-.5-.11-.91-.33-1.21-.22-.3-.57-.45-1.05-.45-.37,0-.69.09-.95.26-.26.17-.48.39-.66.65v6.45h-2.68Z"/>
    <path class="cls-1" d="m132.38,71.12c-.83,0-1.49-.26-2-.77-.51-.51-.77-1.18-.77-2,0-.92.35-1.66,1.05-2.2.7-.54,1.65-.81,2.85-.81h1.48v-.13c0-1.18-.57-1.77-1.72-1.77-.74,0-1.42.25-2.03.76l-1.24-1.66c.91-.83,2.08-1.24,3.51-1.24,2.67,0,4.01,1.3,4.01,3.9v2.94c0,.54.23.81.68.81h.11s.12,0,.2-.02v2.12c-.16.02-.33.04-.51.06-.18.01-.35.02-.53.02-.68,0-1.2-.13-1.56-.38-.36-.25-.6-.65-.71-1.19-.68,1.05-1.62,1.57-2.83,1.57Zm1.07-1.98c.6,0,1.11-.26,1.53-.79v-1.35h-1.11c-1.07,0-1.61.38-1.61,1.13,0,.31.1.55.31.74.21.18.5.28.87.28Z"/>
    <path class="cls-1" d="m141.37,60.52c-.44,0-.82-.13-1.13-.39-.31-.26-.46-.61-.46-1.05s.15-.79.46-1.05c.31-.26.68-.39,1.13-.39s.82.13,1.13.39c.31.26.46.61.46,1.05s-.15.79-.46,1.05c-.31.26-.68.39-1.13.39Zm-1.35,10.42v-9.42h2.68v9.42h-2.68Z"/>
    <path class="cls-1" d="m145.14,70.94v-9.42h2.53v1.64c.28-.54.66-.98,1.12-1.32.46-.34,1.04-.51,1.73-.51.94,0,1.67.32,2.19.95.52.63.79,1.52.79,2.65v6h-2.68v-5.69c0-.5-.11-.91-.33-1.21-.22-.3-.57-.45-1.05-.45-.37,0-.69.09-.95.26-.26.17-.48.39-.66.65v6.45h-2.68Z"/>
  </g>
</svg>