<?xml version="1.0" encoding="UTF-8"?>
<svg id="Layer_1" data-name="Layer 1" xmlns="http://www.w3.org/2000/svg" viewBox="0 0 200 100">
  <defs>
    <style>
      .cls-1 {
        fill: #4d008c;
      }

      .cls-1, .cls-2 {
        stroke-width: 0px;
      }

      .cls-2 {
        fill: #d60d8c;
      }
    </style>
  </defs>
  <g>
    <path class="cls-2" d="m93.4,21.77c1.1,7.36-3.98,14.22-11.34,15.32-7.36,1.1-14.22-3.98-15.32-11.34-1.1-7.36,3.98-14.22,11.34-15.32,7.36-1.1,14.22,3.98,15.32,11.34Z"/>
    <path class="cls-2" d="m91.41,37.93c-15.81,9.12-32.63-.43-33.35,11.5-.56,9.23,24.86,10.73,39.29-.96,14.42-11.69,17.12-34.08,8.78-35.55-11.15-1.97-1.96,17.66-14.72,25.02Z"/>
    <path class="cls-2" d="m141.78,45.24c-.95-5.31-6.02-8.84-11.32-7.9-5.31.95-8.84,6.02-7.9,11.32.95,5.31,6.01,8.84,11.32,7.9,5.31-.95,8.84-6.02,7.9-11.32Z"/>
    <path class="cls-2" d="m129.64,25.69c-2.85-5.1-17.66,1.15-20.64,15.5-3.36,16.24,8.1,26.81,12.2,22.3,4.41-4.85-5.15-10.48-3.05-20.6,2.02-9.77,15.15-10.66,11.49-17.2Z"/>
  </g>
  <g>
    <g>
      <path class="cls-1" d="m66.33,77.38c-.91,0-1.64-.3-2.19-.89-.55-.59-.83-1.44-.83-2.54s.28-1.95.83-2.54c.55-.6,1.28-.89,2.19-.89s1.64.3,2.19.89c.55.6.83,1.44.83,2.54s-.28,1.95-.83,2.54c-.55.59-1.28.89-2.19.89Zm-1.9-3.43c0,1.59.63,2.39,1.9,2.39s1.9-.8,1.9-2.39-.63-2.39-1.9-2.39-1.9.8-1.9,2.39Z"/>
      <path class="cls-1" d="m69.93,73.95c0-.66.1-1.23.31-1.72s.51-.88.89-1.16c.39-.28.85-.46,1.4-.53.55-.07,1.16-.02,1.84.17.24.06.36.22.36.48v.21c0,.15-.04.25-.13.32-.09.06-.21.08-.36.04-.46-.11-.87-.17-1.22-.16-.35,0-.65.06-.89.16-.24.1-.44.25-.59.46-.15.21-.26.46-.33.74-.07.28-.1.62-.1,1.01s.03.72.1,1.01c.07.28.18.53.33.74.15.21.35.36.59.46.24.1.54.15.89.16.35,0,.76-.04,1.22-.15.15-.04.27-.02.36.04.09.06.13.17.13.31v.21c0,.26-.13.42-.4.49-.9.22-1.68.24-2.34.06-.65-.18-1.16-.56-1.53-1.14-.36-.58-.54-1.3-.54-2.17Z"/>
      <path class="cls-1" d="m80.89,70.61c.28,0,.42.14.42.42v3.6c0,.94-.22,1.63-.67,2.08s-1.18.67-2.19.67-1.75-.22-2.19-.67c-.44-.45-.66-1.14-.66-2.08v-3.6c0-.28.14-.42.42-.42h.27c.28,0,.42.14.42.42v3.68c0,.56.14.97.42,1.23.28.26.72.39,1.33.39s1.06-.13,1.34-.39c.28-.26.41-.67.41-1.23v-3.68c0-.28.14-.42.42-.42h.27Z"/>
      <path class="cls-1" d="m87.47,76.83c.11.12.12.23.04.32-.08.09-.23.14-.44.14h-.18c-.32,0-.54-.07-.66-.21l-2.56-2.82v2.61c0,.28-.14.42-.42.42h-.27c-.28,0-.42-.14-.42-.42v-5.84c0-.28.14-.42.42-.42h.27c.28,0,.42.14.42.42v2.57l2.56-2.8c.12-.13.34-.2.66-.2h.17c.21,0,.36.05.44.14.08.09.07.2-.04.32l-2.67,2.86,2.69,2.91Z"/>
      <path class="cls-1" d="m95.38,70.96c.07-.23.22-.35.47-.35h.28c.15,0,.26.04.32.13.06.09.07.2.03.35l-1.47,4.75c-.18.57-.39.97-.64,1.2-.25.23-.6.35-1.05.35s-.8-.12-1.05-.35c-.25-.23-.47-.63-.64-1.2l-1.46-4.75c-.04-.15-.03-.26.03-.35s.17-.13.32-.13h.28c.25,0,.41.12.48.35l1.45,4.74c.08.26.16.45.25.54.09.1.21.15.36.15s.27-.05.36-.15c.09-.1.17-.28.25-.54l1.45-4.74Z"/>
      <path class="cls-1" d="m98.79,77.29c-.56,0-.95-.11-1.19-.34-.24-.23-.36-.6-.36-1.12v-3.76c0-.52.12-.89.36-1.12.24-.23.64-.34,1.19-.34h2.65c.28,0,.42.14.42.42v.2c0,.28-.14.42-.42.42h-2.52c-.23,0-.38.04-.46.12-.08.08-.12.21-.12.37v1.25h2.58c.28,0,.42.14.42.42v.2c0,.28-.14.42-.42.42h-2.58v1.31c0,.17.04.29.12.37.08.08.23.12.46.12h2.72c.28,0,.42.14.42.42v.2c0,.28-.14.42-.42.42h-2.84Z"/>
      <path class="cls-1" d="m108.94,74.15c0-.28.14-.42.42-.42h.27c.28,0,.42.14.42.42v1.77c0,.35-.06.63-.18.84-.12.2-.34.36-.66.46-.32.1-.76.16-1.33.16-1.06,0-1.87-.3-2.41-.91-.55-.61-.82-1.45-.82-2.52,0-.88.19-1.61.56-2.18.37-.57.91-.95,1.6-1.13.7-.18,1.55-.16,2.55.08.25.06.37.22.37.47v.17c0,.15-.04.25-.13.32-.09.07-.2.08-.35.05-.51-.1-.96-.16-1.34-.16-.38,0-.71.05-.99.15s-.5.25-.67.46c-.17.2-.3.45-.38.74-.08.29-.12.64-.12,1.03,0,.78.16,1.38.49,1.78.33.4.85.61,1.56.61.47,0,.78-.04.92-.11.14-.07.21-.23.21-.47v-1.6Z"/>
      <path class="cls-1" d="m112.64,77.29c-.56,0-.95-.11-1.19-.34-.24-.23-.36-.6-.36-1.12v-3.76c0-.52.12-.89.36-1.12.24-.23.64-.34,1.19-.34h2.65c.28,0,.42.14.42.42v.2c0,.28-.14.42-.42.42h-2.52c-.23,0-.38.04-.46.12-.08.08-.12.21-.12.37v1.25h2.58c.28,0,.42.14.42.42v.2c0,.28-.14.42-.42.42h-2.58v1.31c0,.17.04.29.12.37.08.08.23.12.46.12h2.72c.28,0,.42.14.42.42v.2c0,.28-.14.42-.42.42h-2.84Z"/>
      <path class="cls-1" d="m117.22,77.29c-.28,0-.42-.14-.42-.42v-4.95c0-.52.09-.86.26-1.04.17-.18.47-.27.9-.27.16,0,.3.01.41.04.11.02.23.07.35.15.12.08.23.2.33.35.1.16.21.36.32.62l1.79,4.24c.03.07.06.12.08.15s.06.04.09.04c.09,0,.13-.07.13-.21v-4.96c0-.28.14-.42.42-.42h.26c.28,0,.42.14.42.42v4.95c0,.52-.09.86-.26,1.04-.17.18-.47.27-.9.27-.16,0-.3-.01-.41-.04-.11-.02-.23-.07-.34-.15-.12-.08-.23-.2-.33-.36-.1-.16-.21-.36-.32-.61l-1.79-4.24c-.03-.07-.06-.12-.08-.15-.02-.03-.05-.04-.09-.04-.09,0-.13.07-.13.21v4.96c0,.28-.14.42-.42.42h-.26Z"/>
      <path class="cls-1" d="m130.69,77.29c-.56,0-.95-.11-1.19-.34-.24-.23-.36-.6-.36-1.12v-4.8c0-.28.14-.42.42-.42h.27c.28,0,.42.14.42.42v4.71c0,.16.04.28.12.37.08.09.23.13.45.13h2.32c.28,0,.42.14.42.42v.21c0,.28-.14.42-.42.42h-2.45Z"/>
      <path class="cls-1" d="m135,71.85c-.21,0-.37-.06-.48-.17-.11-.12-.17-.28-.17-.49s.06-.38.17-.5.27-.18.48-.18.37.06.47.18c.11.12.16.29.16.5s-.05.38-.16.49c-.11.11-.27.17-.47.17Zm-.13,5.44c-.28,0-.42-.14-.42-.42v-3.84c0-.28.14-.42.42-.42h.27c.28,0,.42.14.42.42v3.84c0,.28-.14.42-.42.42h-.27Z"/>
      <path class="cls-1" d="m141.91,76.83c.11.12.12.23.04.32-.08.09-.23.14-.44.14h-.18c-.32,0-.54-.07-.66-.21l-2.56-2.82v2.61c0,.28-.14.42-.42.42h-.27c-.28,0-.42-.14-.42-.42v-5.84c0-.28.14-.42.42-.42h.27c.28,0,.42.14.42.42v2.57l2.56-2.8c.12-.13.34-.2.66-.2h.17c.21,0,.36.05.44.14.08.09.07.2-.04.32l-2.67,2.86,2.69,2.91Z"/>
      <g>
        <path class="cls-1" d="m123.46,73.95c0-.66.1-1.23.31-1.72s.51-.88.89-1.16c.39-.28.85-.46,1.4-.53.55-.07,1.16-.02,1.84.17.24.06.36.22.36.48v.21c0,.15-.04.25-.13.32-.09.06-.21.08-.36.04-.46-.11-.87-.17-1.22-.16-.35,0-.65.06-.89.16-.24.1-.44.25-.59.46-.15.21-.26.46-.33.74-.07.28-.1.62-.1,1.01s.03.72.1,1.01c.07.28.18.53.33.74.15.21.35.36.59.46.24.1.54.15.89.16.35,0,.76-.04,1.22-.15.15-.04.27-.02.36.04.09.06.13.17.13.31v.21c0,.26-.13.42-.4.49-.9.22-1.68.24-2.34.06-.65-.18-1.16-.56-1.53-1.14-.36-.58-.54-1.3-.54-2.17Z"/>
        <path class="cls-1" d="m126.11,79.99c-.17,0-.3-.05-.38-.15-.08-.1-.11-.24-.08-.42l.18-1.18c.05-.32.24-.48.57-.48h.24c.19,0,.32.05.4.16.08.11.1.25.05.43l-.31,1.18c-.08.3-.27.45-.59.45h-.08Z"/>
      </g>
      <g>
        <path class="cls-1" d="m58,73.95c0-.66.1-1.23.31-1.72s.51-.88.89-1.16c.39-.28.85-.46,1.4-.53.55-.07,1.16-.02,1.84.17.24.06.36.22.36.48v.21c0,.15-.04.25-.13.32-.09.06-.21.08-.36.04-.46-.11-.87-.17-1.22-.16-.35,0-.65.06-.89.16-.24.1-.44.25-.59.46-.15.21-.26.46-.33.74-.07.28-.1.62-.1,1.01s.03.72.1,1.01c.07.28.18.53.33.74.15.21.35.36.59.46.24.1.54.15.89.16.35,0,.76-.04,1.22-.15.15-.04.27-.02.36.04.09.06.13.17.13.31v.21c0,.26-.13.42-.4.49-.9.22-1.68.24-2.34.06-.65-.18-1.16-.56-1.53-1.14-.36-.58-.54-1.3-.54-2.17Z"/>
        <path class="cls-1" d="m60.64,79.99c-.17,0-.3-.05-.38-.15-.08-.1-.11-.24-.08-.42l.18-1.18c.05-.32.24-.48.57-.48h.24c.19,0,.32.05.4.16.08.11.1.25.05.43l-.31,1.18c-.08.3-.27.45-.59.45h-.08Z"/>
      </g>
    </g>
    <g>
      <path class="cls-1" d="m58.5,89.44c-.3-.08-.45-.27-.45-.59v-.16c0-.18.05-.32.15-.39.1-.08.25-.1.43-.07.49.1.95.16,1.37.19.43.03.82.02,1.19-.03.37-.05.66-.16.87-.34.21-.18.32-.41.32-.71,0-.25-.1-.47-.3-.67-.2-.2-.57-.41-1.1-.62l-.8-.32c-.76-.31-1.3-.65-1.62-1.03-.32-.38-.48-.83-.48-1.35,0-.49.13-.91.39-1.25.26-.34.6-.58,1.04-.73.44-.15.94-.22,1.5-.22.56,0,1.16.08,1.8.24.3.08.46.27.46.58v.19c0,.18-.05.32-.16.4-.1.08-.25.11-.44.07-2.14-.4-3.2-.17-3.2.68,0,.24.1.45.29.65.19.19.53.38,1,.57l.72.29c.81.32,1.39.68,1.75,1.06.36.39.53.88.53,1.47,0,.46-.1.85-.3,1.18-.2.33-.48.58-.82.76-.34.18-.74.3-1.2.37-.45.07-.93.09-1.43.04-.5-.04-1.01-.13-1.53-.26Z"/>
      <path class="cls-1" d="m71.33,89.61c-.31,0-.51-.15-.59-.44l-.58-1.9h-3.99l-.58,1.9c-.08.29-.28.44-.6.44h-.34c-.19,0-.32-.05-.4-.16-.08-.11-.09-.25-.03-.44l1.82-5.93c.22-.71.48-1.21.8-1.5.32-.29.75-.44,1.31-.44s1.01.15,1.34.44c.32.29.58.79.78,1.5l1.83,5.93c.05.18.04.33-.04.44-.08.11-.21.16-.4.16h-.34Zm-4.76-3.62h3.2l-.84-2.74c-.1-.33-.21-.55-.32-.67-.11-.12-.26-.18-.45-.18s-.34.06-.45.18c-.11.12-.21.34-.31.67l-.84,2.74Z"/>
      <path class="cls-1" d="m73.54,89.61c-.35,0-.53-.18-.53-.53v-6.19c0-.64.11-1.08.32-1.3.22-.22.59-.33,1.12-.33.2,0,.37.01.51.04.14.03.28.09.43.19.15.1.29.25.42.44.13.2.26.45.39.77l2.23,5.3c.04.09.07.15.1.18s.07.05.12.05c.11,0,.16-.09.16-.26v-6.19c0-.35.18-.53.53-.53h.33c.35,0,.53.18.53.53v6.19c0,.64-.11,1.08-.33,1.3-.22.22-.59.33-1.12.33-.2,0-.37-.01-.51-.04-.14-.03-.28-.09-.43-.19-.15-.1-.29-.25-.42-.45-.13-.2-.26-.45-.39-.77l-2.24-5.3c-.04-.09-.07-.15-.1-.18s-.07-.05-.11-.05c-.11,0-.16.09-.16.26v6.19c0,.35-.18.53-.53.53h-.33Z"/>
      <path class="cls-1" d="m88.12,89.61c-.31,0-.51-.15-.59-.44l-.58-1.9h-3.99l-.58,1.9c-.08.29-.28.44-.6.44h-.34c-.19,0-.32-.05-.4-.16-.08-.11-.09-.25-.03-.44l1.82-5.93c.22-.71.48-1.21.8-1.5.32-.29.75-.44,1.31-.44s1.01.15,1.34.44c.32.29.58.79.78,1.5l1.83,5.93c.05.18.04.33-.04.44-.08.11-.21.16-.4.16h-.34Zm-4.76-3.62h3.2l-.84-2.74c-.1-.33-.21-.55-.32-.67-.11-.12-.26-.18-.45-.18s-.34.06-.45.18c-.11.12-.21.34-.31.67l-.84,2.74Z"/>
      <path class="cls-1" d="m94.78,81.26c.35,0,.53.18.53.53v.26c0,.35-.18.53-.53.53h-2.28v6.51c0,.35-.18.53-.53.53h-.34c-.35,0-.53-.18-.53-.53v-6.51h-2.28c-.35,0-.53-.18-.53-.53v-.26c0-.35.18-.53.53-.53h5.96Z"/>
      <path class="cls-1" d="m103.66,85.23c.51.17.88.43,1.13.78.25.35.37.8.37,1.36,0,.43-.07.8-.22,1.09-.15.29-.38.52-.69.69-.32.17-.69.29-1.12.35-.43.07-.96.1-1.59.1h-.98c-.7,0-1.2-.14-1.5-.43-.3-.29-.45-.75-.45-1.39v-4.69c0-.64.15-1.11.45-1.39.3-.29.8-.43,1.49-.43h.76c.47,0,.88.02,1.24.06.35.04.67.11.96.2.28.1.52.22.7.39.18.16.32.36.41.6.09.24.14.52.14.85,0,.89-.36,1.52-1.09,1.87Zm-3.69-2.06v1.52h1.54c.68,0,1.16-.08,1.45-.24.28-.16.43-.45.43-.85s-.14-.66-.42-.81c-.28-.15-.77-.23-1.45-.23h-.95c-.23,0-.38.05-.46.15-.08.1-.12.26-.12.46Zm1.94,5.13c.7,0,1.18-.08,1.46-.24.28-.16.41-.45.41-.88s-.14-.75-.42-.92c-.28-.17-.76-.25-1.45-.25h-1.94v1.67c0,.2.04.36.12.46.08.1.23.15.46.15h1.35Z"/>
      <path class="cls-1" d="m107.24,82.82c-.26,0-.46-.07-.6-.22-.14-.14-.21-.35-.21-.61s.07-.47.21-.62c.14-.15.34-.23.6-.23s.46.08.59.23.2.36.2.62-.07.47-.2.61c-.14.14-.33.21-.59.21Zm-.16,6.79c-.35,0-.53-.18-.53-.53v-4.79c0-.35.18-.53.53-.53h.34c.35,0,.53.18.53.53v4.79c0,.35-.18.53-.53.53h-.34Z"/>
      <path class="cls-1" d="m111.69,89.61c-.69,0-1.19-.14-1.49-.43-.3-.29-.45-.75-.45-1.39v-4.69c0-.64.15-1.11.45-1.39.3-.29.8-.43,1.49-.43h3.31c.35,0,.52.18.52.53v.25c0,.35-.17.53-.52.53h-3.15c-.28,0-.47.05-.57.15-.1.1-.14.26-.14.47v1.56h3.22c.35,0,.53.18.53.53v.24c0,.35-.18.53-.53.53h-3.22v1.64c0,.21.05.36.14.47.1.1.29.15.57.15h3.39c.35,0,.53.18.53.53v.25c0,.35-.18.53-.53.53h-3.55Z"/>
      <path class="cls-1" d="m117.4,89.61c-.35,0-.53-.18-.53-.53v-6.19c0-.64.11-1.08.32-1.3.22-.22.59-.33,1.12-.33.2,0,.37.01.51.04.14.03.28.09.43.19.15.1.29.25.42.44.13.2.26.45.39.77l2.23,5.3c.04.09.07.15.1.18s.07.05.12.05c.11,0,.16-.09.16-.26v-6.19c0-.35.18-.53.53-.53h.33c.35,0,.53.18.53.53v6.19c0,.64-.11,1.08-.33,1.3-.22.22-.59.33-1.12.33-.2,0-.37-.01-.51-.04-.14-.03-.28-.09-.43-.19-.15-.1-.29-.25-.42-.45-.13-.2-.26-.45-.39-.77l-2.24-5.3c-.04-.09-.07-.15-.1-.18s-.07-.05-.11-.05c-.11,0-.16.09-.16.26v6.19c0,.35-.18.53-.53.53h-.33Z"/>
      <path class="cls-1" d="m131.98,89.61c-.31,0-.51-.15-.59-.44l-.58-1.9h-3.99l-.58,1.9c-.08.29-.28.44-.6.44h-.34c-.19,0-.32-.05-.4-.16-.08-.11-.09-.25-.03-.44l1.82-5.93c.22-.71.48-1.21.8-1.5.32-.29.75-.44,1.31-.44s1.01.15,1.34.44c.32.29.58.79.78,1.5l1.83,5.93c.05.18.04.33-.04.44-.08.11-.21.16-.4.16h-.34Zm-4.76-3.62h3.2l-.84-2.74c-.1-.33-.21-.55-.32-.67-.11-.12-.26-.18-.45-.18s-.34.06-.45.18c-.11.12-.21.34-.31.67l-.84,2.74Z"/>
      <path class="cls-1" d="m135.61,89.61c-.69,0-1.19-.14-1.49-.43-.3-.29-.45-.75-.45-1.39v-5.99c0-.35.18-.53.53-.53h.33c.35,0,.53.18.53.53v5.89c0,.2.05.35.15.46.1.11.29.16.57.16h2.9c.35,0,.53.18.53.53v.26c0,.35-.18.53-.53.53h-3.06Z"/>
      <path class="cls-1" d="m140.99,82.82c-.26,0-.46-.07-.6-.22-.14-.14-.21-.35-.21-.61s.07-.47.21-.62c.14-.15.34-.23.6-.23s.46.08.59.23.2.36.2.62-.07.47-.2.61c-.14.14-.33.21-.59.21Zm-.16,6.79c-.35,0-.53-.18-.53-.53v-4.79c0-.35.18-.53.53-.53h.34c.35,0,.53.18.53.53v4.79c0,.35-.18.53-.53.53h-.34Z"/>
    </g>
  </g>
  <g>
    <path class="cls-1" d="m58.39,61.59c-.13,0-.22-.04-.29-.11-.07-.07-.1-.17-.1-.3s.03-.22.1-.3c.07-.07.16-.11.29-.11s.22.04.28.11c.06.07.09.17.09.3,0,.27-.13.4-.38.4Zm0,4.96c-.2,0-.3-.1-.3-.3v-3.84c0-.2.1-.3.3-.3h.08c.2,0,.3.1.3.3v3.84c0,.2-.1.3-.3.3h-.08Z"/>
    <path class="cls-1" d="m59.83,66.43c-.17-.05-.25-.16-.25-.34,0-.11.03-.18.09-.23.06-.05.15-.06.25-.03.29.07.57.12.84.14.26.03.51.03.73,0s.4-.08.53-.18c.13-.1.19-.23.19-.4,0-.15-.05-.27-.16-.37-.11-.1-.29-.18-.53-.25l-.88-.24c-.72-.2-1.08-.57-1.08-1.13,0-.27.08-.49.24-.68.16-.18.38-.31.64-.38.27-.07.57-.1.9-.09.33.01.67.07,1.02.16.17.05.25.16.25.34,0,.11-.03.18-.09.23-.06.05-.14.05-.25.03-.24-.06-.48-.1-.72-.12-.24-.02-.46-.02-.66,0-.2.02-.36.07-.49.15-.12.08-.19.2-.19.34,0,.24.17.41.53.51l.94.25c.41.11.71.27.9.46.19.2.29.45.29.75,0,.24-.06.45-.18.63-.12.18-.28.32-.49.41-.2.09-.44.16-.7.19-.26.04-.54.04-.82,0-.29-.03-.57-.09-.86-.18Z"/>
    <path class="cls-1" d="m66,62.66c0,.2-.1.3-.3.3h-1.46v2.13c0,.31.07.54.21.68.14.14.35.21.64.21.12,0,.25-.01.39-.04.14-.03.22-.04.26-.04.1,0,.17.02.21.05.04.04.06.09.06.18v.09c0,.16-.07.26-.21.29-.25.07-.49.11-.71.11-.22,0-.43-.02-.61-.07-.19-.06-.35-.15-.48-.27-.13-.12-.24-.28-.31-.49-.07-.2-.11-.44-.11-.72v-3.46c0-.2.1-.3.3-.3h.08c.2,0,.3.1.3.3v.71h1.46c.2,0,.3.1.3.3v.02Z"/>
    <path class="cls-1" d="m68.12,62.25c.55,0,1,.13,1.33.4.33.27.5.66.5,1.18v1.5c0,.42-.1.73-.29.92-.2.2-.53.3-.99.3h-.83c-.51,0-.89-.09-1.15-.28-.26-.19-.39-.51-.39-.96s.13-.78.39-.97c.26-.19.64-.28,1.15-.28h1.44v-.22c0-.32-.11-.55-.32-.71-.21-.16-.51-.23-.9-.23-.35,0-.74.05-1.16.16-.11.02-.19.01-.25-.03-.06-.04-.09-.11-.09-.21v-.04c0-.19.1-.3.31-.36.46-.11.88-.17,1.26-.17Zm.48,3.69c.27,0,.45-.05.54-.16.09-.11.14-.27.14-.48v-.64h-1.44c-.32,0-.55.05-.68.14-.13.1-.19.26-.19.5s.06.4.19.5c.13.1.35.14.68.14h.76Z"/>
    <path class="cls-1" d="m71.92,62.35c.23-.07.5-.1.83-.1s.6.03.83.1c.23.07.43.18.6.33.17.15.3.36.39.62.09.26.13.58.13.95v1.99c0,.2-.1.3-.3.3h-.07c-.2,0-.3-.1-.3-.3v-1.99c0-.52-.1-.87-.29-1.07-.2-.2-.52-.3-.98-.3s-.78.1-.98.3c-.2.2-.29.56-.29,1.07v1.99c0,.2-.1.3-.3.3h-.06c-.2,0-.3-.1-.3-.3v-1.99c0-.38.04-.69.13-.95.09-.26.22-.47.39-.62.17-.15.37-.26.6-.33Z"/>
    <path class="cls-1" d="m77.12,62.25c.74,0,1.3.17,1.68.51.38.34.57.9.57,1.67s-.19,1.34-.57,1.68c-.38.34-.94.51-1.68.51-.58,0-.99-.1-1.23-.3-.24-.2-.35-.51-.35-.94v-4.3c0-.2.1-.3.3-.3h.06c.2,0,.3.1.3.3v1.23c.34-.04.65-.06.91-.06Zm.04,3.75c.53,0,.91-.12,1.16-.36.25-.24.37-.64.37-1.2s-.12-.97-.36-1.2c-.24-.23-.63-.35-1.16-.35-.27,0-.59.03-.95.08v2.33c0,.12,0,.22.03.29.02.07.06.15.12.21s.16.12.29.15c.13.03.3.05.51.05Z"/>
    <path class="cls-1" d="m83.32,62.64c0-.2.1-.3.3-.3h.07c.2,0,.3.1.3.3v1.99c0,.38-.04.69-.13.96-.09.26-.21.47-.39.62-.17.15-.37.26-.6.33-.23.07-.51.1-.83.1s-.6-.03-.83-.1-.43-.17-.6-.33c-.17-.15-.3-.36-.39-.62-.09-.26-.13-.58-.13-.96v-1.99c0-.2.1-.3.3-.3h.06c.2,0,.3.1.3.3v1.99c0,.52.1.88.29,1.08.2.2.52.3.98.3s.78-.1.98-.3c.2-.2.29-.56.29-1.08v-1.99Z"/>
    <path class="cls-1" d="m84.96,61.09c0-.2.1-.3.3-.3h.08c.2,0,.3.1.3.3v5.16c0,.2-.1.3-.3.3h-.08c-.2,0-.3-.1-.3-.3v-5.16Z"/>
  </g>
</svg>