<?xml version="1.0" encoding="UTF-8"?>
<svg id="Layer_1" data-name="Layer 1" xmlns="http://www.w3.org/2000/svg" viewBox="0 0 200 100">
  <defs>
    <style>
      .cls-1 {
        fill: #2f3234;
      }

      .cls-1, .cls-2 {
        stroke-width: 0px;
      }

      .cls-2 {
        fill: #fdc32b;
      }
    </style>
  </defs>
  <g>
    <rect class="cls-1" x="19.96" y="34" width="32" height="32"/>
    <g>
      <g>
        <polygon class="cls-2" points="35.7 43.83 35.71 43.83 35.71 43.83 35.7 43.83"/>
        <path class="cls-2" d="m46.07,48.49c-.12-.44-.39-.82-.75-1.09-.4-.28-.85-.46-1.33-.54-.57-.11-1.3-.16-2.22-.16s-1.62.09-2.06.25c-.44.16-.8.48-1.08.94h-.12v-4.07h-2.79v10.55h2.64v-.98h.15c.2.35.41.59.64.73.49.3,1.4.45,2.71.45s2.27-.12,2.89-.35c.58-.2,1.04-.66,1.25-1.24.11-.3.18-.61.22-.92l.06-1.44c0-.97-.07-1.68-.2-2.13Zm-2.6,2.08c0,.47-.04.83-.1,1.07-.05.21-.18.39-.35.52-.32.21-.98.31-1.96.31-.85,0-1.47-.07-1.85-.21-.27-.09-.46-.25-.55-.47-.1-.22-.14-.59-.14-1.12,0-.49.04-.86.11-1.08.07-.22.23-.41.44-.52.33-.18.98-.26,1.94-.26h0c.84,0,1.46.08,1.82.23.25.09.41.26.51.47.11.34.15.71.14,1.07Z"/>
      </g>
      <path class="cls-2" d="m25.6,47.04h1.15v3.69c0,.68.04,1.17.11,1.46.06.28.21.53.42.72.21.18.5.3.87.38.52.09,1.05.12,1.57.11.87,0,1.55-.07,2.04-.2s.85-.35,1.09-.66c.16-.2.27-.44.32-.69.06-.28.09-.68.09-1.21v-3.6h1.15v7.29h-1.15v-1.09h-.07c-.26.44-.68.78-1.17.94-.49.16-1.3.24-2.44.24-.7.02-1.4-.04-2.1-.16-.51-.11-.9-.29-1.19-.54-.26-.23-.44-.54-.55-.93s-.15-.97-.15-1.73v-4.03h0Z"/>
    </g>
  </g>
  <g>
    <path class="cls-1" d="m58.43,46.91h1.17v3.74c0,.69.04,1.18.11,1.48.06.28.21.54.43.73.21.18.51.3.88.38.53.09,1.06.13,1.59.11.88,0,1.57-.07,2.06-.2s.86-.36,1.11-.67c.16-.2.27-.44.32-.7.06-.28.09-.69.09-1.22v-3.64h1.17v7.37h-1.17v-1.11h-.07c-.27.45-.69.79-1.18.95-.5.16-1.31.24-2.46.24-.71.02-1.42-.04-2.12-.16-.51-.11-.91-.29-1.2-.55-.27-.23-.45-.54-.56-.94s-.16-.98-.16-1.75v-4.08h0Zm17.34,4.7h1.19c-.02.9-.22,1.55-.61,1.96-.29.3-.67.51-1.15.63s-1.2.18-2.15.18c-1.27,0-2.21-.05-2.83-.14-.62-.09-1.08-.27-1.41-.5-.72-.55-1.08-1.58-1.08-3.11,0-1.08.15-1.89.46-2.44.28-.51.76-.9,1.32-1.07.57-.19,1.52-.28,2.83-.28,1.18,0,2.06.06,2.63.18s1.01.34,1.31.64c.21.21.37.48.46.76.09.29.15.67.18,1.14h-1.22c-.02-.69-.24-1.15-.68-1.37s-1.33-.33-2.68-.33-2.19.13-2.6.4c-.27.18-.46.46-.59.85-.14.52-.2,1.06-.18,1.6,0,.64.08,1.14.22,1.52.14.37.38.64.69.8.43.22,1.41.34,2.93.34,1.2,0,1.98-.11,2.36-.33s.57-.69.6-1.4h.02Zm1.54-4.7h1.17v3.74c0,.69.04,1.18.11,1.48.06.28.21.53.42.72.21.18.51.3.88.38.53.09,1.06.13,1.59.11.88,0,1.57-.07,2.06-.2s.86-.36,1.11-.67c.16-.2.27-.44.32-.7.06-.28.09-.69.09-1.22v-3.64h1.17v7.37h-1.17v-1.11h-.07c-.27.45-.69.79-1.18.95-.5.16-1.31.24-2.46.24-.71.02-1.42-.04-2.12-.16-.51-.11-.91-.29-1.2-.55-.27-.23-.45-.54-.56-.94-.12-.57-.18-1.15-.16-1.74v-4.08h.01Zm9.67,0h7.97v1.03l-6.57,5.34h6.6v.99h-8.27v-1.12l6.48-5.24h-6.21v-.99h0Z"/>
    <path class="cls-1" d="m96.37,49.12h-1.21l-.02-.32c0-.77.29-1.3.87-1.58s1.67-.42,3.26-.42c1.26,0,2.15.06,2.71.17s.98.33,1.29.65c.25.25.43.57.5.91.1.61.14,1.23.12,1.85v3.89h-1.16l.02-.86h-.06c-.25.37-.62.65-1.04.78-.41.11-1.17.18-2.3.18-1.29,0-2.18-.03-2.69-.09s-.88-.19-1.14-.39c-.24-.16-.43-.4-.54-.67-.12-.35-.17-.72-.15-1.09,0-.57.08-1.01.23-1.31s.41-.53.77-.69c.39-.17,1.31-.26,2.76-.26s2.5.05,2.97.14c.43.07.82.3,1.08.66h.1v-.79c0-.65-.11-1.11-.35-1.4-.24-.28-.58-.46-.94-.52-.42-.09-1.11-.14-2.07-.14-1.26,0-2.07.08-2.44.22s-.56.47-.56.97v.1h0Zm2.98,1.79l-2.01.05c-.38.04-.66.1-.82.19-.3.18-.46.51-.46,1s.18.81.55.98c.29.14,1.29.21,2.98.21,1.24,0,2.06-.08,2.45-.24s.6-.49.6-.98-.22-.8-.67-.96-1.32-.25-2.63-.25h0Zm5.22-7.25h2.83v4.12h.13c.29-.47.65-.79,1.09-.95s1.14-.26,2.08-.26,1.68.05,2.25.16c.48.08.94.26,1.34.54.37.27.64.66.76,1.1.13.46.2,1.18.2,2.16l-.06,1.46c-.03.32-.11.63-.22.93-.21.59-.68,1.05-1.27,1.25-.63.24-1.6.36-2.92.36s-2.24-.15-2.74-.46c-.23-.14-.44-.38-.65-.74h-.15v.99h-2.67v-10.67h0Zm5.35,5.03c-.98,0-1.63.09-1.96.27-.21.11-.37.3-.44.52-.08.23-.11.6-.11,1.09,0,.53.05.91.14,1.13s.29.38.56.47c.38.14,1.01.21,1.87.21.99,0,1.66-.1,1.98-.31.18-.12.31-.31.36-.52.06-.24.1-.6.1-1.08.02-.36-.03-.73-.14-1.08-.09-.22-.26-.38-.51-.48-.37-.15-.99-.23-1.84-.23h0Zm5.59-5.03h2.83v2.13h-2.83v-2.13Zm0,3.09h2.83v7.58h-2.83v-7.57h0Zm3.31-3.09h2.83v10.67h-2.83v-10.67Zm0,11.42h2.83v1.73h-2.83v-1.73Zm0,2.57h2.83v1.14h-2.83v-1.14Zm0,2.29h2.83v.74h-2.83v-.74Zm10.61-8.02h2.82c-.08.82-.33,1.41-.75,1.78-.37.32-.88.53-1.55.66-.67.13-1.67.18-3,.18-1.11,0-1.94-.05-2.53-.16-.59-.11-1.06-.29-1.4-.55-.36-.28-.63-.67-.75-1.11-.14-.46-.2-1.17-.2-2.13,0-.72.03-1.26.08-1.62.05-.34.15-.67.3-.98.3-.61.85-1,1.64-1.18.68-.15,1.73-.24,3.16-.24,1.26,0,2.15.05,2.67.13.91.15,1.55.5,1.89,1.03s.51,1.42.51,2.67l-.02.76h-7.41c0,.38.03.66.08.83.05.17.15.32.29.42.28.21.91.31,1.91.31.63,0,1.11-.02,1.42-.08s.53-.13.65-.25c.1-.1.16-.26.19-.48h0Zm.04-2.3l-.06-.61c-.03-.11-.09-.22-.17-.3-.24-.25-.9-.37-1.96-.37-.95,0-1.59.08-1.89.25-.3.17-.47.51-.5,1.04h4.57Z"/>
    <path class="cls-1" d="m133.81,45.02h2.83v1.74h4.48v2.02h-4.47v2.2c0,.59.04.97.13,1.12.14.26.47.39,1,.39s.88-.13,1.02-.37c.05-.1.08-.2.1-.29.01-.25.02-.49.02-.74h2.59c-.01.72-.05,1.25-.13,1.57-.08.33-.23.64-.44.9-.3.37-.71.64-1.17.75-.5.14-1.23.21-2.21.21-.91,0-1.58-.05-2.02-.15-.4-.08-.78-.27-1.07-.56-.19-.18-.34-.4-.44-.65-.1-.31-.16-.64-.16-.97-.01-.15-.02-.56-.02-1.22v-2.21h-1.49v-2.02h1.49v-1.73h-.02Zm8.54,7.43h1.72v1.79h-1.72v-1.79Zm10.64-.86h1.18c-.02.9-.22,1.55-.61,1.96-.31.32-.71.54-1.15.63-.48.11-1.2.18-2.15.18-1.27,0-2.21-.05-2.82-.14s-1.08-.27-1.4-.5c-.72-.55-1.08-1.58-1.08-3.11,0-1.08.15-1.89.46-2.44.29-.51.76-.9,1.32-1.07.57-.19,1.52-.28,2.82-.28,1.18,0,2.06.06,2.63.18s1.01.34,1.31.64c.21.21.37.47.46.75.1.29.15.67.18,1.14h-1.22c-.02-.69-.24-1.15-.68-1.37-.44-.22-1.33-.33-2.68-.33s-2.19.13-2.6.4c-.27.18-.46.46-.59.85s-.18.92-.18,1.6c0,.64.08,1.14.22,1.52.12.34.37.63.69.8.43.22,1.41.34,2.92.34,1.19,0,1.98-.11,2.36-.33.37-.22.57-.69.6-1.4h0Zm5.93-4.79l2.57.11c.45.04.89.17,1.29.38.46.27.82.69,1.01,1.19.21.51.3,1.21.3,2.1,0,.98-.13,1.73-.37,2.24-.16.36-.41.67-.72.91-.36.24-.76.4-1.19.47-.48.1-1.27.15-2.37.15-.79.01-1.58-.02-2.37-.1-.53-.07-.96-.19-1.3-.38-.5-.27-.84-.65-1.06-1.17s-.32-1.23-.32-2.16c0-1.03.15-1.82.46-2.35.3-.55.74-.91,1.29-1.11.55-.19,1.47-.28,2.77-.29h0Zm.19,1.03c-.77,0-1.35.03-1.75.08-.33.04-.65.14-.94.3-.27.18-.47.46-.6.84s-.19.9-.19,1.56c0,.74.08,1.3.25,1.68.16.37.45.63.85.79.45.17,1.31.26,2.6.26.62.01,1.24-.02,1.85-.09.34-.04.66-.16.94-.35.27-.2.47-.49.56-.82.11-.36.17-.88.17-1.52,0-.77-.09-1.35-.27-1.71-.2-.4-.52-.67-.98-.81s-1.3-.2-2.5-.2h0Zm5.46-.94h1.17v.97c.37-.45.74-.73,1.11-.87s1.01-.2,1.91-.2c1.2,0,2.07.09,2.59.27.52.17.96.54,1.22,1.02.22-.47.62-.83,1.11-1,.5-.18,1.27-.28,2.32-.28s1.75.06,2.25.19c.46.11.89.35,1.22.7.23.26.39.57.46.9.08.34.11.93.11,1.79v3.87h-1.16v-4.15c0-.9-.13-1.49-.4-1.75-.36-.36-1.19-.53-2.48-.53-.57-.02-1.14.03-1.69.15-.34.07-.65.24-.88.5-.2.24-.34.56-.41.95s-.11,1.04-.11,1.94v2.9h-1.16v-4.15c0-.52-.03-.91-.08-1.15s-.16-.45-.32-.59c-.38-.36-1.21-.54-2.5-.54-.74,0-1.32.05-1.72.15-.35.07-.68.25-.93.51-.19.21-.3.5-.37.87-.07.66-.1,1.33-.09,1.99v2.9h-1.16v-7.36h0Z"/>
  </g>
  <path class="cls-1" d="m68.79,64.2c0-.2-.06-.35-.18-.42-.14-.05-.29-.08-.45-.07h-.4c-.16,0-.31.01-.46.06-.16.06-.24.18-.24.36,0,.03,0,.07,0,.08h1.71Zm-.01.82h1.02c0,.42-.18.69-.51.83-.2.09-.56.14-1.06.14-.33,0-.67-.01-1-.03-.48-.03-.82-.18-1-.42-.16-.21-.24-.57-.24-1.08,0-.46.09-.8.27-1.01.18-.21.51-.33.97-.35l.98-.02c.62,0,1.02.09,1.25.27.17.15.27.36.3.64l.03.74h-2.74c0,.21.04.37.12.46s.22.14.44.14h.58c.28,0,.45-.03.52-.11.02-.01.03-.08.04-.19m4.9-1.88v.69h-1.68v.89c0,.18.02.3.08.38.07.08.18.12.35.12.16,0,.27-.02.34-.08s.11-.16.11-.3v-.12h.81c0,.5-.08.83-.22.99-.17.19-.51.28-1.01.28s-.84-.04-1.05-.14c-.31-.13-.47-.42-.47-.83v-1.18h-.53v-.69h.53v-.69h1.07v.69h1.68v-.02Zm4.48.77h-1.09c-.01-.08-.07-.13-.17-.16-.13-.03-.25-.04-.38-.03h-.45c-.17,0-.3.01-.4.02-.15.02-.21.1-.21.22s.11.19.35.19h1.15c.45.02.75.05.91.11.28.11.43.36.43.72,0,.24-.02.42-.08.53-.07.15-.2.26-.4.34-.26.1-.73.15-1.43.15h-.44c-.5,0-.83-.03-1.02-.11-.32-.14-.5-.4-.51-.81h1.08c0,.12.07.21.2.25.14.03.28.04.43.03h.25c.11,0,.19.01.25.01.24,0,.42-.02.52-.07.08-.03.12-.11.12-.21,0-.14-.12-.21-.36-.21h-.78c-.3,0-.59,0-.89-.02-.54-.04-.81-.32-.81-.85,0-.33.11-.56.35-.69.16-.1.43-.16.79-.19l1.01-.02c.31,0,.62.02.93.06.24.04.4.11.5.24.09.12.15.29.16.53m1.52-.78h1.94v.36h-1.94v1.35c0,.31.06.52.16.62.11.1.31.15.63.15.28,0,.48-.03.59-.09.17-.08.25-.25.25-.51v-.16c0-.07-.01-.12-.01-.16h.4c0,.52-.06.85-.17.99-.15.19-.48.29-1,.29-.44,0-.73-.04-.9-.15-.24-.13-.36-.4-.36-.8v-1.54h-.69v-.37h.69v-.63h.42v.63h0Zm5.99,2.81h-.42v-.54c-.09.24-.27.4-.53.5-.18.06-.43.09-.75.09-.53,0-.92-.06-1.15-.16-.35-.17-.52-.48-.52-.96v-1.74h.42v1.54c0,.42.1.67.29.8.15.09.44.15.89.15s.78-.04.96-.13c.27-.14.4-.4.4-.81v-1.54h.42v2.81s0,0,0,0Zm.95-2.81h.42v.5c.06-.22.23-.38.45-.45.22-.06.44-.09.66-.08.54,0,.89.06,1.07.17.25.16.37.48.37.98v.07s-.01.06-.01.07h-.4c0-.35-.06-.58-.17-.72-.11-.12-.35-.19-.69-.19h-.15c-.4,0-.69.06-.83.16-.19.12-.29.38-.29.75v1.57h-.42v-2.82s0,0,0,0Zm-27-.59h.47s.22.04.22.04c.07.01.12.03.18.07.11.07.2.16.27.27.08.11.11.26.11.42,0,.16-.04.31-.12.45-.09.12-.2.22-.36.28h0c.18.04.35.14.46.29.11.15.16.31.16.52,0,.12-.02.24-.07.35-.05.11-.11.21-.19.3-.09.09-.19.16-.31.21-.13.06-.28.08-.43.08h-1.6v-3.28h1.2,0Zm.11,1.42c.25,0,.43-.04.54-.13s.17-.22.17-.4c0-.11-.02-.21-.06-.28s-.09-.12-.16-.16c-.07-.04-.15-.06-.22-.07-.09,0-.18-.01-.27-.01h-.88v1.05h.88Zm.22,1.51c.19,0,.35-.06.45-.16.11-.1.17-.25.17-.44,0-.09-.02-.19-.06-.27-.03-.08-.09-.12-.16-.17s-.15-.07-.22-.09c-.09-.02-.18-.02-.27-.02h-1.01v1.15h1.11Zm1.59-2.44v-.48h.4v.48h-.4Zm.4.43v2.38h-.4v-2.38h.4Zm.96,0v.51h.01c.08-.17.2-.32.35-.43.13-.09.31-.13.53-.13v.42c-.14,0-.27.02-.4.07-.11.04-.2.1-.27.19-.07.09-.12.19-.15.3-.03.12-.04.26-.04.4v1.06h-.4v-2.38h.38Zm29.75,0v.35h0c.17-.26.46-.42.78-.4.14,0,.28.03.4.09.12.06.2.17.26.31.08-.13.18-.23.31-.3.13-.07.28-.1.43-.1.11,0,.22,0,.32.03.09.02.18.06.25.12.07.06.12.12.16.21s.06.19.06.31v1.74h-.4v-1.55c0-.08-.01-.15-.02-.2-.01-.07-.03-.12-.07-.17s-.08-.09-.15-.11c-.07-.03-.15-.05-.24-.04-.19,0-.35.06-.46.17-.11.12-.17.28-.17.44v1.49h-.4v-1.56c0-.08,0-.15-.02-.21-.01-.06-.03-.12-.07-.17-.03-.04-.08-.09-.14-.11s-.13-.03-.21-.03c-.1,0-.2.02-.29.07-.08.04-.15.1-.2.17-.05.06-.09.13-.11.2-.02.05-.03.11-.03.17v1.49h-.4v-2.39h.41Zm5.68,2.37c-.07.04-.16.06-.28.06-.09,0-.18-.03-.25-.09-.06-.06-.09-.15-.09-.28-.1.12-.23.21-.37.28-.15.06-.3.09-.46.09-.1,0-.2-.01-.3-.03-.09-.02-.17-.06-.25-.11-.07-.06-.12-.13-.17-.2-.05-.09-.07-.2-.07-.3,0-.12.02-.23.07-.34.04-.08.11-.16.18-.21.08-.06.16-.09.26-.12.1-.02.19-.06.29-.07.11-.02.21-.03.3-.04.09,0,.17-.02.26-.04.07-.02.13-.04.18-.09.04-.03.07-.09.07-.17,0-.09-.01-.16-.04-.2-.03-.06-.08-.09-.12-.12-.05-.02-.11-.04-.17-.06-.07-.01-.12-.01-.19-.01-.14,0-.29.03-.42.09-.11.07-.17.18-.18.36h-.4c0-.13.03-.26.09-.37.05-.1.12-.18.22-.25.09-.07.2-.11.31-.13.13-.03.25-.04.38-.04.11,0,.21,0,.31.02.1.01.2.04.29.09.09.04.16.11.2.2.06.09.08.2.08.34v1.23c0,.07,0,.14.01.2.01.04.04.07.11.07.04,0,.08-.01.12-.02v.3h0Zm-.63-1.21s-.11.07-.19.08l-.25.04-.27.03c-.08,0-.16.03-.24.07-.07.03-.12.08-.17.13-.04.06-.07.14-.07.24,0,.07.01.12.03.16.02.04.06.08.1.11.04.02.09.04.15.06s.11.02.18.02c.12,0,.24-.02.34-.06.09-.03.17-.08.22-.13.05-.05.1-.11.12-.18.02-.07.04-.12.04-.18v-.4h-.01,0Zm1.35-1.16v.51h.01c.08-.17.2-.32.35-.43.14-.09.31-.13.53-.13v.42c-.14,0-.27.02-.4.07-.11.04-.2.1-.27.19-.07.09-.12.19-.15.3-.03.13-.05.27-.04.4v1.06h-.4v-2.38h.37Zm1.6-.91v1.96l1.09-1.05h.53l-.94.87,1.01,1.52h-.5l-.82-1.25-.37.34v.9h-.4v-3.28h.4,0Zm4.09,3.28c-.07.04-.16.06-.28.06-.09,0-.18-.03-.25-.09-.06-.06-.09-.15-.09-.28-.1.12-.23.21-.37.28-.15.06-.3.09-.46.09-.1,0-.2-.01-.3-.03-.09-.02-.17-.06-.25-.11-.07-.06-.12-.13-.17-.2-.05-.09-.07-.2-.07-.3,0-.12.02-.23.07-.34.04-.08.11-.16.18-.21.08-.05.17-.1.26-.12.1-.02.19-.06.29-.07.11-.02.21-.03.3-.04.09,0,.17-.02.26-.04.07-.02.13-.04.18-.09.04-.03.07-.09.07-.17,0-.09-.01-.16-.04-.2-.03-.06-.08-.09-.12-.12-.05-.02-.11-.04-.17-.06-.07-.01-.12-.01-.19-.01-.14,0-.29.03-.42.09-.11.07-.17.18-.18.36h-.4c.01-.15.03-.27.09-.37s.12-.18.22-.25c.09-.07.2-.11.31-.13.13-.03.25-.04.38-.04.11,0,.21,0,.31.02.1.01.2.04.29.09.09.04.16.11.2.2.06.09.08.2.08.34v1.23c0,.07,0,.14.01.2.01.04.04.07.11.07.03,0,.08-.01.12-.02v.3h0Zm-.64-1.21s-.11.07-.19.08l-.25.04-.27.03c-.08,0-.16.03-.24.07-.07.03-.12.08-.17.13-.04.05-.07.14-.07.24,0,.07,0,.12.03.16.02.04.06.08.1.11.04.02.09.04.15.06.06.01.12.02.18.02.12,0,.24-.02.34-.06.09-.03.17-.08.22-.13.05-.05.1-.11.12-.18.02-.07.04-.12.04-.18v-.4h-.01,0Zm1.31.7c.03.06.09.11.15.15s.12.06.2.08l.24.02c.06,0,.12,0,.19,0s.13-.02.19-.06c.06-.02.1-.06.13-.11.03-.04.06-.11.06-.18,0-.1-.03-.18-.11-.24-.09-.06-.19-.1-.29-.12l-.37-.09c-.13-.03-.25-.06-.37-.11-.11-.04-.21-.11-.29-.2-.08-.09-.11-.2-.11-.36,0-.12.02-.22.08-.3.06-.09.12-.16.2-.21.09-.05.18-.09.28-.12.1-.02.21-.03.31-.03.12,0,.25.01.37.03.11.02.21.07.3.12.09.06.16.14.21.24.06.11.09.23.09.36h-.4c-.01-.08-.02-.13-.06-.19s-.08-.09-.12-.12c-.06-.03-.11-.06-.17-.07-.07,0-.12-.02-.19-.02-.06,0-.11,0-.18,0-.06.01-.11.03-.17.04-.05.02-.09.05-.12.09-.03.03-.04.09-.04.15,0,.07.02.12.07.17s.11.08.18.11c.08.03.16.06.25.08l.28.07.29.08c.1.03.18.07.25.12s.13.11.18.19c.05.09.07.18.07.28,0,.15-.03.27-.09.36s-.13.17-.24.24c-.1.06-.21.11-.32.12-.12.02-.24.03-.36.03-.13,0-.26-.01-.38-.04-.12-.02-.22-.08-.31-.13-.09-.07-.17-.15-.23-.25-.06-.1-.09-.22-.09-.37h.4c0,.07.02.15.06.21h0Zm2.03-1.86h.4v2.38h-.4v-2.38Zm2.73,2.39v-.33h-.01c-.06.13-.17.23-.3.28-.15.06-.3.09-.46.09-.17,0-.33-.03-.48-.1-.13-.06-.25-.16-.34-.27-.09-.11-.16-.25-.2-.4-.05-.16-.07-.32-.07-.48,0-.16.02-.33.07-.48.04-.14.11-.28.2-.39.09-.11.21-.21.34-.27.15-.07.31-.11.47-.1.06,0,.12.01.2.02.07.01.15.03.21.07l.2.11c.07.04.11.11.16.18h.01v-1.23h.4v3.29h-.4Zm-1.4-.84c.03.1.08.2.13.28s.13.15.24.2c.1.05.21.08.33.08.13,0,.25-.02.34-.08s.17-.12.22-.2c.06-.09.1-.18.12-.29.02-.11.03-.22.03-.33,0-.11-.01-.23-.04-.34-.02-.11-.07-.21-.13-.29-.06-.08-.14-.15-.24-.2-.09-.06-.21-.08-.35-.08s-.25.02-.34.08-.17.12-.22.2c-.05.09-.1.19-.12.29-.02.11-.03.22-.03.34l.07.34h0Zm2.43-1.54h.4v2.38h-.4v-2.38Zm1.36,0v.51h0c.08-.17.2-.32.35-.43.13-.09.31-.13.53-.13v.42c-.16,0-.29.02-.4.07s-.2.1-.27.19c-.07.09-.12.19-.15.3-.03.13-.05.27-.04.4v1.06h-.4v-2.38h.38Z"/>
</svg>