<?xml version="1.0" encoding="UTF-8"?>
<svg id="Layer_1" data-name="Layer 1" xmlns="http://www.w3.org/2000/svg" viewBox="0 0 200 100">
  <defs>
    <style>
      .cls-1 {
        fill: #fff;
        stroke-width: 0px;
      }
    </style>
  </defs>
  <path class="cls-1" d="m109.15,71.25l.31-.4c7.36-9.81,11.8-15.3,14.43-19.07,2.52-3.63,3.12-5.33,3.12-7.83,0-2.15-.73-3.06-2.09-3.06s-1.8.5-2.12,1.32c-.42.94-.52,2.37-.52,3.9v1.49h-12.29l-.09-1.37c-.77-9.48,4.74-16.17,14.35-16.17,8.78,0,15.15,4.82,15.15,14.57,0,5.77-3.32,11.72-7.05,16.77-1.91,2.54-3.96,4.94-5.84,7.06-.9.98-1.79,1.95-2.59,2.8h15.09l11.02-41.2h15.6l14.35,51.39h-13.75l-2.68-10.71h-11.54l-2.76,10.71h-40.12v-10.19Zm48.53-23.86l-2.94,12.94h5.96l-3.02-12.94Z"/>
  <polygon class="cls-1" points="51.76 28.85 20 81.44 29.57 81.44 56.54 36.78 51.76 28.85"/>
  <polygon class="cls-1" points="33.06 81.44 42.63 81.44 63.07 47.57 58.29 39.65 33.06 81.44"/>
  <polygon class="cls-1" points="109.15 81.44 71.55 18.56 61.99 18.56 99.59 81.44 109.15 81.44"/>
  <polygon class="cls-1" points="96.12 81.44 58.52 18.56 48.95 18.56 86.55 81.44 96.12 81.44"/>
  <polygon class="cls-1" points="78.52 73.67 51.18 73.67 46.49 81.44 83.16 81.44 78.52 73.67"/>
  <polygon class="cls-1" points="71.93 62.66 57.94 62.66 53.25 70.43 76.58 70.43 71.93 62.66"/>
</svg>