<?xml version="1.0" encoding="UTF-8"?>
<svg xmlns="http://www.w3.org/2000/svg" xmlns:xlink="http://www.w3.org/1999/xlink" viewBox="0 0 200 100">
  <defs>
    <style>
      .cls-1 {
        clip-path: url(#clippath);
      }

      .cls-2, .cls-3 {
        fill: #fff;
      }

      .cls-4 {
        mix-blend-mode: multiply;
      }

      .cls-5 {
        isolation: isolate;
      }

      .cls-3 {
        stroke-width: 0px;
      }
    </style>
    <clipPath id="clippath">
      <rect class="cls-3" x="20" y="15.34" width="160" height="69.33"/>
    </clipPath>
  </defs>
  <g class="cls-5">
    <g id="Layer_1" data-name="Layer 1">
      <g class="cls-4">
        <g>
          <rect class="cls-2" x="20" y="15.34" width="160" height="69.33"/>
          <g class="cls-1">
            <path class="cls-3" d="m131.25,34.37V15.34c.49.27.84.44,1.16.65,4.11,2.76,6.49,6.59,6.85,11.54.18,2.4.14,4.82.15,7.24.02,5.01.02,10.02,0,15.04-.01,3.15-.6,6.2-2.12,8.98-3.81,6.93-9.68,10.45-17.62,10.36-8.55-.09-16.97-6.57-18.27-16.45-1.48-11.22,6.38-19.71,15.28-21.34,4.85-.89,9.37-.07,13.6,2.46.24.14.49.28.97.55m-10.93,4.79c-6.05-.02-10.96,4.89-10.96,10.95,0,6.01,4.88,10.9,10.87,10.92,6.1.02,10.97-4.81,10.99-10.89.02-6.08-4.83-10.97-10.91-10.98"/>
            <path class="cls-3" d="m28.11,65.82c0,1.89.08,3.57-.02,5.24-.09,1.52-.23,3.08-.61,4.55-.98,3.73-3.22,6.59-6.45,8.68-.21.14-.44.25-.67.36-.05.02-.14-.02-.29-.04-.02-.34-.05-.69-.05-1.04,0-11.23-.02-22.46,0-33.7.02-9.35,7.06-17.4,16.27-18.68,9.96-1.38,19.17,4.88,21.38,14.68,2.53,11.2-5.11,21.43-15.51,23.05-4.66.73-9.02-.09-13.06-2.53-.25-.15-.5-.29-.99-.57m10.92-26.66c-6.07.03-10.93,4.93-10.9,11,.02,6.05,4.93,10.89,11.02,10.87,6.04-.02,10.89-4.96,10.84-11.05-.05-6.01-4.95-10.85-10.96-10.82"/>
            <path class="cls-3" d="m160.91,73.94c-.54-1.14-1.31-1.87-2.2-2.47-1.27-.86-2.59-1.65-3.87-2.5-1.92-1.27-3.94-2.42-5.71-3.88-6.09-5-8.49-11.5-6.78-19.17,1.73-7.73,6.75-12.62,14.44-14.44,10.75-2.54,21.51,4.9,22.99,15.84.98,7.24-1.47,13.27-7.18,17.84-1.85,1.48-3.92,2.67-5.91,3.98-1.04.68-2.11,1.31-3.14,2-1.03.7-2,1.49-2.64,2.79m0-34.77c-6.06,0-10.94,4.91-10.93,10.98.01,6.04,4.93,10.9,11.01,10.9,6.1,0,10.96-5.15,10.87-11.03-.09-6.01-4.92-10.86-10.94-10.85"/>
            <path class="cls-3" d="m60.62,43.42c0-2.78.03-5.56,0-8.34-.03-2.33,2.17-4.57,5.04-3.9,1.81.42,3.07,2.03,3.08,4.03.02,3.37,0,6.73,0,10.1,0,1.65-.02,3.29,0,4.94.09,6.46,5.67,11.42,12.08,10.77,5.44-.55,9.72-5.17,9.77-10.65.05-4.83,0-9.66.02-14.49,0-.51.02-1.03.12-1.53.38-1.96,1.99-3.28,3.95-3.3,2-.01,3.64,1.36,4.01,3.37.08.43.11.87.11,1.31,0,4.68.02,9.37,0,14.05-.04,8.21-4.71,15.18-12.1,18.09-11.53,4.55-24.34-2.95-25.93-15.23-.2-1.51-.12-3.07-.14-4.6-.02-1.54,0-3.07,0-4.61h0Z"/>
          </g>
        </g>
      </g>
    </g>
  </g>
</svg>