<?xml version="1.0" encoding="UTF-8"?>
<svg id="Layer_1" data-name="Layer 1" xmlns="http://www.w3.org/2000/svg" viewBox="0 0 200 100">
  <defs>
    <style>
      .cls-1 {
        fill: #1d1c1a;
      }

      .cls-1, .cls-2, .cls-3 {
        stroke-width: 0px;
      }

      .cls-2 {
        fill: #df1f26;
      }

      .cls-3 {
        fill: #fff;
      }
    </style>
  </defs>
  <path class="cls-2" d="m68.77,30.53c.99-2.32,2.84-6.77,4.51-11.1,2.68-6.97,4.76-9.37,11.12-9.37h31.56c6.36,0,8.43,2.4,11.12,9.37,1.66,4.32,3.53,8.78,4.51,11.1.61.2,1.32.5,2.06.91,2.19,1.24,4.72,3.72,4.72,7.98v11.65c0,2.06-1.23,6.66-5.12,8.48v4.34c0,5.47-5.47,7.94-8.77,7.94-5.02,0-8.92-3.78-8.92-7.94v-3.61h-30.72v3.61c0,4.16-3.9,7.94-8.92,7.94-3.31,0-8.78-2.47-8.78-7.94v-4.34c-3.89-1.82-5.11-6.42-5.11-8.48v-11.65c0-4.25,2.52-6.74,4.72-7.98.73-.41,1.44-.71,2.05-.91"/>
  <path class="cls-3" d="m98.75,32.73c0-1.23.41-1.66,1.63-1.66,1.34,0,1.8.35,1.8,1.69v10.52c0,1.2-.37,1.75-1.71,1.75-1.72,0-1.72-.82-1.72-1.75v-10.55Zm-4.99,9.38c0,2.39.12,6.53,6.68,6.53,1.49,0,3.73-.09,5.19-1.57,1.51-1.52,1.51-3.5,1.51-5.13v-7.87c0-2.25,0-6.67-6.56-6.67-1.49,0-3.79.05-5.37,1.69-1.25,1.31-1.46,2.89-1.46,4.52v8.51Z"/>
  <path class="cls-3" d="m84.64,31.3c1.43,0,1.87.55,1.87,1.86v9.85c0,1.4-.46,1.75-1.84,1.75h-1.54v-13.47h1.51Zm-6.32,17.02h7.7c1.63,0,3.38-.12,4.48-1.37,1-1.11,1-2.57,1-3.82v-10.29c0-1.19,0-3.29-2.07-4.43-.7-.41-1.81-.7-3.61-.7h-7.49v20.61Z"/>
  <path class="cls-3" d="m115.73,31.3c1.43,0,1.87.55,1.87,1.86v9.85c0,1.4-.47,1.75-1.84,1.75h-1.55v-13.47h1.51Zm-6.32,17.02h7.7c1.63,0,3.38-.12,4.49-1.37.99-1.11.99-2.57.99-3.82v-10.29c0-1.19,0-3.29-2.07-4.43-.7-.41-1.81-.7-3.62-.7h-7.49v20.61Z"/>
  <path class="cls-3" d="m124.37,68.98c-3.71,0-6.21-2.7-6.21-5.21v-6.27h-35.96v6.27c0,2.52-2.49,5.21-6.21,5.21-2.87,0-6.06-2.14-6.06-5.21v-6.32c-3.47-.53-5.1-4.02-5.1-6.44v-11.59c0-4.34,3.68-6.16,6.03-6.62.68-1.59,3.01-7.06,5.03-12.3,2.46-6.39,3.82-7.6,8.57-7.6h31.44c4.75,0,6.11,1.21,8.57,7.6,2.02,5.23,4.35,10.71,5.03,12.3,2.34.46,6.03,2.29,6.03,6.62v11.59c0,2.41-1.63,5.89-5.1,6.41v6.34c0,3.07-3.19,5.21-6.06,5.21m-43.98-13.3h39.6v8.09c0,1.39,1.56,3.4,4.39,3.4,2.59,0,4.24-2.01,4.24-3.4v-8.09h.91c3.2,0,4.19-3.42,4.19-4.67v-11.59c0-4.23-4.76-4.87-4.96-4.9l-.51-.07-.21-.47c-.03-.07-2.86-6.61-5.25-12.82-2.39-6.2-3.32-6.44-6.88-6.44h-31.44c-3.56,0-4.49.23-6.88,6.44-2.39,6.21-5.22,12.76-5.25,12.82l-.2.48-.52.06c-.2.03-4.96.68-4.96,4.9v11.59c0,1.25.99,4.69,4.19,4.69h.91v8.07c0,1.38,1.66,3.4,4.24,3.4,2.83,0,4.39-2.01,4.39-3.4v-8.09Z"/>
  <path class="cls-1" d="m48.9,76.86h2.13l-1.9,9.98h-2.13l1.9-9.98Zm1.33-.62h-.02c-.26,0-.48-.09-.66-.27-.19-.18-.28-.4-.28-.68,0-.31.11-.57.31-.77.21-.2.47-.31.77-.31.29,0,.51.09.69.27.18.18.26.4.26.68,0,.31-.1.58-.31.77-.21.21-.46.31-.76.31"/>
  <path class="cls-1" d="m53.13,86.84h-2.12l2-10.51h2.12l-1.2,6.29h.03c.11-.16.33-.42.65-.81l1.85-2.21h2.64l-3.08,2.99,2.01,4.25h-2.38l-1.27-3.09-.8.77-.45,2.32Z"/>
  <path class="cls-1" d="m60.99,86.84h-2.13l1.37-7.24h2.12l-1.36,7.24Zm.58-8.19h-.01c-.31,0-.57-.1-.78-.31-.2-.21-.3-.48-.3-.8,0-.37.13-.67.38-.92.25-.24.56-.37.92-.37.34,0,.61.1.82.3.22.2.32.47.32.81,0,.39-.13.7-.39.94-.25.24-.57.35-.96.35"/>
  <path class="cls-1" d="m64.92,86.84h-2.13l.91-4.88c.17-.87.29-1.66.39-2.36h1.88l-.13,1.2h.03c.66-.91,1.5-1.36,2.53-1.36.59,0,1.05.17,1.38.52.33.35.49.83.49,1.47,0,.39-.04.8-.12,1.21l-.8,4.21h-2.13l.75-4.01c.05-.26.07-.53.07-.79,0-.59-.24-.88-.72-.88-.39,0-.75.23-1.1.69-.34.47-.58,1.06-.71,1.78l-.59,3.21Z"/>
  <path class="cls-1" d="m76.42,85v1.61c-.52.26-1.2.39-2.04.39-.91,0-1.65-.27-2.22-.8-.56-.54-.83-1.26-.83-2.18,0-1.3.45-2.39,1.35-3.27.9-.88,2.03-1.32,3.38-1.32.57,0,1.06.08,1.48.25l-.53,1.63c-.29-.12-.62-.18-.98-.18-.71,0-1.3.26-1.76.78-.46.52-.7,1.14-.7,1.87,0,.48.13.85.39,1.11.26.27.6.4,1.03.4.46,0,.94-.1,1.44-.3"/>
  <path class="cls-1" d="m79.67,86.84h-2.14l1.38-7.24h2.12l-1.36,7.24Zm.58-8.19h-.01c-.32,0-.58-.1-.78-.31-.2-.21-.31-.48-.31-.8,0-.37.13-.67.38-.92.25-.24.56-.37.92-.37.34,0,.6.1.82.3.22.2.32.47.32.81,0,.39-.13.7-.38.94-.26.24-.58.35-.96.35"/>
  <path class="cls-1" d="m90.09,84.89l.15,1.54c-.76.38-1.65.57-2.7.57s-1.77-.26-2.32-.79c-.54-.53-.82-1.29-.82-2.27,0-1.24.4-2.29,1.21-3.18.81-.89,1.81-1.32,3.01-1.32.75,0,1.36.2,1.82.6.46.4.69.93.69,1.58,0,1.7-1.56,2.51-4.69,2.43,0,.87.54,1.31,1.61,1.31.72,0,1.4-.16,2.03-.46m-.95-3.27v-.02c0-.4-.27-.6-.78-.6-.41,0-.77.14-1.08.42-.31.28-.52.64-.62,1.07,1.66.01,2.49-.28,2.49-.87"/>
  <polygon class="cls-1" points="93.74 86.84 91.6 86.84 93.62 76.32 95.75 76.32 93.74 86.84"/>
  <path class="cls-1" d="m101.89,76.32h2.12l-1.47,7.7c-.18.93-.29,1.87-.34,2.81h-1.94l.1-1.17h-.03c-.59.89-1.39,1.33-2.39,1.33-.65,0-1.19-.25-1.61-.74-.42-.5-.63-1.16-.63-1.99,0-1.34.44-2.49,1.31-3.43.88-.95,1.96-1.41,3.25-1.41.35,0,.68.06.98.18l.63-3.29Zm-1.32,6.93l.39-1.94c-.2-.17-.48-.25-.85-.25-.6,0-1.11.29-1.54.86-.43.58-.64,1.24-.64,1.99,0,.9.33,1.36.99,1.36.36,0,.69-.19,1-.56.31-.37.53-.86.65-1.47"/>
  <path class="cls-1" d="m109.73,84.89l.15,1.54c-.76.38-1.66.57-2.69.57s-1.77-.26-2.31-.79c-.55-.53-.83-1.29-.83-2.27,0-1.24.4-2.29,1.21-3.18.81-.89,1.81-1.32,3.01-1.32.75,0,1.36.2,1.82.6.46.4.7.93.7,1.58,0,1.7-1.57,2.51-4.7,2.43,0,.87.54,1.31,1.61,1.31.72,0,1.4-.16,2.03-.46m-.95-3.27v-.02c0-.4-.26-.6-.79-.6-.4,0-.76.14-1.08.42-.32.28-.53.64-.62,1.07,1.66.01,2.49-.28,2.49-.87"/>
  <path class="cls-2" d="m113.94,89.47l.5-1.63c.45.27,1.09.4,1.9.4,1.2,0,1.92-.64,2.16-1.93l.12-.62h-.03c-.54.72-1.23,1.08-2.08,1.08-.68,0-1.24-.25-1.67-.73-.43-.48-.65-1.11-.66-1.87-.01-1.34.44-2.47,1.36-3.39.91-.91,2.08-1.37,3.5-1.37.95,0,1.85.17,2.68.51l-1.09,5.97c-.27,1.47-.75,2.52-1.45,3.14-.66.59-1.62.89-2.87.89-1.04,0-1.83-.15-2.37-.46m5.11-6.34l.37-1.94c-.2-.09-.45-.13-.77-.13-.61,0-1.13.28-1.56.85-.43.57-.65,1.22-.65,1.95,0,.85.33,1.27.98,1.27.36,0,.69-.19,1-.56.31-.37.52-.85.63-1.44"/>
  <path class="cls-2" d="m127.96,79.6h2.13l-.92,4.89c-.11.55-.25,1.34-.4,2.35h-1.88l.13-1.17h-.03c-.7.89-1.53,1.34-2.49,1.34-1.24,0-1.87-.68-1.87-2.03,0-.37.05-.82.15-1.34l.77-4.04h2.13l-.74,3.88c-.07.37-.11.69-.11.96,0,.55.24.83.73.83.39,0,.74-.21,1.06-.64.33-.42.55-.98.68-1.67l.64-3.36Zm-2.42-.84h-.01c-.26,0-.48-.09-.67-.27-.19-.18-.28-.4-.28-.68,0-.32.1-.58.31-.78.21-.21.47-.31.78-.31.28,0,.51.09.69.26.17.18.26.41.26.68,0,.32-.1.57-.3.77-.2.21-.46.31-.77.31m3.01,0h-.01c-.26,0-.48-.09-.67-.27-.19-.18-.28-.4-.28-.68,0-.32.1-.58.31-.78.21-.21.46-.31.77-.31s.52.09.69.26c.17.18.26.41.26.68,0,.32-.11.57-.3.77-.21.21-.46.31-.77.31"/>
  <path class="cls-2" d="m131.01,79.6h2.19l.34,3.17c.1.93.16,1.58.2,1.97h.04c.25-.65.52-1.3.81-1.95l1.45-3.18h2.38l-4.03,7.24h-2.18l-1.21-7.24Z"/>
  <path class="cls-2" d="m144.01,84.89l.15,1.54c-.76.38-1.66.57-2.69.57s-1.77-.26-2.32-.79c-.55-.53-.82-1.29-.82-2.27,0-1.24.41-2.29,1.21-3.18.81-.89,1.81-1.32,3.01-1.32.75,0,1.36.2,1.82.6.46.4.69.93.69,1.58,0,1.7-1.56,2.51-4.7,2.43,0,.87.54,1.31,1.61,1.31.72,0,1.4-.16,2.03-.46m-.95-3.27v-.02c0-.4-.26-.6-.78-.6-.41,0-.77.14-1.08.42-.32.28-.53.64-.62,1.07,1.66.01,2.49-.28,2.49-.87"/>
  <path class="cls-2" d="m147.65,86.84h-2.13l.92-4.88c.16-.87.29-1.66.38-2.36h1.88l-.13,1.2h.03c.66-.91,1.5-1.36,2.53-1.36.59,0,1.05.17,1.37.52.33.35.49.83.49,1.47,0,.39-.04.8-.12,1.21l-.8,4.21h-2.13l.75-4.01c.05-.26.07-.53.07-.79,0-.59-.24-.88-.73-.88-.38,0-.75.23-1.09.69-.34.47-.58,1.06-.71,1.78l-.59,3.21Z"/>
</svg>