<?xml version="1.0" encoding="UTF-8"?>
<svg id="Layer_1" data-name="Layer 1" xmlns="http://www.w3.org/2000/svg" viewBox="0 0 200 100">
  <defs>
    <style>
      .cls-1, .cls-2, .cls-3 {
        stroke-width: 0px;
      }

      .cls-2 {
        fill: #a7a8a9;
      }

      .cls-3 {
        fill: #fff;
      }
    </style>
  </defs>
  <polygon class="cls-2" points="80.82 54.26 80.82 61.14 79.59 61.14 79.59 55.64 75.8 59.79 74.42 59.79 70.7 55.71 70.7 61.14 69.47 61.14 69.47 54.26 70.92 54.26 75.09 58.95 79.37 54.26 80.82 54.26"/>
  <path class="cls-2" d="m83.52,59.24v-3.07c0-1.44.6-1.9,1.92-1.9h5.77c1.39,0,1.89.46,1.89,1.9v3.07c0,1.57-.82,1.9-1.89,1.9h-5.77c-1.11,0-1.92-.34-1.92-1.9m7.75.78c.36,0,.6-.21.6-.58v-3.43c0-.31-.16-.61-.6-.61h-5.89c-.49,0-.63.3-.63.61v3.43c0,.37.27.58.63.58h5.89Z"/>
  <polygon class="cls-2" points="103.97 55.38 99.98 55.38 99.98 61.14 98.76 61.14 98.76 55.38 94.75 55.38 94.75 54.26 103.97 54.26 103.97 55.38"/>
  <path class="cls-2" d="m105.62,59.24v-3.07c0-1.44.6-1.9,1.92-1.9h5.77c1.39,0,1.89.46,1.89,1.9v3.07c0,1.57-.82,1.9-1.89,1.9h-5.77c-1.11,0-1.92-.34-1.92-1.9m7.75.78c.36,0,.6-.21.6-.58v-3.43c0-.31-.16-.61-.6-.61h-5.89c-.49,0-.63.3-.63.61v3.43c0,.37.27.58.63.58h5.89Z"/>
  <path class="cls-2" d="m117.61,56.16c0-1.56.94-1.9,2.52-1.9h6.19v1.12h-6.85c-.36,0-.63.27-.63.58v3.46c0,.31.27.58.63.58h6.93v1.12h-6.27c-1.57,0-2.52-.34-2.52-1.9v-3.07Z"/>
  <polygon class="cls-2" points="136.88 54.26 132.84 58.73 132.84 61.14 131.61 61.14 131.61 58.73 127.59 54.26 129.06 54.26 132.26 57.8 135.38 54.26 136.88 54.26"/>
  <path class="cls-2" d="m138.52,56.16c0-1.56.94-1.9,2.52-1.9h6.19v1.12h-6.85c-.36,0-.63.27-.63.58v3.46c0,.31.27.58.63.58h6.93v1.12h-6.27c-1.57,0-2.52-.34-2.52-1.9v-3.07Z"/>
  <polygon class="cls-2" points="150.79 54.26 150.79 60.02 157.19 60.02 157.19 61.14 149.56 61.14 149.56 54.26 150.79 54.26"/>
  <polygon class="cls-2" points="168.28 60.02 168.28 61.14 159.44 61.14 159.44 54.26 168.2 54.26 168.2 55.38 160.67 55.38 160.67 57.06 167.41 57.06 167.41 58.19 160.67 58.19 160.67 60.02 168.28 60.02"/>
  <path class="cls-2" d="m170.23,60.02h7.72c.45,0,.63-.16.63-.55v-.6c0-.43-.18-.6-.63-.6h-6.3c-1.12,0-1.57-.46-1.57-1.65v-.63c0-1.23.49-1.72,1.72-1.72h7.36v1.12h-7.33c-.45,0-.63.16-.63.58v.61c0,.39.18.55.63.55h5.7c1.56,0,2.17.51,2.17,1.74v.61c0,1.18-.52,1.65-1.84,1.65h-7.63v-1.12Z"/>
  <path class="cls-1" d="m124.37,49.36c-2.36,0-3.56-.43-3.56-2.72v-4.29c0-2.14,1.07-2.83,3.24-2.83h9.33v1.59h-9.97c-.45,0-.9.39-.9.84v4.93c0,.45.45.9.9.9h8.94v-2.66h-5.19v-1.59h6.88v5.83h-9.67Z"/>
  <path class="cls-1" d="m79.48,39.52h-10.02v9.84h1.74v-3.05h8.28c1.99,0,3.11-.73,3.11-2.79v-1.12c0-2.02-1.12-2.9-3.11-2.9m1.42,4.42c0,.43-.45.79-.9.79h-8.79v-3.62h8.79c.45,0,.9.39.9.84v1.99Z"/>
  <polygon class="cls-1" points="98.97 41.1 98.97 39.52 86.45 39.52 86.45 49.36 98.97 49.36 98.97 47.77 88.15 47.77 88.15 45.11 97.78 45.11 97.78 43.53 88.15 43.53 88.15 41.1 98.97 41.1"/>
  <polygon class="cls-1" points="150.8 41.1 150.8 39.52 138.28 39.52 138.28 49.36 150.8 49.36 150.8 47.77 139.97 47.77 139.97 45.11 149.6 45.11 149.6 43.53 139.97 43.53 139.97 41.1 150.8 41.1"/>
  <path class="cls-1" d="m106.78,49.36c-2.21,0-3.56-.49-3.56-2.72v-7.12h1.69v7.42c0,.45.39.84.9.84h8.15c.51,0,.86-.39.86-.84v-7.42h1.74v7.12c0,2.25-1.18,2.72-3.56,2.72h-6.22Z"/>
  <path class="cls-1" d="m157.64,41.1c-.51,0-.9.39-.9.9v4.87c0,.45.39.9.9.9h8.43c.45,0,.9-.45.9-.9v-4.87c0-.51-.45-.9-.9-.9h-8.43Zm.97,8.26c-2.36,0-3.56-.39-3.56-2.72v-4.4c0-2.21,1.09-2.72,3.56-2.72h6.5c2.14,0,3.56.47,3.56,2.72v4.4c0,2.21-1.22,2.72-3.56,2.72h-6.5Z"/>
  <polygon class="cls-1" points="185 39.52 171.81 39.52 171.81 41.1 177.56 41.1 177.56 49.36 179.3 49.36 179.3 41.1 185 41.1 185 39.52"/>
  <path class="cls-1" d="m35.64,73c-6.04-2.81-11.28-7.41-14.77-12.95-3.48-5.54-5.32-11.99-5.77-20.29-.15-2.68-.15-6.04,0-10.26l.03-.89.88-.15c6.68-1.11,13.43-1.68,20.08-1.68s13.41.57,20.08,1.68l.88.15.03.89c.15,4.22.15,7.58,0,10.26-.45,8.3-2.28,14.75-5.77,20.29-3.48,5.55-8.73,10.15-14.76,12.95l-.46.21-.46-.21Z"/>
  <path class="cls-3" d="m26.77,54.87c-.13.02-.2-.04-.22-.13-.05-.24-.18-1.04-.23-1.28-.02-.13.02-.2.13-.24.58-.19,1.54-.51,2.32-.79.2-.07.26-.15.38-.33.33-.52,1.13-1.94,1.51-2.67.05-.1.05-.23-.01-.33l-.17-.29c-.06-.1-.2-.2-.31-.23-.79-.2-1.84-.46-2.34-.58-.11-.03-.22-.02-.33.01l-.09.03c.76.26,1.41.49,2.23.8.07.03.15.11.17.18l.08.25c.03.1.02.21-.03.3-.35.68-.95,1.59-1.43,2.17-.07.09-.17.15-.27.19-.47.17-1.31.45-1.68.55-.07.02-.11.01-.17-.03-.27-.19-.82-.71-.82-.71,0,0-.05.56-.05.82,0,.03,0,.06.02.08.09.22.26.64.33.86.02.06.03.1.05.16.09.37.35,1.47.35,1.47.04.17.13.22.28.19.19-.04.79-.21,1.04-.29.04-.01.07-.03.1-.06.16-.15.43-.39.43-.39,0,0-.91.22-1.25.29"/>
  <path class="cls-3" d="m28.13,51.51c.31-.37.71-.97,1.06-1.53l-2.52,2.08c.41-.13.97-.32,1.31-.44.06-.02.11-.06.15-.11"/>
  <path class="cls-3" d="m28.19,43.14l-.45.04s-.06.03-.07.07l-.04.53s.02.05.05.04l.46-.1c.05-.01.12-.06.14-.11.06-.13.07-.28.01-.41-.02-.04-.06-.06-.1-.06"/>
  <path class="cls-3" d="m23.8,49.83l.68.8.2-1.39c-.4.06-.76.31-.88.58"/>
  <path class="cls-3" d="m46.11,49.69c-.28-.5-1.67-2.38-3.41-4.19-.06-.07-.14-.12-.22-.16l-.28-.12s.51,2.21.73,3.42c.03.15.1.3.22.41.78.77,1.29,1.37,1.72,2,.19.28.29.6.32.93.12,1.76.06,4.17-.13,5.51-.04.27-.11.37-.28.51-1.68,1.36-4.46,3.76-5.66,4.94-.13.12-.17.18-.25.3-.16.24-.32.59-.32.59,0,0-.28-.87-.35-1.34-.03-.22-.03-.28,0-.51.14-1.02.85-3.36.97-3.71,0-.03.01-.06.01-.09v-.22c-.26.54-1.58,3.51-1.86,4.53-.06.22-.05.3,0,.46.17.49.67,1.71.9,2.21,0,0,.54-1.02.86-1.53.09-.14.2-.27.32-.39.94-.87,4.32-3.69,5.89-4.87.21-.16.28-.27.33-.49.64-2.44.91-5.24.59-7.88-.01-.11-.05-.2-.1-.3"/>
  <path class="cls-3" d="m39.19,42.56c.06-.11.09-.24.07-.37-.05-.31-.13-.67-.2-.94-.01-.05-.05-.09-.09-.12l-.48-.23c-.06-.03-.13-.04-.2-.03-1.15.2-2.36.44-3.27.65-.07.02-.14.06-.18.13l-.28.49s0,.09.04.09c.24.04.73.13.89.16.1.02.14.01.22-.02.58-.24,1.52-.61,2.23-.86.06-.02.12-.02.17,0l.32.1s.09.05.11.09c.09.16.18.33.24.44.04.08.02.19-.05.28-.24.35-.65.89-.93,1.23-.06.08-.08.18-.06.27.16.57.52,1.74.71,2.3.02.07.06.12.11.17l.27.25s-.43-1.98-.53-2.55c-.02-.09-.01-.18.04-.25.23-.33.63-.95.83-1.29"/>
  <path class="cls-3" d="m49.45,44.19c-.03-.15-.08-.21-.21-.31-1.28-.96-3.6-2.31-4.97-2.89-.18-.07-.38-.08-.56-.01-.66.24-1.7.68-2.79,1.19,0,0,.48.04.71.06.12.01.16.01.28-.02.33-.09.93-.24,1.39-.34.23-.05.47,0,.65.14.64.48,1.67,1.31,2.33,1.86.11.1.24.17.38.23,1,.4,1.45.6,1.67.72.16.08.27.23.32.4.26,1.01.44,2.55.53,3.66.02.21-.01.41-.08.61-.28.8-.99,2.13-1.38,2.76-.04.06-.07.1-.14.16-.14.12-.38.32-.56.46-.03.03-.06.07-.06.11,0,.43-.09,1.27-.09,1.27.96-1.21,1.88-2.78,2.69-4.44.07-.14.09-.21.11-.34.19-1.79.08-3.91-.23-5.28"/>
  <path class="cls-3" d="m36.65,65.8c-.23-.51-1.41-3.3-1.73-4.37-.11-.38-.13-.48-.08-.91.27-2.63,1.21-6.8,1.36-7.38.03-.12.03-.15,0-.28-.04-.22-.16-.97-.16-.97-.43.99-1.95,5.07-2.51,7.47-.11.45-.09.57,0,.82.81,2.09,2.86,5.87,3.24,6.44l-.08-.66c0-.06-.02-.12-.05-.18"/>
  <path class="cls-3" d="m34.82,65.97s-.45-.29-.59-.38c-.14-.09-.19-.14-.26-.2-.93-.85-4.21-4.88-5.2-6.63-.16-.29-.21-.43-.2-.73.02-.34.08-.99.15-1.37.04-.24.1-.4.3-.58.56-.51,1.46-1.41,1.93-1.89.21-.21.31-.34.42-.55.43-.81,1.75-3.67,2.19-4.85.08-.21.08-.27.05-.48-.08-.62-.58-2.21-.58-2.21l-.04.53s0,.07,0,.11c.04.23.19,1.14.18,1.61,0,.16,0,.22-.1.39-.66,1.3-3.25,4.78-4.88,6.65-.18.21-.24.35-.29.59-.08.4-.18,1.3-.24,2.02-.03.39,0,.52.24.93.99,1.64,4.34,5.56,5.43,6.47.07.06.15.11.23.16.38.21,1.44.73,1.44.73l-.16-.29s-.03-.04-.04-.05"/>
  <path class="cls-3" d="m29.95,42.6l2.08-.65c.12-.04.23-.12.29-.23l1.11-1.91s0-.1-.06-.1h-.95c-.08.01-.19.03-.26.06-.83.28-2,.8-2.67,1.15-.07.04-.14.1-.2.17l-1,1.23s-.08.07-.12.09l-.65.28s-.06.04-.07.07l-.03.07s1.37-.04,1.83-.08c.25-.02.46-.06.7-.13"/>
  <path class="cls-3" d="m33.77,38.09c2.62-.2,5.64-.14,6.37-.12.11,0,.22.02.32.06l.54.18c-1.32.07-4.5.35-5.78.57l.45.07s.06,0,.1,0c.95-.06,2.82-.12,3.63-.13.2,0,.3.02.51.09.48.18,1.43.62,1.83.82.21.1.35.14.56.15.43.02,1.08.06,1.57.11.13.01.26.05.38.11,1,.5,2.18,1.21,3,1.76.05.03.1.05.16.07l.4.08s-1.29-1.32-1.8-1.77c-.07-.06-.15-.12-.24-.17-1.92-1.1-3.65-1.99-4.62-2.4-.16-.07-.32-.11-.49-.12-2.97-.23-6.08-.17-8.38.03-.16.01-.3.09-.37.21-.09.13-.24.37-.37.58-.07.11-.15.2-.24.28-.41.36-1.11.95-1.55,1.28-.04.03-.06.04-.09.06-.18.13-.79.53-.9.6-.04.03-.05.04-.08.07-.04.05-.22.28-.22.28,1.83-1.03,4.16-2.32,4.96-2.67.12-.05.25-.08.38-.09"/>
  <path class="cls-3" d="m25.23,43.9s-.05.06-.08.08c-1.63,1.16-2.54,1.9-2.9,2.21-.15.14-.29.28-.42.42-.11.12-.14.16-.15.26,0,.08-.01.19-.01.25,0,.03,0,.06.03.09.02.03.15.18.18.21.01.01.04.02.05,0,.24-.17.58-.42.89-.65.02-.02.07-.06.09-.09.05-.09.12-.22.16-.3.03-.05.04-.07.1-.11.06-.04.25-.16.25-.16,0,0-.14.57-.24.77-.03.07-.07.12-.09.14-.24.25-.67.74-.89,1-.07.09-.05.2.01.29.2.3.61.81.87,1.07.08.08.11.12.18.16.1.06.18.08.18.08,0,0,.21-1,.3-1.31.03-.11.1-.19.23-.22,1.07-.27,3.37-.65,3.37-.65-.24-.29-1.05-1.12-1.3-1.34-.07-.06-.14-.1-.24-.11-.3-.03-1.27-.11-1.27-.11,0,0,.08-.09.15-.16.06-.06.09-.08.17-.11,1.2-.41,2.79-1.02,3.73-1.41.2-.08.3-.14.46-.31.07-.07.21-.23.29-.33.02-.02.03-.03.03-.06,0-.03.01-.08.01-.08,0,0-.4.3-.56.41-.14.1-.24.15-.41.19-.33.09-.95.23-1.31.31-.1.02-.15.02-.24,0-.06-.02-.17-.07-.24-.1-.07-.03-.11-.04-.18-.02-.33.07-1.22.29-1.22.29,0,0,.41-.37.44-.39.04-.03.06-.04.12-.07.31-.12.69-.26,1.01-.39.07-.03.1-.07.11-.14.02-.25.09-.69.13-.93.01-.07.03-.1.09-.15.19-.15.88-.68,1.04-.8.01-.01.02-.02.03-.03l.19-.23c-.49.29-1.37.81-1.82,1.09-.19.12-.29.19-.48.34-.02.02-.04.04-.06.06-.12.15-.61.78-.78,1.01"/>
  <path class="cls-3" d="m56.17,29.48c-6.84-1.18-13.58-1.73-20.07-1.73s-13.23.55-20.07,1.73c-.1,2.74-.22,6.97-.02,10.57.44,8.01,2.2,14.23,5.56,19.56,3.34,5.32,8.52,9.9,14.54,12.62,6.01-2.72,11.19-7.29,14.54-12.62,3.35-5.34,5.12-11.56,5.56-19.56.2-3.59.08-7.83-.02-10.57m-.75,10.52c-.43,7.87-2.16,13.97-5.44,19.2-3.28,5.22-8.2,9.54-13.89,12.18-5.68-2.64-10.6-6.96-13.89-12.18-3.28-5.22-5.01-11.32-5.44-19.2-.14-2.57-.14-5.8,0-9.87,6.42-1.07,12.92-1.62,19.32-1.62s12.9.54,19.32,1.62c.14,4.06.14,7.3,0,9.87"/>
  <path class="cls-3" d="m35.28,34.3c-.67,0-1.02-.11-1.02-.77v-1.22c0-.61.31-.81.93-.82.89,0,1.78,0,2.67,0v.45c-.95-.01-1.9-.02-2.85,0-.13,0-.26.11-.26.24v1.41c0,.13.13.26.26.25.85,0,1.7,0,2.56,0v-.76c-.49,0-.99,0-1.48,0v-.45c.66,0,1.31,0,1.97.01v1.66c-.92-.01-1.84-.02-2.76-.01"/>
  <path class="cls-3" d="m22.47,32.2c-.95.1-1.9.21-2.85.33v2.81c.16-.02.33-.04.49-.06v-.87c.78-.1,1.57-.18,2.35-.27.57-.06.89-.3.89-.88v-.32c0-.57-.32-.8-.89-.74m.4,1.22c0,.12-.13.24-.26.25-.83.09-1.67.18-2.5.28v-1.03c.83-.1,1.67-.2,2.5-.28.13-.01.26.08.26.21v.57Z"/>
  <path class="cls-3" d="m28.03,32.19v-.45c-1.19.07-2.38.16-3.57.27v2.81c1.19-.11,2.38-.2,3.57-.27v-.45c-1.03.06-2.06.14-3.09.23v-.76c.91-.08,1.83-.15,2.75-.21v-.45c-.92.06-1.83.13-2.75.21v-.69c1.03-.09,2.06-.16,3.09-.23"/>
  <path class="cls-3" d="m42.83,32.12v-.45c-1.19-.06-2.38-.11-3.58-.13v2.81c1.19.03,2.38.07,3.58.13v-.45c-1.03-.05-2.06-.09-3.09-.12v-.76c.92.03,1.83.06,2.75.11v-.45c-.92-.04-1.83-.08-2.75-.11v-.69c1.03.03,2.06.07,3.09.12"/>
  <path class="cls-3" d="m30.26,34.43c-.63.03-1.02-.09-1.02-.73v-2.03c.16,0,.32-.02.48-.02v2.12c0,.13.11.23.26.23.78-.04,1.55-.07,2.33-.09.15,0,.25-.12.25-.25v-2.12c.17,0,.33,0,.5-.01v2.03c0,.64-.34.78-1.02.8-.59.02-1.18.04-1.78.07"/>
  <path class="cls-3" d="m44.79,32.23c-.15,0-.26.09-.26.24v1.39c0,.13.11.26.26.27.8.05,1.6.11,2.4.18.13.01.26-.11.26-.23v-1.39c0-.15-.13-.27-.26-.28-.8-.07-1.6-.13-2.4-.18m.28,2.37c-.67-.05-1.02-.18-1.02-.84v-1.25c0-.63.31-.76,1.02-.71.62.04,1.24.09,1.85.14.61.05,1.01.22,1.01.86v1.25c0,.63-.35.74-1.01.69-.62-.05-1.24-.1-1.85-.14"/>
  <path class="cls-3" d="m52.58,32.53c-1.25-.16-2.5-.3-3.75-.42v.45c.55.05,1.09.11,1.64.17v2.36c.16.02.33.04.49.06v-2.36c.54.06,1.08.13,1.62.19v-.45Z"/>
</svg>