<?xml version="1.0" encoding="UTF-8"?>
<svg id="Layer_1" data-name="Layer 1" xmlns="http://www.w3.org/2000/svg" viewBox="0 0 200 100">
  <defs>
    <style>
      .cls-1 {
        fill: #fff;
        stroke-width: 0px;
      }
    </style>
  </defs>
  <g>
    <rect class="cls-1" x="146.87" y="62.52" width="2.72" height="2.71"/>
    <path class="cls-1" d="m157.67,64.04c-.83.87-1.88,1.3-3.15,1.3-1.13,0-2.08-.33-2.83-.99-.95-.84-1.43-2.14-1.43-3.9s.48-3.01,1.43-3.88c.73-.66,1.68-.99,2.83-.99,1.28,0,2.33.43,3.15,1.28l-1.61,1.61c-.46-.5-.98-.75-1.54-.75s-1.01.22-1.36.65c-.35.43-.52,1.12-.52,2.08s.17,1.68.52,2.1c.35.43.8.64,1.36.64s1.07-.25,1.54-.75l1.61,1.59Z"/>
    <path class="cls-1" d="m163.33,60.45c0-1.17-.18-1.94-.55-2.3-.28-.28-.65-.42-1.12-.42s-.82.14-1.1.42c-.36.37-.55,1.14-.55,2.3s.18,1.93.55,2.32c.28.28.65.42,1.1.42s.84-.14,1.12-.42c.36-.37.55-1.14.55-2.32m2.38,0c0,.9-.07,1.64-.22,2.21-.15.57-.43,1.07-.86,1.5-.74.78-1.73,1.17-2.96,1.17s-2.18-.39-2.95-1.17c-.39-.4-.67-.89-.83-1.47-.16-.58-.25-1.33-.25-2.24,0-1.68.37-2.91,1.1-3.69.73-.78,1.71-1.17,2.93-1.17s2.18.38,2.93,1.15c.74.77,1.12,2.01,1.12,3.71"/>
    <path class="cls-1" d="m180,65.23h-2.38v-5.76c0-.57-.17-1.03-.51-1.35-.28-.26-.63-.38-1.06-.38s-.78.12-1.06.37c-.35.29-.53.73-.53,1.32v5.82h-2.38v-5.76c0-.57-.17-1.03-.51-1.35-.28-.26-.63-.38-1.06-.38s-.79.13-1.08.38c-.17.15-.3.33-.39.55-.08.22-.13.49-.13.8v5.76h-2.38v-9.53h2.32v.88c.62-.66,1.41-.99,2.38-.99,1.1,0,1.94.4,2.52,1.21.77-.8,1.72-1.21,2.85-1.21.99,0,1.77.28,2.34.84.69.69,1.04,1.6,1.04,2.71v6.09Z"/>
    <path class="cls-1" d="m67.68,65.23h-2.08c-1.44,0-2.56-.46-3.36-1.38-.7-.8-1.05-1.8-1.05-2.98v-7.55h-1.61v-2.9h1.61v-4.51h3.8v4.51h2.69v2.9h-2.69v7.32c0,.92.44,1.38,1.32,1.38h1.38v3.22Z"/>
    <path class="cls-1" d="m77.9,56.19c0-.58-.12-1.13-.35-1.64-.47-1.05-1.32-1.58-2.55-1.58s-2.08.53-2.55,1.58c-.23.53-.35,1.07-.35,1.64h5.8Zm3.75,2.6h-9.54c0,.99.29,1.81.88,2.44.59.63,1.41.95,2.46.95,1.34,0,2.5-.48,3.45-1.43l2.31,2.25c-.8.8-1.64,1.4-2.52,1.8-.88.4-1.97.6-3.28.6-4.7,0-7.05-2.6-7.05-7.82,0-2.4.62-4.32,1.84-5.76,1.17-1.35,2.77-2.02,4.8-2.02s3.71.69,4.92,2.08c1.15,1.33,1.73,3.06,1.73,5.21v1.7Z"/>
    <path class="cls-1" d="m89.6,65.23h-2.17c-1.46,0-2.59-.46-3.4-1.38-.7-.8-1.05-1.8-1.05-2.98v-16.48h3.8v16.24c0,.92.45,1.38,1.35,1.38h1.46v3.22Z"/>
    <path class="cls-1" d="m99.76,57.92c0-1.39-.11-2.35-.32-2.9-.39-.98-1.14-1.46-2.25-1.46s-1.84.49-2.25,1.46c-.21.61-.32,1.57-.32,2.9s.11,2.35.32,2.9c.39.99,1.14,1.49,2.25,1.49s1.84-.5,2.25-1.49c.21-.61.32-1.57.32-2.9m3.8,0c0,1.6-.07,2.77-.2,3.51-.2,1.25-.64,2.23-1.35,2.93-.92.92-2.16,1.38-3.72,1.38s-2.75-.51-3.69-1.52v6.97h-3.8v-20.87h3.69v1.43c.98-1.07,2.24-1.61,3.8-1.61s2.8.46,3.72,1.38c.66.66,1.11,1.64,1.35,2.93.06.37.11.85.15,1.43.04.58.06,1.27.06,2.05"/>
    <path class="cls-1" d="m117.67,65.56h-3.72v-1.4c-.99,1.05-2.26,1.58-3.8,1.58s-2.7-.45-3.6-1.34c-1.04-1.04-1.55-2.48-1.55-4.33v-9.75h3.8v9.22c0,.92.27,1.64.82,2.16.45.41,1.01.61,1.7.61s1.26-.2,1.73-.61c.27-.23.48-.53.61-.88.14-.35.21-.78.21-1.29v-9.22h3.8v15.25Z"/>
    <path class="cls-1" d="m127.62,59.94v-.82h-3.01c-1.42,0-2.14.57-2.14,1.73s.73,1.76,2.19,1.76c1.27,0,2.14-.32,2.61-.97.23-.35.35-.92.35-1.7m3.8,5.62h-3.72v-1.32c-.98.98-2.22,1.46-3.75,1.46-1.7,0-2.98-.44-3.85-1.33-.87-.89-1.3-2.03-1.3-3.44,0-1.29.44-2.35,1.33-3.18.89-.83,2.18-1.24,3.88-1.24h3.6v-.76c0-1.6-.95-2.4-2.84-2.4-1.23,0-2.2.42-2.93,1.26l-2.43-2.37c.7-.8,1.46-1.35,2.28-1.65.82-.3,1.89-.45,3.22-.45,4.33,0,6.5,1.8,6.5,5.38v10.04Z"/>
    <path class="cls-1" d="m146.16,65.56h-3.8v-9.22c0-.92-.27-1.64-.82-2.16-.45-.41-1.01-.61-1.7-.61s-1.26.21-1.73.61c-.27.23-.48.53-.61.88-.14.35-.21.78-.21,1.29v9.22h-3.8v-15.25h3.72v1.4c1-1.05,2.26-1.58,3.8-1.58s2.7.45,3.6,1.34c1.03,1.03,1.55,2.48,1.55,4.33v9.75Z"/>
  </g>
  <path class="cls-1" d="m44.81,39.24c-8.47,0-15.34,6.87-15.34,15.34s6.87,15.34,15.34,15.34,15.34-6.87,15.34-15.34-6.87-15.34-15.34-15.34Zm-.06,25.74c-5.65,0-10.22-4.58-10.22-10.22s4.58-10.22,10.22-10.22,10.22,4.58,10.22,10.22-4.58,10.22-10.22,10.22Z"/>
  <path class="cls-1" d="m37.24,55.36s.69,7.2,7.43,7.45c0,0,6.44.63,7.6-7.45l-3.01.2s-.89,4.86-4.44,4.84c0,0-3.11.17-4.45-4.8-.02-.1.02.1,0,0l-3.13-.24Z"/>
  <path class="cls-1" d="m28.84,28.82c-4.88,0-8.84,3.96-8.84,8.84s3.96,8.84,8.84,8.84,8.84-3.96,8.84-8.84-3.96-8.84-8.84-8.84Zm.05,15.56c-3.7,0-6.69-3-6.69-6.69s3-6.69,6.69-6.69,6.69,3,6.69,6.69-3,6.69-6.69,6.69Z"/>
  <path class="cls-1" d="m24.47,41.32s.4-4.15,4.28-4.3c0,0,3.71-.36,4.38,4.3l-1.74-.11s-.51-2.81-2.56-2.79c0,0-1.79-.1-2.57,2.77-.01.06.01-.06,0,0l-1.8.14Z"/>
</svg>