<?xml version="1.0" encoding="UTF-8"?>
<svg id="Layer_1" data-name="Layer 1" xmlns="http://www.w3.org/2000/svg" viewBox="0 0 200 100">
  <defs>
    <style>
      .cls-1 {
        fill: #e22628;
        fill-rule: evenodd;
        stroke-width: 0px;
      }
    </style>
  </defs>
  <path class="cls-1" d="m36.38,56.21h8.2c-.23,2.36-.96,4.08-2.18,5.15-1.05.91-2.53,1.55-4.48,1.91-1.94.36-4.86.54-8.73.54-3.18,0-5.62-.16-7.33-.46-1.71-.3-3.08-.84-4.11-1.63-1.03-.78-1.75-1.85-2.15-3.2-.4-1.34-.6-3.4-.6-6.17,0-2.14.07-3.73.22-4.76.14-1.05.43-1.98.88-2.8.86-1.74,2.45-2.88,4.76-3.42,1.95-.46,5-.68,9.17-.68,1.83,0,3.39.03,4.67.09,1.29.06,2.31.15,3.07.29,2.63.45,4.45,1.45,5.47,2.98,1.01,1.53,1.52,4.11,1.52,7.75l-.05,2.22h-21.49c0,1.11.07,1.9.2,2.39.14.48.43.89.87,1.22.83.6,2.67.91,5.53.91,1.81,0,3.17-.07,4.09-.2.92-.14,1.56-.38,1.91-.73.27-.27.46-.74.57-1.41h0Zm.12-6.67c0-.84-.06-1.43-.19-1.77-.06-.32-.22-.61-.47-.88-.71-.73-2.61-1.09-5.7-1.09-2.78,0-4.61.24-5.48.73-.46.24-.81.61-1.06,1.11-.25.5-.37,1.13-.37,1.91h13.28Zm14.18-13.35h8.22v5.07h13v5.88h-13v6.4c0,1.72.12,2.8.36,3.25.41.75,1.39,1.13,2.92,1.13s2.58-.36,2.98-1.09c.13-.27.22-.55.27-.84v-2.15h7.51c0,2.06-.13,3.58-.39,4.56-.11.48-.26.93-.46,1.35-.19.42-.46.84-.81,1.26-.81,1.03-1.94,1.75-3.39,2.18-1.46.43-3.6.64-6.45.64-2.67,0-4.64-.14-5.9-.42-1.27-.28-2.3-.82-3.11-1.63-.57-.56-1-1.19-1.27-1.88-.15-.4-.27-.83-.36-1.25-.09-.43-.12-.95-.12-1.56v-9.94h-4.34v-5.88h4.34v-5.07h0Zm23.74,20.07h8.38c0,.89.52,1.53,1.57,1.93.97.35,2.73.52,5.31.52s4.47-.14,5.43-.42c.96-.28,1.44-.82,1.44-1.63,0-.74-.46-1.25-1.39-1.52-.6-.16-2.94-.25-7.01-.25s-6.38-.07-7.33-.2c-2.54-.33-4.28-1.18-5.21-2.53-.68-.99-1.02-2.34-1.02-4.04,0-3.22,1.19-5.34,3.59-6.33,1.83-.74,5.69-1.12,11.6-1.12,3.75,0,6.47.14,8.16.42,1.69.28,3,.81,3.94,1.6.57.49.98,1.07,1.24,1.75.25.68.43,1.68.53,3.01h-8.37c-.14-.54-.33-.89-.57-1.04-.35-.22-.95-.37-1.78-.48-.84-.1-1.98-.16-3.39-.16-2.6,0-4.37.13-5.31.39-.94.26-1.41.73-1.41,1.4,0,.87.66,1.36,1.98,1.48,1.54.05,3.37.09,5.49.12,2.11.04,4.02.05,5.72.05,3.07,0,5.3.51,6.69,1.53,1.39,1.02,2.08,2.8,2.08,5.32,0,1.63-.27,2.98-.81,4.03-.55,1.05-1.4,1.84-2.57,2.35-.95.44-2.45.77-4.5,1-2.05.22-4.65.34-7.79.34-3.98,0-6.86-.16-8.63-.47-.88-.15-1.65-.37-2.32-.66-.66-.29-1.26-.67-1.79-1.16-.64-.57-1.12-1.29-1.44-2.15-.33-.86-.49-1.9-.49-3.11h0Zm36.67-19.89h3.4v5.34h15.07v2.91h-15.07v9.35c0,.94.02,1.73.05,2.38.03.65.08,1.15.13,1.52.06.36.29.78.66,1.25.38.47,1.01.84,1.88,1.09.88.21,2.12.32,3.73.32.8,0,1.46-.02,1.99-.07.53-.05.98-.12,1.34-.25.68-.21,1.22-.6,1.63-1.15.24-.38.41-.84.5-1.39.09-.56.14-1.48.14-2.78v-1.36h3.39v1.36c0,1.7-.08,2.95-.22,3.78-.15.82-.46,1.56-.91,2.23-.63.92-1.57,1.6-2.83,2.01-1.26.42-3.03.63-5.3.63s-4.14-.19-5.45-.56c-1.3-.37-2.28-.99-2.93-1.87-.45-.64-.77-1.37-.95-2.21-.08-.37-.13-.88-.18-1.53-.05-.64-.07-1.39-.07-2.26v-10.48h-5.29v-2.91h5.29v-5.34h0Zm21.14,5.34h3.4v10.92c0,1.04.02,1.91.07,2.6.05.69.12,1.27.25,1.74.21.88.62,1.57,1.22,2.09.6.51,1.47.88,2.6,1.12,1.12.23,2.67.35,4.64.35,1.32,0,2.47-.05,3.45-.14.98-.09,1.84-.24,2.57-.45,1.42-.38,2.5-1.03,3.25-1.95.43-.51.74-1.19.93-2.02.18-.83.27-2.03.27-3.6v-10.64h3.4v21.54h-3.4v-3.22h-.2c-.87,1.36-2.01,2.29-3.46,2.79-.71.22-1.67.4-2.86.53-1.19.12-2.64.18-4.33.18-2.63,0-4.69-.16-6.19-.48-1.49-.32-2.66-.84-3.52-1.59-.77-.66-1.32-1.58-1.63-2.74-.15-.57-.27-1.28-.34-2.1-.08-.82-.12-1.82-.12-2.98v-11.92h0Zm29.78,0h3.4v2.91h.22c.52-.94,1.32-1.7,2.43-2.29.64-.32,1.49-.54,2.56-.68,1.08-.13,2.67-.2,4.79-.2s3.72.12,4.76.35c1.04.24,1.92.67,2.65,1.29,1.45,1.26,2.18,3.29,2.18,6.1v2.22h-3.49v-1.54c0-1.21-.09-2.11-.25-2.7-.14-.61-.42-1.12-.84-1.53-.88-.8-2.67-1.2-5.38-1.2-4.11,0-6.74.53-7.9,1.61-.57.53-1.01,1.39-1.29,2.59-.29,1.19-.43,2.75-.43,4.67v9.94h-3.4v-21.54h0Z"/>
</svg>