<?xml version="1.0" encoding="UTF-8"?>
<svg id="Layer_1" data-name="Layer 1" xmlns="http://www.w3.org/2000/svg" viewBox="0 0 841.89 595.28">
  <defs>
    <style>
      .cls-1 {
        fill: #f05023;
        stroke-width: 0px;
      }
    </style>
  </defs>
  <path class="cls-1" d="m486.59,307.7c0,17.75-6.42,34.91-18,46.54-11.58,11.63-28.67,16.02-46.34,16.02s-33.32-5.84-44.9-17.47c-11.58-11.63-19.92-27.35-19.92-45.1s9.01-32.8,20.59-44.43c11.58-11.63,26.57-18.92,44.24-18.92s34.69,5.25,46.27,16.88,18.07,28.73,18.07,46.47Z"/>
  <path class="cls-1" d="m722.84,175.94c0,21.77-8.03,42.1-22.23,56.37-14.2,14.26-34.45,21.72-56.12,21.72s-42.59-6.78-56.79-21.04c-14.2-14.26-24.57-35.28-24.57-57.05s12.85-40.29,27.05-54.55c14.2-14.26,32.64-25.93,54.31-25.93s41.51,10.26,55.71,24.53c14.2,14.26,22.64,34.19,22.64,55.96Z"/>
  <path class="cls-1" d="m257.99,162.25c0,19.95-7.57,36.31-20.59,49.38-13.01,13.07-29.31,21.66-49.17,21.66s-35.8-8.94-48.82-22.01c-13.01-13.07-25.04-29.09-25.04-49.03s9.79-38.21,22.8-51.28c13.01-13.07,31.2-18.57,51.06-18.57s38.02,5.52,51.03,18.59c13.01,13.07,18.72,31.31,18.72,51.26Z"/>
  <path class="cls-1" d="m279.63,390.24c0,17.13-5.78,31.56-16.96,42.79-11.18,11.23-25.54,20.65-42.6,20.65s-33.6-7.25-44.77-18.47c-11.18-11.23-17.56-27.84-17.56-44.97s6.21-33.91,17.39-45.14c11.18-11.23,27.88-14.71,44.94-14.71s34.08,3.16,45.26,14.38c11.18,11.23,14.29,28.33,14.29,45.46Z"/>
  <path class="cls-1" d="m500.16,397.55c0,18.87-16.25,34.7-35.04,34.7s-34.2-15.83-34.2-34.7,15.41-34.57,34.2-34.57,35.04,15.7,35.04,34.57Z"/>
  <path class="cls-1" d="m156.44,243.72c0,18.78-14.7,35.05-33.4,35.05s-34.95-16.27-34.95-35.05,16.25-34.29,34.95-34.29,33.4,15.51,33.4,34.29Z"/>
  <path class="cls-1" d="m799.85,461.4c0,25.26-22.2,47.1-47.35,47.1s-47.32-21.84-47.32-47.1,22.18-46.15,47.32-46.15,47.35,20.89,47.35,46.15Z"/>
  <path class="cls-1" d="m640,285.13c0,19.98-16.51,36.87-36.4,36.87s-35.48-16.89-35.48-36.87,15.58-36.42,35.48-36.42,36.4,16.44,36.4,36.42Z"/>
  <path class="cls-1" d="m561.41,171.6c0,20.46-17.46,37.5-37.83,37.5s-37.54-17.04-37.54-37.5,17.17-35.75,37.54-35.75,37.83,15.3,37.83,35.75Z"/>
  <path class="cls-1" d="m710.71,272.87c0,13.77-11.02,24.77-24.73,24.77s-25.47-11-25.47-24.77,11.76-25.29,25.47-25.29,24.73,11.52,24.73,25.29Z"/>
  <path class="cls-1" d="m484.92,203.84c0,12.95-10.26,23.31-23.15,23.31s-23.8-10.36-23.8-23.31,10.91-22.71,23.8-22.71,23.15,9.76,23.15,22.71Z"/>
  <path class="cls-1" d="m492.44,132.1c0,9.32-7.45,17.15-16.73,17.15s-16.28-7.83-16.28-17.15,7.01-16.3,16.28-16.3,16.73,6.98,16.73,16.3Z"/>
  <path class="cls-1" d="m177.08,333.77c0,4.56-3.95,7.98-8.49,7.98s-8.16-3.42-8.16-7.98,3.63-7.97,8.16-7.97,8.49,3.42,8.49,7.97Z"/>
  <path class="cls-1" d="m720.32,366.42c0,7.14-6.18,12.59-13.3,12.59s-12.88-5.44-12.88-12.59,5.77-12.74,12.88-12.74,13.3,5.59,13.3,12.74Z"/>
  <path class="cls-1" d="m461.08,145.38c0,7.28-6.1,12.67-13.35,12.67s-12.94-5.39-12.94-12.67,5.7-13.17,12.94-13.17,13.35,5.89,13.35,13.17Z"/>
  <path class="cls-1" d="m260.32,478.92c0,14.11-11.04,25.43-25.09,25.43s-26.23-11.32-26.23-25.43,12.19-24.69,26.23-24.69,25.09,10.58,25.09,24.69Z"/>
  <path class="cls-1" d="m580.48,237.63c0,17.52-14.03,32.16-31.48,32.16s-31.05-14.64-31.05-32.16,13.61-32.02,31.05-32.02,31.48,14.5,31.48,32.02Z"/>
  <path class="cls-1" d="m144.97,299.01c0,10.16-7.69,17.96-17.81,17.96s-18.84-7.8-18.84-17.96,8.72-18.55,18.84-18.55,17.81,8.38,17.81,18.55Z"/>
  <path class="cls-1" d="m520.52,348.78c0,11.59-9.14,21.56-20.68,21.56s-20.82-9.98-20.82-21.56,9.29-21.28,20.82-21.28,20.68,9.69,20.68,21.28Z"/>
  <path class="cls-1" d="m794.8,384.57c0,7.34-6.01,13.43-13.32,13.43s-13.52-6.09-13.52-13.43,6.21-13.41,13.52-13.41,13.32,6.07,13.32,13.41Z"/>
  <path class="cls-1" d="m482.49,456.45c0,12.03-10.04,21.76-22.01,21.76s-21.85-9.74-21.85-21.76,9.88-22.06,21.85-22.06,22.01,10.04,22.01,22.06Z"/>
  <path class="cls-1" d="m520.89,256.11c0,13.07-10.64,23.89-23.65,23.89s-22.94-10.82-22.94-23.89,9.93-22.77,22.94-22.77,23.65,9.7,23.65,22.77Z"/>
  <path class="cls-1" d="m574.8,131.78c0,8.07-6.11,14.28-14.14,14.28s-14.46-6.22-14.46-14.28,6.43-14.97,14.46-14.97,14.14,6.9,14.14,14.97Z"/>
  <path class="cls-1" d="m511.68,217.95c0,7.16-6.12,13.06-13.25,13.06s-12.56-5.9-12.56-13.06,5.43-12.67,12.56-12.67,13.25,5.51,13.25,12.67Z"/>
  <path class="cls-1" d="m180.56,74.93c0,9.99-8.31,17.95-18.26,17.95s-17.49-7.96-17.49-17.95,7.54-18.26,17.49-18.26,18.26,8.27,18.26,18.26Z"/>
  <path class="cls-1" d="m279.49,451.13c0,7.36-5.67,13.72-13,13.72s-13.78-6.36-13.78-13.72,6.45-13.7,13.78-13.7,13,6.34,13,13.7Z"/>
  <path class="cls-1" d="m287.4,159.83c0,7.34-5.5,13.72-12.82,13.72s-13.76-6.38-13.76-13.72,6.45-13.43,13.76-13.43,12.82,6.08,12.82,13.43Z"/>
  <path class="cls-1" d="m759.16,117.74c0,13.84-12.11,25.56-25.89,25.56s-25.29-11.72-25.29-25.56,11.52-24.91,25.29-24.91,25.89,11.07,25.89,24.91Z"/>
  <path class="cls-1" d="m254.47,520.76c0,8.47-6.4,15.23-14.84,15.23s-14.78-6.76-14.78-15.23,6.34-15.54,14.78-15.54,14.84,7.07,14.84,15.54Z"/>
  <path class="cls-1" d="m403.56,229.56c0,7.23-5.36,12.73-12.56,12.73s-13.47-5.5-13.47-12.73,6.27-13.03,13.47-13.03,12.56,5.79,12.56,13.03Z"/>
  <path class="cls-1" d="m665.23,295.85c0,6.78-5.36,12.25-12.1,12.25s-11.96-5.47-11.96-12.25,5.21-12.62,11.96-12.62,12.1,5.84,12.1,12.62Z"/>
  <path class="cls-1" d="m434.36,203.14c0,8.6-7.49,16.11-16.05,16.11s-16.05-7.51-16.05-16.11,7.48-15.04,16.05-15.04,16.05,6.44,16.05,15.04Z"/>
  <path class="cls-1" d="m824.75,530.3c0,4.76-3.79,8.31-8.52,8.31s-8.86-3.55-8.86-8.31,4.12-8.37,8.86-8.37,8.52,3.61,8.52,8.37Z"/>
  <path class="cls-1" d="m29.06,305.47c0,3.32-2.58,6.15-5.89,6.15s-6.03-2.83-6.03-6.15,2.73-6.1,6.03-6.1,5.89,2.78,5.89,6.1Z"/>
  <path class="cls-1" d="m396.96,92.05c0,13.83-10.5,25.56-24.27,25.56s-24.79-11.73-24.79-25.56,11.02-25.16,24.79-25.16,24.27,11.33,24.27,25.16Z"/>
  <path class="cls-1" d="m680.21,312.15c0,4.76-3.79,8.31-8.52,8.31s-8.86-3.55-8.86-8.31,4.12-8.37,8.86-8.37,8.52,3.61,8.52,8.37Z"/>
  <path class="cls-1" d="m358.11,119.22c0,4.76-3.79,8.31-8.52,8.31s-8.86-3.55-8.86-8.31,4.12-8.37,8.86-8.37,8.52,3.61,8.52,8.37Z"/>
  <path class="cls-1" d="m756.34,231.53c0,4.76-3.79,8.31-8.52,8.31s-8.86-3.55-8.86-8.31,4.12-8.37,8.86-8.37,8.52,3.61,8.52,8.37Z"/>
  <path class="cls-1" d="m484.13,173.37c0,4.76-3.79,8.31-8.52,8.31s-8.86-3.55-8.86-8.31,4.12-8.37,8.86-8.37,8.52,3.61,8.52,8.37Z"/>
  <path class="cls-1" d="m443.09,184.68c0,4.76-3.79,8.31-8.52,8.31s-8.86-3.55-8.86-8.31,4.12-8.37,8.86-8.37,8.52,3.61,8.52,8.37Z"/>
  <path class="cls-1" d="m441.15,161.43c0,3.32-2.58,6.15-5.89,6.15s-6.03-2.83-6.03-6.15,2.73-6.1,6.03-6.1,5.89,2.78,5.89,6.1Z"/>
  <path class="cls-1" d="m415.12,223.72c0,3.32-2.58,6.15-5.89,6.15s-6.03-2.83-6.03-6.15,2.73-6.1,6.03-6.1,5.89,2.78,5.89,6.1Z"/>
  <path class="cls-1" d="m441.3,220.41c0,3.32-2.58,6.15-5.89,6.15s-6.03-2.83-6.03-6.15,2.73-6.1,6.03-6.1,5.89,2.78,5.89,6.1Z"/>
  <path class="cls-1" d="m119.66,98.63c0,3.32-2.58,6.15-5.89,6.15s-6.03-2.83-6.03-6.15,2.73-6.1,6.03-6.1,5.89,2.78,5.89,6.1Z"/>
  <path class="cls-1" d="m156.2,314.28c0,3.32-2.58,6.15-5.89,6.15s-6.03-2.83-6.03-6.15,2.73-6.1,6.03-6.1,5.89,2.78,5.89,6.1Z"/>
  <path class="cls-1" d="m120.05,199.61c0,4.56-3.95,7.98-8.49,7.98s-8.16-3.42-8.16-7.98,3.63-7.97,8.16-7.97,8.49,3.42,8.49,7.97Z"/>
  <path class="cls-1" d="m200.48,82.17c0,4.56-3.95,7.98-8.49,7.98s-8.16-3.42-8.16-7.98,3.63-7.97,8.16-7.97,8.49,3.42,8.49,7.97Z"/>
  <path class="cls-1" d="m147.06,92.44c0,7.34-5.5,13.72-12.82,13.72s-13.76-6.38-13.76-13.72,6.45-13.43,13.76-13.43,12.82,6.08,12.82,13.43Z"/>
  <path class="cls-1" d="m183.25,244.5c0,7.23-5.36,12.73-12.56,12.73s-13.47-5.5-13.47-12.73,6.27-13.03,13.47-13.03,12.56,5.79,12.56,13.03Z"/>
  <path class="cls-1" d="m417.82,75.18c0,6.78-5.36,12.25-12.1,12.25s-11.96-5.47-11.96-12.25,5.21-12.62,11.96-12.62,12.1,5.84,12.1,12.62Z"/>
  <path class="cls-1" d="m744.91,245.53c0,3.32-2.58,6.15-5.89,6.15s-6.03-2.83-6.03-6.15,2.73-6.1,6.03-6.1,5.89,2.78,5.89,6.1Z"/>
</svg>