<?xml version="1.0" encoding="UTF-8"?>
<svg id="Layer_1" xmlns="http://www.w3.org/2000/svg" version="1.1" viewBox="0 0 1920 1080">
  <!-- Generator: Adobe Illustrator 30.1.0, SVG Export Plug-In . SVG Version: 2.1.1 Build 136)  -->
  <defs>
    <style>
      .st0 {
        fill: #979797;
      }

      .st1 {
        fill: #b1b1b1;
      }

      .st2 {
        fill: #fff;
      }

      .st3 {
        fill: #211f21;
      }

      .st4 {
        fill: #c4c2c2;
      }
    </style>
  </defs>
  <rect class="st3" width="1920" height="1080"/>
  <path class="st2" d="M333.47,309.6l-26.11-89.83h6.95l23.45,80.65,25.05-80.65h7.94l25.15,80.98,23.24-80.98h6.95l-25.81,89.83h-8.21l-25.29-81.44-25.43,81.44h-7.87Z"/>
  <path class="st2" d="M464.18,244.02c9.41,0,17.05,3.34,22.91,10.01,5.86,6.67,8.79,14.59,8.79,23.74,0,.34-.02.86-.06,1.54-.04.69-.06,1.2-.06,1.54h-58.14c.77,7.19,3.66,12.98,8.66,17.39,5,4.41,11.19,6.61,18.54,6.61,5.13,0,9.63-1.07,13.48-3.21,3.85-2.14,6.76-4.96,8.73-8.47l5.65,3.34c-2.65,4.45-6.42,7.98-11.29,10.59-4.88,2.61-10.44,3.91-16.68,3.91-9.84,0-17.92-3.14-24.26-9.43-6.33-6.29-9.5-14.31-9.5-24.06s3.1-17.56,9.3-23.93c6.2-6.37,14.18-9.56,23.93-9.56ZM464.18,250.18c-7.27,0-13.35,2.27-18.22,6.8-4.88,4.54-7.66,10.4-8.34,17.58h51.59c-.69-7.61-3.4-13.58-8.15-17.9-4.75-4.32-10.38-6.48-16.88-6.48Z"/>
  <path class="st2" d="M607.27,245.44h6.42v61.09c0,9.32-3.04,16.68-9.11,22.07-6.08,5.39-13.69,8.08-22.84,8.08-7.36,0-13.65-1.37-18.87-4.11-5.22-2.74-9.03-6.5-11.42-11.29l5.65-3.21c4.11,8.3,12.32,12.45,24.64,12.45,7.96,0,14.2-2.16,18.74-6.48,4.53-4.32,6.8-10.16,6.8-17.52v-11.81c-2.65,5.05-6.4,9.03-11.23,11.94-4.83,2.91-10.29,4.36-16.36,4.36-9.24,0-17.09-3.23-23.55-9.69-6.46-6.46-9.69-14.39-9.69-23.81s3.23-17.35,9.69-23.81c6.46-6.46,14.31-9.69,23.55-9.69,6.07,0,11.53,1.46,16.36,4.36,4.83,2.91,8.58,6.89,11.23,11.94v-14.89ZM560.75,296.9c5.26,5.31,11.7,7.96,19.31,7.96s14.05-2.65,19.31-7.96c5.26-5.3,7.89-11.76,7.89-19.38s-2.63-14.07-7.89-19.38c-5.26-5.3-11.7-7.96-19.31-7.96s-14.05,2.65-19.31,7.96c-5.26,5.31-7.89,11.76-7.89,19.38s2.63,14.07,7.89,19.38Z"/>
  <path class="st2" d="M665.41,311.02c-9.41,0-17.39-3.23-23.93-9.69-6.54-6.46-9.82-14.39-9.82-23.81s3.27-17.35,9.82-23.81c6.54-6.46,14.52-9.69,23.93-9.69s17.26,3.23,23.81,9.69c6.55,6.46,9.82,14.4,9.82,23.81s-3.27,17.35-9.82,23.81c-6.54,6.46-14.48,9.69-23.81,9.69ZM646.09,296.9c5.26,5.31,11.7,7.96,19.31,7.96s14.03-2.65,19.25-7.96c5.22-5.3,7.83-11.76,7.83-19.38s-2.61-14.07-7.83-19.38c-5.22-5.3-11.64-7.96-19.25-7.96s-14.05,2.65-19.31,7.96c-5.26,5.31-7.89,11.76-7.89,19.38s2.63,14.07,7.89,19.38Z"/>
  <path class="st2" d="M786.68,251.72h-19.12v41.71c0,3.68.68,6.33,2.05,7.96,1.37,1.63,3.46,2.55,6.29,2.76,2.82.21,6.42.11,10.78-.32v5.77c-8.64,1.28-15.08.68-19.31-1.8-4.23-2.48-6.35-7.27-6.35-14.37v-41.71h-14.12v-6.29h14.12v-16.04l6.55-1.92v17.97h19.12v6.29Z"/>
  <path class="st2" d="M834.04,244.02c7.61,0,13.67,2.33,18.16,6.99,4.49,4.66,6.74,10.89,6.74,18.67v39.91h-6.54v-39.91c0-5.99-1.65-10.74-4.94-14.25-3.29-3.51-7.94-5.26-13.92-5.26-6.59,0-11.98,2.18-16.17,6.54-4.19,4.36-6.29,10.7-6.29,18.99v33.88h-6.42v-89.83h6.42v37.86c4.62-9.07,12.28-13.6,22.97-13.6Z"/>
  <path class="st2" d="M908.47,244.02c9.41,0,17.05,3.34,22.91,10.01,5.86,6.67,8.79,14.59,8.79,23.74,0,.34-.02.86-.06,1.54-.04.69-.06,1.2-.06,1.54h-58.14c.77,7.19,3.66,12.98,8.66,17.39,5,4.41,11.19,6.61,18.54,6.61,5.13,0,9.63-1.07,13.48-3.21,3.85-2.14,6.76-4.96,8.73-8.47l5.65,3.34c-2.65,4.45-6.42,7.98-11.29,10.59-4.88,2.61-10.44,3.91-16.68,3.91-9.84,0-17.92-3.14-24.26-9.43-6.33-6.29-9.5-14.31-9.5-24.06s3.1-17.56,9.3-23.93c6.2-6.37,14.18-9.56,23.93-9.56ZM908.47,250.18c-7.27,0-13.35,2.27-18.22,6.8-4.88,4.54-7.66,10.4-8.34,17.58h51.59c-.69-7.61-3.4-13.58-8.15-17.9-4.75-4.32-10.38-6.48-16.88-6.48Z"/>
  <path class="st2" d="M1023.46,244.02c9.41,0,17.05,3.34,22.91,10.01,5.86,6.67,8.79,14.59,8.79,23.74,0,.34-.02.86-.06,1.54-.04.69-.06,1.2-.06,1.54h-58.14c.77,7.19,3.66,12.98,8.66,17.39,5,4.41,11.18,6.61,18.54,6.61,5.13,0,9.62-1.07,13.48-3.21,3.85-2.14,6.76-4.96,8.73-8.47l5.65,3.34c-2.65,4.45-6.42,7.98-11.29,10.59-4.88,2.61-10.44,3.91-16.68,3.91-9.84,0-17.92-3.14-24.26-9.43-6.33-6.29-9.5-14.31-9.5-24.06s3.1-17.56,9.3-23.93c6.2-6.37,14.18-9.56,23.93-9.56ZM1023.46,250.18c-7.27,0-13.35,2.27-18.22,6.8-4.88,4.54-7.66,10.4-8.34,17.58h51.59c-.69-7.61-3.4-13.58-8.15-17.9-4.75-4.32-10.38-6.48-16.88-6.48Z"/>
  <path class="st2" d="M1122.28,309.6h-7.83l-21.69-28.02-21.69,28.02h-7.83l25.63-33.04-24.09-31.13h7.83l20.19,26.08,20.24-26.08h7.7l-24.06,31.09,25.6,33.08Z"/>
  <path class="st2" d="M1170.66,251.72h-19.12v41.71c0,3.68.68,6.33,2.05,7.96,1.37,1.63,3.46,2.55,6.29,2.76,2.82.21,6.42.11,10.78-.32v5.77c-8.64,1.28-15.08.68-19.31-1.8s-6.35-7.27-6.35-14.37v-41.71h-14.12v-6.29h14.12v-16.04l6.54-1.92v17.97h19.12v6.29Z"/>
  <path class="st2" d="M1195.04,258.01c3.85-8.98,10.99-13.48,21.43-13.48v6.16c-6.08,0-11.17,1.95-15.27,5.84-4.11,3.89-6.16,9.69-6.16,17.39v35.68h-6.42v-64.17h6.42v12.58Z"/>
  <path class="st2" d="M1284.62,245.44h6.54v64.17h-6.54v-14.5c-2.74,4.96-6.5,8.86-11.29,11.68-4.79,2.82-10.22,4.23-16.3,4.23-9.16,0-16.98-3.23-23.49-9.69-6.5-6.46-9.75-14.39-9.75-23.81s3.25-17.35,9.75-23.81c6.5-6.46,14.33-9.69,23.49-9.69,6.07,0,11.51,1.41,16.3,4.24,4.79,2.82,8.55,6.72,11.29,11.68v-14.5ZM1238.23,296.9c5.26,5.31,11.7,7.96,19.31,7.96s14.03-2.65,19.25-7.96c5.22-5.3,7.83-11.76,7.83-19.38s-2.61-14.07-7.83-19.38c-5.22-5.3-11.64-7.96-19.25-7.96s-14.05,2.65-19.31,7.96c-5.26,5.31-7.89,11.76-7.89,19.38s2.63,14.07,7.89,19.38Z"/>
  <path class="st2" d="M1418.86,244.02c7.01,0,12.66,2.18,16.94,6.55,4.28,4.36,6.42,10.48,6.42,18.35v40.68h-6.42v-40.68c0-5.99-1.56-10.61-4.68-13.86-3.12-3.25-7.25-4.88-12.38-4.88-5.73,0-10.38,1.97-13.92,5.9-3.55,3.94-5.33,9.84-5.33,17.71v35.81h-6.42v-40.68c0-5.99-1.48-10.61-4.43-13.86-2.95-3.25-6.95-4.88-12-4.88-5.65,0-10.38,1.99-14.18,5.97-3.81,3.98-5.71,9.86-5.71,17.65v35.81h-6.42v-64.17h6.42v11.04c4.45-8.3,11.33-12.45,20.66-12.45,4.71,0,8.81,1.14,12.32,3.4,3.51,2.27,6.07,5.5,7.7,9.69,2.22-4.36,5.24-7.64,9.05-9.82,3.81-2.18,7.93-3.27,12.38-3.27Z"/>
  <path class="st2" d="M1469.68,228.43c-1.03.98-2.23,1.48-3.59,1.48s-2.57-.49-3.59-1.48c-1.03-.98-1.54-2.2-1.54-3.66,0-1.37.51-2.54,1.54-3.53,1.03-.98,2.22-1.48,3.59-1.48s2.57.49,3.59,1.48c1.03.98,1.54,2.16,1.54,3.53,0,1.46-.51,2.67-1.54,3.66ZM1462.88,309.6v-64.17h6.42v64.17h-6.42Z"/>
  <path class="st2" d="M1491.63,309.6v-93.68h6.42v93.68h-6.42Z"/>
  <path class="st2" d="M1549.25,244.02c9.41,0,17.05,3.34,22.91,10.01,5.86,6.67,8.79,14.59,8.79,23.74,0,.34-.02.86-.06,1.54-.04.69-.06,1.2-.06,1.54h-58.14c.77,7.19,3.66,12.98,8.66,17.39,5,4.41,11.18,6.61,18.54,6.61,5.13,0,9.62-1.07,13.48-3.21,3.85-2.14,6.76-4.96,8.73-8.47l5.65,3.34c-2.65,4.45-6.42,7.98-11.29,10.59-4.88,2.61-10.44,3.91-16.68,3.91-9.84,0-17.92-3.14-24.26-9.43-6.33-6.29-9.5-14.31-9.5-24.06s3.1-17.56,9.3-23.93c6.2-6.37,14.18-9.56,23.93-9.56ZM1549.25,250.18c-7.27,0-13.35,2.27-18.22,6.8-4.88,4.54-7.66,10.4-8.34,17.58h51.59c-.69-7.61-3.4-13.58-8.15-17.9-4.75-4.32-10.38-6.48-16.88-6.48Z"/>
  <path class="st2" d="M1606.87,309.22c-1.11,1.11-2.48,1.67-4.11,1.67s-3-.56-4.11-1.67c-1.11-1.11-1.67-2.48-1.67-4.11s.56-2.99,1.67-4.11c1.11-1.11,2.48-1.67,4.11-1.67s2.99.56,4.11,1.67c1.11,1.11,1.67,2.48,1.67,4.11s-.56,3-1.67,4.11ZM1600.2,286.5l-1.28-41.07v-25.67h7.7v25.67l-1.28,41.07h-5.13Z"/>
  <path class="st1" d="M870.89,447.34l-2.6-7.15h-14.32l-2.6,7.15h-4.51l11.88-31.86h4.78l11.88,31.86h-4.51ZM855.41,436.23h11.44l-5.72-15.73-5.72,15.73Z"/>
  <path class="st1" d="M891.15,428.41h-6.05v12.33c0,1.12.22,1.92.66,2.39.44.47,1.11.71,2.02.73.91.02,2.03,0,3.37-.07v3.55c-3.46.46-5.99.17-7.6-.84-1.61-1.02-2.41-2.94-2.41-5.76v-12.33h-4.51v-3.82h4.51v-5.19l3.96-1.18v6.37h6.05v3.82Z"/>
  <path class="st1" d="M911.17,420.44c-.76,0-1.4-.26-1.91-.77-.52-.52-.77-1.14-.77-1.87s.26-1.36.77-1.89c.52-.53,1.15-.8,1.91-.8s1.35.27,1.87.8c.52.53.77,1.16.77,1.89s-.26,1.35-.77,1.87c-.52.52-1.14.77-1.87.77ZM909.17,447.34v-22.75h3.96v22.75h-3.96Z"/>
  <path class="st1" d="M932.47,428.41h-6.05v12.33c0,1.12.22,1.92.66,2.39.44.47,1.11.71,2.02.73.91.02,2.03,0,3.37-.07v3.55c-3.46.46-5.99.17-7.6-.84-1.61-1.02-2.41-2.94-2.41-5.76v-12.33h-4.51v-3.82h4.51v-5.19l3.96-1.18v6.37h6.05v3.82Z"/>
  <path class="st1" d="M940.39,430.66c0,.86.45,1.55,1.34,2.07.89.52,1.96.96,3.19,1.32,1.24.36,2.48.73,3.73,1.1,1.25.37,2.31,1.06,3.18,2.07.87,1.01,1.3,2.31,1.3,3.89,0,2.06-.8,3.72-2.39,4.96-1.59,1.24-3.63,1.87-6.12,1.87-2.21,0-4.11-.49-5.69-1.46-1.58-.97-2.7-2.26-3.37-3.87l3.41-1.96c.36,1.09,1.05,1.96,2.05,2.59,1,.64,2.2.96,3.6.96,1.3,0,2.38-.25,3.23-.75.85-.5,1.27-1.28,1.27-2.34,0-.88-.44-1.58-1.32-2.11-.88-.53-1.94-.98-3.18-1.35-1.24-.37-2.48-.74-3.73-1.12-1.25-.38-2.32-1.05-3.2-2.02-.88-.97-1.32-2.21-1.32-3.73,0-1.97.77-3.6,2.3-4.87,1.53-1.27,3.45-1.91,5.76-1.91,1.85,0,3.5.42,4.94,1.25,1.44.83,2.53,2,3.25,3.48l-3.32,1.87c-.82-1.94-2.44-2.91-4.87-2.91-1.12,0-2.08.26-2.87.78-.79.52-1.18,1.25-1.18,2.2Z"/>
  <path class="st1" d="M981.71,447.93c-3.43,0-6.28-1.15-8.56-3.44-2.28-2.29-3.41-5.13-3.41-8.53s1.14-6.24,3.41-8.53c2.28-2.29,5.13-3.44,8.56-3.44,2.25,0,4.26.54,6.05,1.62,1.79,1.08,3.12,2.53,4,4.35l-3.32,1.91c-.58-1.21-1.46-2.18-2.66-2.91-1.2-.73-2.56-1.09-4.07-1.09-2.28,0-4.18.77-5.71,2.32s-2.3,3.47-2.3,5.78.77,4.19,2.3,5.73,3.44,2.32,5.71,2.32c1.52,0,2.88-.36,4.1-1.07,1.21-.71,2.14-1.68,2.78-2.89l3.37,1.96c-.97,1.79-2.37,3.22-4.19,4.3s-3.84,1.62-6.05,1.62Z"/>
  <path class="st1" d="M1015.66,444.47c-2.34,2.31-5.17,3.46-8.51,3.46s-6.17-1.15-8.49-3.46c-2.32-2.31-3.48-5.14-3.48-8.51s1.16-6.2,3.48-8.51c2.32-2.31,5.15-3.46,8.49-3.46s6.17,1.15,8.51,3.46c2.34,2.31,3.5,5.14,3.5,8.51s-1.17,6.2-3.5,8.51ZM1007.15,444.06c2.28,0,4.19-.77,5.73-2.32,1.55-1.55,2.32-3.47,2.32-5.78s-.77-4.23-2.32-5.78c-1.55-1.55-3.46-2.32-5.73-2.32s-4.14.77-5.69,2.32c-1.55,1.55-2.32,3.47-2.32,5.78s.77,4.23,2.32,5.78c1.55,1.55,3.44,2.32,5.69,2.32Z"/>
  <path class="st1" d="M1028.72,428.41c1.3-2.82,3.67-4.23,7.1-4.23v4.14c-1.94-.09-3.61.43-5.01,1.55-1.4,1.12-2.09,2.93-2.09,5.42v12.06h-3.96v-22.75h3.96v3.82Z"/>
  <path class="st1" d="M1042.14,437.78c.39,2.03,1.33,3.61,2.8,4.73,1.47,1.12,3.28,1.68,5.44,1.68,3,0,5.19-1.11,6.55-3.32l3.37,1.91c-2.21,3.43-5.55,5.14-10.01,5.14-3.61,0-6.55-1.13-8.81-3.39-2.26-2.26-3.39-5.12-3.39-8.58s1.11-6.28,3.32-8.56c2.21-2.28,5.08-3.41,8.6-3.41,3.34,0,6.06,1.18,8.17,3.53,2.11,2.35,3.16,5.18,3.16,8.49,0,.58-.05,1.17-.14,1.77h-19.07ZM1050.02,427.72c-2.12,0-3.88.6-5.28,1.8-1.4,1.2-2.26,2.8-2.59,4.8h15.2c-.33-2.15-1.18-3.79-2.55-4.91-1.37-1.12-2.96-1.68-4.78-1.68Z"/>
  <path class="st1" d="M1070.91,442.65l-2.96,11.06h-3.41l1.82-11.06h4.55Z"/>
  <path class="st4" d="M632.75,489.21v7.01h-8.19v24.85h-7.28v-24.85h-8.19v-7.01h23.66Z"/>
  <path class="st4" d="M638.62,512.42c.79,2.12,2.61,3.19,5.46,3.19,1.85,0,3.31-.58,4.37-1.73l5.46,3.14c-2.25,3.12-5.55,4.69-9.92,4.69-3.82,0-6.88-1.14-9.17-3.41-2.29-2.28-3.44-5.14-3.44-8.6s1.13-6.29,3.39-8.58c2.26-2.29,5.17-3.44,8.71-3.44,3.31,0,6.06,1.15,8.26,3.44,2.2,2.29,3.3,5.15,3.3,8.58,0,.97-.09,1.88-.27,2.73h-16.16ZM638.48,507.33h9.78c-.67-2.4-2.28-3.6-4.82-3.6s-4.29,1.2-4.96,3.6Z"/>
  <path class="st4" d="M676.57,514.24c0,1.91-.55,3.46-1.66,4.64-1.11,1.18-2.59,2-4.44,2.46v1.82c.76.18,1.43.56,2,1.14s.86,1.37.86,2.37c0,3.22-3.41,4.63-10.24,4.23v-4.73c2.88.21,4.32,0,4.32-.64,0-.46-.8-.76-2.41-.91v-3.05c-3.64-.49-6.2-2.24-7.69-5.28l5.92-3.37c.61,1.79,1.9,2.69,3.87,2.69,1.64,0,2.46-.47,2.46-1.41,0-.46-.39-.83-1.16-1.14-.77-.3-1.71-.6-2.8-.89-1.09-.29-2.18-.67-3.28-1.14-1.09-.47-2.02-1.21-2.8-2.21-.77-1-1.16-2.23-1.16-3.69,0-2.37.86-4.2,2.57-5.51,1.71-1.3,3.83-1.96,6.35-1.96,1.88,0,3.6.42,5.14,1.25,1.55.83,2.79,2.04,3.73,3.62l-5.83,3.14c-.73-1.33-1.75-2-3.05-2s-1.91.43-1.91,1.27c0,.46.39.83,1.16,1.11.77.29,1.71.58,2.8.86,1.09.29,2.18.66,3.28,1.11s2.02,1.21,2.8,2.25c.77,1.05,1.16,2.36,1.16,3.94Z"/>
  <path class="st4" d="M702.74,521.07h-7.74l-7.28-10.04v10.04h-6.83v-31.86h6.83v19.07l6.83-9.97h7.96l-8.28,11.38,8.51,11.38Z"/>
  <path class="st4" d="M712.46,495.11c-.8.8-1.77,1.21-2.89,1.21s-2.09-.4-2.89-1.21c-.8-.8-1.21-1.77-1.21-2.89s.4-2.09,1.21-2.89,1.77-1.21,2.89-1.21,2.09.4,2.89,1.21c.8.8,1.21,1.77,1.21,2.89s-.4,2.09-1.21,2.89ZM706.15,521.07v-22.75h6.83v22.75h-6.83Z"/>
  <path class="st4" d="M718.9,521.07v-33.22h6.83v33.22h-6.83Z"/>
  <path class="st4" d="M748.16,498.32h6.83v22.75h-6.83v-2.14c-1.61,1.85-3.87,2.78-6.78,2.78s-5.57-1.16-7.69-3.48c-2.12-2.32-3.19-5.17-3.19-8.53s1.06-6.21,3.19-8.53c2.12-2.32,4.69-3.48,7.69-3.48s5.17.93,6.78,2.78v-2.14ZM738.83,513.74c1,1,2.31,1.5,3.91,1.5s2.91-.5,3.91-1.5c1-1,1.5-2.35,1.5-4.05s-.5-3.05-1.5-4.05-2.31-1.5-3.91-1.5-2.91.5-3.91,1.5c-1,1-1.5,2.35-1.5,4.05s.5,3.05,1.5,4.05Z"/>
  <path class="st4" d="M774.23,504.87h-4.69v8.06c0,.91.36,1.49,1.09,1.73.73.24,1.93.32,3.6.23v6.19c-4.34.46-7.34.04-9.01-1.25-1.67-1.29-2.5-3.59-2.5-6.89v-8.06h-3.64v-6.55h3.64v-4.32l6.83-2.05v6.37h4.69v6.55Z"/>
  <path class="st4" d="M805.36,497.68c3,0,5.57,1.16,7.69,3.48,2.12,2.32,3.19,5.17,3.19,8.53s-1.06,6.21-3.19,8.53c-2.12,2.32-4.69,3.48-7.69,3.48s-5.17-.93-6.78-2.78v2.14h-6.83v-31.86h6.83v11.24c1.61-1.85,3.87-2.78,6.78-2.78ZM800.11,513.74c1.02,1,2.31,1.5,3.89,1.5s2.87-.5,3.89-1.5c1.02-1,1.52-2.35,1.52-4.05s-.51-3.05-1.52-4.05c-1.02-1-2.31-1.5-3.89-1.5s-2.87.5-3.89,1.5c-1.02,1-1.52,2.35-1.52,4.05s.51,3.05,1.52,4.05Z"/>
  <path class="st4" d="M827.11,512.42c.79,2.12,2.61,3.19,5.46,3.19,1.85,0,3.31-.58,4.37-1.73l5.46,3.14c-2.25,3.12-5.55,4.69-9.92,4.69-3.82,0-6.88-1.14-9.17-3.41-2.29-2.28-3.44-5.14-3.44-8.6s1.13-6.29,3.39-8.58c2.26-2.29,5.17-3.44,8.71-3.44,3.31,0,6.06,1.15,8.26,3.44,2.2,2.29,3.3,5.15,3.3,8.58,0,.97-.09,1.88-.27,2.73h-16.16ZM826.98,507.33h9.78c-.67-2.4-2.28-3.6-4.82-3.6s-4.29,1.2-4.96,3.6Z"/>
  <path class="st4" d="M848.32,521.07v-33.22h6.83v33.22h-6.83Z"/>
  <path class="st4" d="M867.37,495.11c-.8.8-1.77,1.21-2.89,1.21s-2.09-.4-2.89-1.21c-.8-.8-1.21-1.77-1.21-2.89s.4-2.09,1.21-2.89,1.77-1.21,2.89-1.21,2.09.4,2.89,1.21c.8.8,1.21,1.77,1.21,2.89s-.4,2.09-1.21,2.89ZM861.06,521.07v-22.75h6.83v22.75h-6.83Z"/>
  <path class="st4" d="M879.9,512.42c.79,2.12,2.61,3.19,5.46,3.19,1.85,0,3.31-.58,4.37-1.73l5.46,3.14c-2.25,3.12-5.55,4.69-9.92,4.69-3.82,0-6.88-1.14-9.17-3.41-2.29-2.28-3.44-5.14-3.44-8.6s1.13-6.29,3.39-8.58c2.26-2.29,5.17-3.44,8.71-3.44,3.31,0,6.06,1.15,8.26,3.44,2.2,2.29,3.3,5.15,3.3,8.58,0,.97-.09,1.88-.27,2.73h-16.16ZM879.77,507.33h9.78c-.67-2.4-2.28-3.6-4.82-3.6s-4.29,1.2-4.96,3.6Z"/>
  <path class="st4" d="M914.72,498.32h7.55l-8.47,22.75h-7.64l-8.47-22.75h7.55l4.73,14.36,4.73-14.36Z"/>
  <path class="st4" d="M930.87,512.42c.79,2.12,2.61,3.19,5.46,3.19,1.85,0,3.31-.58,4.37-1.73l5.46,3.14c-2.25,3.12-5.55,4.69-9.92,4.69-3.82,0-6.88-1.14-9.17-3.41-2.29-2.28-3.44-5.14-3.44-8.6s1.13-6.29,3.39-8.58c2.26-2.29,5.17-3.44,8.71-3.44,3.31,0,6.06,1.15,8.26,3.44,2.2,2.29,3.3,5.15,3.3,8.58,0,.97-.09,1.88-.27,2.73h-16.16ZM930.74,507.33h9.78c-.67-2.4-2.28-3.6-4.82-3.6s-4.29,1.2-4.96,3.6Z"/>
  <path class="st4" d="M957.63,504.96c0,.46.39.83,1.16,1.11.77.29,1.71.58,2.8.86,1.09.29,2.18.66,3.28,1.11s2.03,1.21,2.8,2.25c.77,1.05,1.16,2.36,1.16,3.94,0,2.46-.91,4.32-2.73,5.57s-4.06,1.89-6.74,1.89c-4.79,0-8.05-1.8-9.78-5.42l5.92-3.37c.61,1.79,1.9,2.69,3.87,2.69,1.64,0,2.46-.47,2.46-1.41,0-.46-.39-.83-1.16-1.14-.77-.3-1.71-.6-2.8-.89-1.09-.29-2.18-.67-3.28-1.14-1.09-.47-2.02-1.21-2.8-2.21-.77-1-1.16-2.23-1.16-3.69,0-2.37.86-4.2,2.57-5.51,1.71-1.3,3.83-1.96,6.35-1.96,1.88,0,3.6.42,5.14,1.25,1.55.83,2.79,2.04,3.73,3.62l-5.83,3.14c-.73-1.33-1.74-2-3.05-2s-1.91.43-1.91,1.27Z"/>
  <path class="st4" d="M991.97,495.11c-.8.8-1.77,1.21-2.89,1.21s-2.09-.4-2.89-1.21c-.8-.8-1.21-1.77-1.21-2.89s.4-2.09,1.21-2.89c.8-.8,1.77-1.21,2.89-1.21s2.09.4,2.89,1.21c.8.8,1.21,1.77,1.21,2.89s-.4,2.09-1.21,2.89ZM985.67,521.07v-22.75h6.83v22.75h-6.83Z"/>
  <path class="st4" d="M1011.74,497.68c2.43,0,4.45.83,6.08,2.5,1.62,1.67,2.43,3.98,2.43,6.92v13.97h-6.83v-12.97c0-1.33-.37-2.36-1.11-3.07-.74-.71-1.69-1.07-2.84-1.07-1.3,0-2.34.39-3.09,1.18-.76.79-1.14,1.96-1.14,3.5v12.42h-6.83v-22.75h6.83v2.14c1.37-1.85,3.53-2.78,6.51-2.78Z"/>
  <path class="st4" d="M1051.47,504.87h-4.69v8.06c0,.91.36,1.49,1.09,1.73.73.24,1.93.32,3.59.23v6.19c-4.34.46-7.34.04-9.01-1.25-1.67-1.29-2.5-3.59-2.5-6.89v-8.06h-3.64v-6.55h3.64v-4.32l6.83-2.05v6.37h4.69v6.55Z"/>
  <path class="st4" d="M1069.58,497.68c2.43,0,4.45.83,6.08,2.5,1.62,1.67,2.43,3.98,2.43,6.92v13.97h-6.83v-12.97c0-1.33-.37-2.36-1.11-3.07-.74-.71-1.69-1.07-2.84-1.07-1.3,0-2.34.39-3.09,1.18-.76.79-1.14,1.96-1.14,3.5v12.42h-6.83v-31.86h6.83v11.24c1.37-1.85,3.53-2.78,6.51-2.78Z"/>
  <path class="st4" d="M1089.79,512.42c.79,2.12,2.61,3.19,5.46,3.19,1.85,0,3.31-.58,4.37-1.73l5.46,3.14c-2.25,3.12-5.55,4.69-9.92,4.69-3.82,0-6.88-1.14-9.17-3.41s-3.44-5.14-3.44-8.6,1.13-6.29,3.39-8.58c2.26-2.29,5.17-3.44,8.71-3.44,3.31,0,6.06,1.15,8.26,3.44,2.2,2.29,3.3,5.15,3.3,8.58,0,.97-.09,1.88-.27,2.73h-16.16ZM1089.65,507.33h9.78c-.67-2.4-2.28-3.6-4.82-3.6s-4.29,1.2-4.96,3.6Z"/>
  <path class="st4" d="M1136.89,497.68c3,0,5.57,1.16,7.69,3.48,2.12,2.32,3.19,5.17,3.19,8.53s-1.06,6.21-3.19,8.53c-2.12,2.32-4.69,3.48-7.69,3.48s-5.17-.93-6.78-2.78v11.24h-6.83v-31.86h6.83v2.14c1.61-1.85,3.87-2.78,6.78-2.78ZM1131.64,513.74c1.02,1,2.31,1.5,3.89,1.5s2.87-.5,3.89-1.5c1.02-1,1.52-2.35,1.52-4.05s-.51-3.05-1.52-4.05c-1.02-1-2.31-1.5-3.89-1.5s-2.88.5-3.89,1.5c-1.02,1-1.52,2.35-1.52,4.05s.51,3.05,1.52,4.05Z"/>
  <path class="st4" d="M1172.03,518.23c-2.34,2.32-5.19,3.48-8.56,3.48s-6.22-1.16-8.56-3.48-3.5-5.17-3.5-8.53,1.17-6.21,3.5-8.53c2.34-2.32,5.19-3.48,8.56-3.48s6.22,1.16,8.56,3.48c2.34,2.32,3.5,5.17,3.5,8.53s-1.17,6.21-3.5,8.53ZM1159.74,513.56c1,1,2.25,1.5,3.73,1.5s2.73-.5,3.73-1.5c1-1,1.5-2.29,1.5-3.87s-.5-2.87-1.5-3.87c-1-1-2.25-1.5-3.73-1.5s-2.73.5-3.73,1.5c-1,1-1.5,2.29-1.5,3.87s.5,2.87,1.5,3.87Z"/>
  <path class="st4" d="M1204.43,498.32h7.28l-7.28,22.75h-6.37l-3.64-12.15-3.64,12.15h-6.37l-7.28-22.75h7.28l3.28,12.2,3.55-12.2h6.37l3.55,12.2,3.28-12.2Z"/>
  <path class="st4" d="M1220.54,512.42c.79,2.12,2.61,3.19,5.46,3.19,1.85,0,3.31-.58,4.37-1.73l5.46,3.14c-2.25,3.12-5.55,4.69-9.92,4.69-3.82,0-6.88-1.14-9.17-3.41s-3.44-5.14-3.44-8.6,1.13-6.29,3.39-8.58c2.26-2.29,5.17-3.44,8.71-3.44,3.31,0,6.06,1.15,8.26,3.44,2.2,2.29,3.3,5.15,3.3,8.58,0,.97-.09,1.88-.27,2.73h-16.16ZM1220.4,507.33h9.78c-.67-2.4-2.28-3.6-4.82-3.6s-4.29,1.2-4.96,3.6Z"/>
  <path class="st4" d="M1248.57,502.37c.42-1.46,1.28-2.57,2.57-3.34,1.29-.77,2.71-1.16,4.25-1.16v7.74c-1.67-.27-3.22,0-4.66.84-1.44.83-2.16,2.28-2.16,4.35v10.29h-6.83v-22.75h6.83v4.05Z"/>
  <path class="st4" d="M1291.26,518.23c-2.34,2.32-5.19,3.48-8.56,3.48s-6.22-1.16-8.56-3.48-3.5-5.17-3.5-8.53,1.17-6.21,3.5-8.53c2.34-2.32,5.19-3.48,8.56-3.48s6.22,1.16,8.56,3.48c2.34,2.32,3.5,5.17,3.5,8.53s-1.17,6.21-3.5,8.53ZM1278.97,513.56c1,1,2.25,1.5,3.73,1.5s2.73-.5,3.73-1.5c1-1,1.5-2.29,1.5-3.87s-.5-2.87-1.5-3.87c-1-1-2.25-1.5-3.73-1.5s-2.73.5-3.73,1.5c-1,1-1.5,2.29-1.5,3.87s.5,2.87,1.5,3.87Z"/>
  <path class="st4" d="M1311.37,495.13c-2.82-.24-4.23.82-4.23,3.19h4.23v6.55h-4.23v16.2h-6.83v-16.2h-3.05v-6.55h3.05c0-3.28.93-5.77,2.78-7.49,1.85-1.71,4.61-2.46,8.28-2.25v6.55Z"/>
  <path class="st4" d="M622.19,613.37c-6.92,0-12.67-2.31-17.25-6.92-4.58-4.61-6.87-10.31-6.87-17.11s2.29-12.5,6.87-17.11c4.58-4.61,10.33-6.92,17.25-6.92,4.37,0,8.39,1.06,12.06,3.19,3.67,2.12,6.51,4.95,8.51,8.46l-11.92,6.92c-1.64-3.4-4.58-5.1-8.83-5.1-2.97,0-5.43.99-7.37,2.96-1.94,1.97-2.91,4.51-2.91,7.6s.97,5.63,2.91,7.6c1.94,1.97,4.4,2.96,7.37,2.96,4.31,0,7.25-1.7,8.83-5.1l11.92,6.83c-2,3.58-4.82,6.43-8.46,8.56s-7.68,3.19-12.11,3.19Z"/>
  <path class="st4" d="M688.09,606.41c-4.67,4.64-10.38,6.96-17.11,6.96s-12.44-2.32-17.11-6.96c-4.67-4.64-7.01-10.33-7.01-17.07s2.34-12.42,7.01-17.07c4.67-4.64,10.38-6.96,17.11-6.96s12.44,2.32,17.11,6.96c4.67,4.64,7.01,10.33,7.01,17.07s-2.34,12.42-7.01,17.07ZM663.51,597.08c2,2,4.49,3,7.46,3s5.46-1,7.46-3c2-2,3-4.58,3-7.74s-1-5.73-3-7.74c-2-2-4.49-3-7.46-3s-5.46,1-7.46,3c-2,2-3,4.58-3,7.74s1,5.73,3,7.74Z"/>
  <path class="st4" d="M731.32,565.31c4.85,0,8.9,1.67,12.15,5.01,3.25,3.34,4.87,7.95,4.87,13.83v27.94h-13.65v-25.94c0-2.67-.74-4.72-2.23-6.14-1.49-1.42-3.38-2.14-5.69-2.14-2.61,0-4.67.79-6.19,2.37-1.52,1.58-2.28,3.91-2.28,7.01v24.85h-13.65v-45.51h13.65v4.28c2.73-3.7,7.07-5.55,13.02-5.55Z"/>
  <path class="st4" d="M786.2,565.31c4.85,0,8.9,1.67,12.15,5.01,3.25,3.34,4.87,7.95,4.87,13.83v27.94h-13.65v-25.94c0-2.67-.74-4.72-2.23-6.14-1.49-1.42-3.38-2.14-5.69-2.14-2.61,0-4.67.79-6.19,2.37-1.52,1.58-2.28,3.91-2.28,7.01v24.85h-13.65v-45.51h13.65v4.28c2.73-3.7,7.07-5.55,13.02-5.55Z"/>
  <path class="st4" d="M826.61,594.8c1.58,4.25,5.22,6.37,10.92,6.37,3.7,0,6.61-1.15,8.74-3.46l10.92,6.28c-4.49,6.25-11.1,9.38-19.84,9.38-7.65,0-13.76-2.28-18.34-6.83-4.58-4.55-6.87-10.29-6.87-17.2s2.26-12.58,6.78-17.16c4.52-4.58,10.33-6.87,17.43-6.87,6.61,0,12.12,2.29,16.52,6.87,4.4,4.58,6.6,10.3,6.6,17.16,0,1.94-.18,3.76-.55,5.46h-32.31ZM826.34,584.61h19.57c-1.34-4.79-4.55-7.19-9.65-7.19s-8.59,2.4-9.92,7.19Z"/>
  <path class="st4" d="M890.42,613.37c-6.92,0-12.67-2.31-17.25-6.92-4.58-4.61-6.87-10.31-6.87-17.11s2.29-12.5,6.87-17.11c4.58-4.61,10.33-6.92,17.25-6.92,4.37,0,8.39,1.06,12.06,3.19,3.67,2.12,6.51,4.95,8.51,8.46l-11.92,6.92c-1.64-3.4-4.58-5.1-8.83-5.1-2.97,0-5.43.99-7.37,2.96-1.94,1.97-2.91,4.51-2.91,7.6s.97,5.63,2.91,7.6c1.94,1.97,4.4,2.96,7.37,2.96,4.31,0,7.25-1.7,8.83-5.1l11.92,6.83c-2,3.58-4.82,6.43-8.46,8.56s-7.68,3.19-12.11,3.19Z"/>
  <path class="st4" d="M944.94,579.69h-9.37v16.11c0,1.82.73,2.97,2.18,3.46,1.46.49,3.85.64,7.19.46v12.38c-8.68.91-14.69.08-18.02-2.5-3.34-2.58-5.01-7.17-5.01-13.79v-16.11h-7.28v-13.11h7.28v-8.65l13.65-4.1v12.74h9.37v13.11Z"/>
  <path class="st4" d="M965.78,594.8c1.58,4.25,5.22,6.37,10.92,6.37,3.7,0,6.61-1.15,8.74-3.46l10.92,6.28c-4.49,6.25-11.1,9.38-19.84,9.38-7.65,0-13.76-2.28-18.34-6.83-4.58-4.55-6.87-10.29-6.87-17.2s2.26-12.58,6.78-17.16c4.52-4.58,10.33-6.87,17.43-6.87,6.61,0,12.12,2.29,16.52,6.87,4.4,4.58,6.6,10.3,6.6,17.16,0,1.94-.18,3.76-.55,5.46h-32.31ZM965.51,584.61h19.57c-1.34-4.79-4.55-7.19-9.65-7.19s-8.59,2.4-9.92,7.19Z"/>
  <path class="st4" d="M1040.78,548.38h13.65v63.71h-13.65v-4.28c-3.22,3.7-7.74,5.55-13.56,5.55s-11.13-2.32-15.38-6.96c-4.25-4.64-6.37-10.33-6.37-17.07s2.12-12.42,6.37-17.07c4.25-4.64,9.38-6.96,15.38-6.96s10.34,1.85,13.56,5.55v-22.48ZM1022.12,597.44c2,2,4.61,3,7.83,3s5.83-1,7.83-3c2-2,3-4.7,3-8.1s-1-6.1-3-8.1-4.61-3-7.83-3-5.83,1-7.83,3c-2,2-3,4.7-3,8.1s1,6.1,3,8.1Z"/>
  <path class="st4" d="M1103.44,560.17c-1.61,1.61-3.54,2.41-5.78,2.41s-4.17-.8-5.78-2.41c-1.61-1.61-2.41-3.53-2.41-5.78s.8-4.17,2.41-5.78,3.53-2.41,5.78-2.41,4.17.8,5.78,2.41c1.61,1.61,2.41,3.54,2.41,5.78s-.8,4.17-2.41,5.78ZM1090.84,612.1v-45.51h13.65v45.51h-13.65Z"/>
  <path class="st4" d="M1149.36,548.38h13.65v63.71h-13.65v-4.28c-3.22,3.7-7.74,5.55-13.56,5.55s-11.13-2.32-15.38-6.96c-4.25-4.64-6.37-10.33-6.37-17.07s2.12-12.42,6.37-17.07c4.25-4.64,9.38-6.96,15.38-6.96s10.34,1.85,13.56,5.55v-22.48ZM1130.7,597.44c2,2,4.61,3,7.83,3s5.83-1,7.83-3c2-2,3-4.7,3-8.1s-1-6.1-3-8.1-4.61-3-7.83-3-5.83,1-7.83,3c-2,2-3,4.7-3,8.1s1,6.1,3,8.1Z"/>
  <path class="st4" d="M1187.04,594.8c1.58,4.25,5.22,6.37,10.92,6.37,3.7,0,6.61-1.15,8.74-3.46l10.92,6.28c-4.49,6.25-11.1,9.38-19.84,9.38-7.65,0-13.76-2.28-18.34-6.83-4.58-4.55-6.87-10.29-6.87-17.2s2.26-12.58,6.78-17.16c4.52-4.58,10.33-6.87,17.43-6.87,6.61,0,12.12,2.29,16.52,6.87,4.4,4.58,6.6,10.3,6.6,17.16,0,1.94-.18,3.76-.55,5.46h-32.31ZM1186.77,584.61h19.57c-1.34-4.79-4.55-7.19-9.65-7.19s-8.59,2.4-9.92,7.19Z"/>
  <path class="st4" d="M1262.04,566.59h13.65v45.51h-13.65v-4.28c-3.22,3.7-7.74,5.55-13.56,5.55s-11.13-2.32-15.38-6.96c-4.25-4.64-6.37-10.33-6.37-17.07s2.12-12.42,6.37-17.07c4.25-4.64,9.38-6.96,15.38-6.96s10.34,1.85,13.56,5.55v-4.28ZM1243.38,597.44c2,2,4.61,3,7.83,3s5.83-1,7.83-3c2-2,3-4.7,3-8.1s-1-6.1-3-8.1-4.61-3-7.83-3-5.83,1-7.83,3c-2,2-3,4.7-3,8.1s1,6.1,3,8.1Z"/>
  <path class="st4" d="M1300,579.88c0,.91.77,1.65,2.32,2.23,1.55.58,3.41,1.15,5.6,1.73,2.18.58,4.37,1.32,6.55,2.23s4.05,2.41,5.6,4.51c1.55,2.09,2.32,4.72,2.32,7.87,0,4.92-1.82,8.63-5.46,11.15s-8.13,3.78-13.47,3.78c-9.59,0-16.11-3.61-19.57-10.83l11.83-6.74c1.21,3.58,3.79,5.37,7.74,5.37,3.28,0,4.92-.94,4.92-2.82,0-.91-.77-1.67-2.32-2.28-1.55-.61-3.41-1.2-5.6-1.77-2.18-.58-4.37-1.33-6.55-2.28-2.18-.94-4.05-2.41-5.6-4.41-1.55-2-2.32-4.46-2.32-7.37,0-4.73,1.71-8.4,5.14-11.01,3.43-2.61,7.66-3.91,12.7-3.91,3.76,0,7.19.83,10.29,2.5,3.09,1.67,5.58,4.08,7.46,7.24l-11.65,6.28c-1.46-2.67-3.49-4-6.1-4s-3.82.85-3.82,2.55Z"/>
  <path class="st1" d="M384.09,657.8h-6.05v12.33c0,1.12.22,1.92.66,2.39.44.47,1.11.71,2.02.73.91.02,2.03,0,3.37-.07v3.55c-3.46.46-5.99.17-7.6-.84-1.61-1.02-2.41-2.94-2.41-5.76v-12.33h-4.51v-3.82h4.51v-5.19l3.96-1.18v6.37h6.05v3.82Z"/>
  <path class="st1" d="M401.02,653.38c2.67,0,4.81.84,6.42,2.53,1.61,1.68,2.41,3.97,2.41,6.85v13.97h-3.96v-13.74c0-1.85-.5-3.28-1.5-4.3-1-1.02-2.38-1.52-4.14-1.52-1.97,0-3.57.61-4.78,1.84-1.21,1.23-1.82,3.12-1.82,5.67v12.06h-3.96v-31.86h3.96v12.38c1.61-2.58,4.06-3.87,7.37-3.87Z"/>
  <path class="st1" d="M435.1,653.97h3.96v22.75h-3.96v-3.91c-1.97,3-4.84,4.51-8.6,4.51-3.19,0-5.9-1.16-8.15-3.48-2.25-2.32-3.37-5.15-3.37-8.49s1.12-6.17,3.37-8.49c2.24-2.32,4.96-3.48,8.15-3.48,3.76,0,6.63,1.5,8.6,4.5v-3.91ZM427,673.5c2.31,0,4.23-.78,5.78-2.34,1.55-1.56,2.32-3.5,2.32-5.8s-.77-4.24-2.32-5.8c-1.55-1.56-3.47-2.34-5.78-2.34s-4.19.78-5.73,2.34c-1.55,1.56-2.32,3.5-2.32,5.8s.77,4.24,2.32,5.8c1.55,1.56,3.46,2.34,5.73,2.34Z"/>
  <path class="st1" d="M458.36,657.8h-6.05v12.33c0,1.12.22,1.92.66,2.39.44.47,1.11.71,2.02.73.91.02,2.03,0,3.37-.07v3.55c-3.46.46-5.99.17-7.6-.84-1.61-1.02-2.41-2.94-2.41-5.76v-12.33h-4.51v-3.82h4.51v-5.19l3.96-1.18v6.37h6.05v3.82Z"/>
  <path class="st1" d="M495.27,653.97h3.91v21.8c0,3.37-1.14,5.98-3.41,7.85s-5.01,2.8-8.19,2.8c-2.55,0-4.75-.48-6.6-1.43-1.85-.96-3.25-2.33-4.19-4.12l3.46-1.96c1.24,2.55,3.72,3.82,7.42,3.82,2.37,0,4.22-.62,5.58-1.87,1.35-1.25,2.02-2.94,2.02-5.1v-3.23c-2,3.03-4.85,4.55-8.56,4.55-3.25,0-5.99-1.15-8.24-3.46-2.25-2.3-3.37-5.11-3.37-8.42s1.12-6.11,3.37-8.4c2.24-2.29,4.99-3.44,8.24-3.44,3.73,0,6.58,1.5,8.56,4.5v-3.91ZM481.39,670.99c1.55,1.55,3.47,2.32,5.78,2.32s4.23-.77,5.78-2.32c1.55-1.55,2.32-3.47,2.32-5.78s-.77-4.19-2.32-5.73c-1.55-1.55-3.47-2.32-5.78-2.32s-4.23.77-5.78,2.32c-1.55,1.55-2.32,3.46-2.32,5.73s.77,4.23,2.32,5.78Z"/>
  <path class="st1" d="M525.3,673.86c-2.34,2.31-5.17,3.46-8.51,3.46s-6.17-1.15-8.49-3.46c-2.32-2.3-3.48-5.14-3.48-8.51s1.16-6.2,3.48-8.51c2.32-2.3,5.15-3.46,8.49-3.46s6.17,1.15,8.51,3.46c2.34,2.31,3.5,5.14,3.5,8.51s-1.17,6.21-3.5,8.51ZM516.79,673.45c2.28,0,4.19-.77,5.73-2.32,1.55-1.55,2.32-3.47,2.32-5.78s-.77-4.23-2.32-5.78c-1.55-1.55-3.46-2.32-5.73-2.32s-4.14.77-5.69,2.32c-1.55,1.55-2.32,3.47-2.32,5.78s.77,4.23,2.32,5.78c1.55,1.55,3.44,2.32,5.69,2.32Z"/>
  <path class="st1" d="M559.25,653.38c3.19,0,5.9,1.16,8.15,3.48,2.25,2.32,3.37,5.15,3.37,8.49s-1.12,6.17-3.37,8.49c-2.25,2.32-4.96,3.48-8.15,3.48-3.76,0-6.63-1.5-8.6-4.51v3.91h-3.96v-31.86h3.96v13.02c1.97-3,4.84-4.5,8.6-4.5ZM558.75,673.5c2.28,0,4.19-.78,5.73-2.34,1.55-1.56,2.32-3.5,2.32-5.8s-.77-4.24-2.32-5.8c-1.55-1.56-3.46-2.34-5.73-2.34s-4.23.78-5.78,2.34c-1.55,1.56-2.32,3.5-2.32,5.8s.77,4.24,2.32,5.8c1.55,1.56,3.47,2.34,5.78,2.34Z"/>
  <path class="st1" d="M579.18,667.17c.39,2.03,1.33,3.61,2.8,4.73,1.47,1.12,3.28,1.68,5.44,1.68,3,0,5.19-1.11,6.55-3.32l3.37,1.91c-2.21,3.43-5.55,5.14-10.01,5.14-3.61,0-6.55-1.13-8.81-3.39-2.26-2.26-3.39-5.12-3.39-8.58s1.11-6.28,3.32-8.56c2.21-2.28,5.08-3.41,8.6-3.41,3.34,0,6.06,1.18,8.17,3.53,2.11,2.35,3.16,5.18,3.16,8.49,0,.58-.05,1.17-.14,1.78h-19.07ZM587.06,657.11c-2.12,0-3.88.6-5.28,1.8-1.4,1.2-2.26,2.8-2.59,4.8h15.2c-.33-2.15-1.18-3.79-2.55-4.92-1.37-1.12-2.96-1.68-4.78-1.68Z"/>
  <path class="st1" d="M618.82,653.97h4.23l-9.28,24.17c-.97,2.58-2.33,4.54-4.07,5.89-1.74,1.35-3.75,1.95-6.03,1.8v-3.69c2.78.21,4.82-1.34,6.12-4.65l.43-.85-9.92-22.66h4.23l7.59,17.44,6.7-17.44Z"/>
  <path class="st1" d="M645.58,673.86c-2.34,2.31-5.17,3.46-8.51,3.46s-6.17-1.15-8.49-3.46c-2.32-2.3-3.48-5.14-3.48-8.51s1.16-6.2,3.48-8.51c2.32-2.3,5.15-3.46,8.49-3.46s6.17,1.15,8.51,3.46c2.34,2.31,3.5,5.14,3.5,8.51s-1.17,6.21-3.5,8.51ZM637.07,673.45c2.28,0,4.19-.77,5.73-2.32,1.55-1.55,2.32-3.47,2.32-5.78s-.77-4.23-2.32-5.78c-1.55-1.55-3.46-2.32-5.73-2.32s-4.14.77-5.69,2.32c-1.55,1.55-2.32,3.47-2.32,5.78s.77,4.23,2.32,5.78c1.55,1.55,3.44,2.32,5.69,2.32Z"/>
  <path class="st1" d="M666.01,653.38c2.67,0,4.81.84,6.42,2.53,1.61,1.68,2.41,3.97,2.41,6.85v13.97h-3.96v-13.74c0-1.85-.5-3.28-1.5-4.3-1-1.02-2.38-1.52-4.14-1.52-1.97,0-3.57.61-4.78,1.84-1.21,1.23-1.82,3.12-1.82,5.67v12.06h-3.96v-22.75h3.96v3.28c1.61-2.58,4.06-3.87,7.37-3.87Z"/>
  <path class="st1" d="M700.1,644.87h3.96v31.86h-3.96v-3.91c-1.97,3-4.84,4.51-8.6,4.51-3.19,0-5.9-1.16-8.15-3.48-2.25-2.32-3.37-5.15-3.37-8.49s1.12-6.17,3.37-8.49c2.24-2.32,4.96-3.48,8.15-3.48,3.76,0,6.63,1.5,8.6,4.5v-13.02ZM692,673.5c2.31,0,4.23-.78,5.78-2.34,1.55-1.56,2.32-3.5,2.32-5.8s-.77-4.24-2.32-5.8c-1.55-1.56-3.47-2.34-5.78-2.34s-4.19.78-5.73,2.34c-1.55,1.56-2.32,3.5-2.32,5.8s.77,4.24,2.32,5.8c1.55,1.56,3.46,2.34,5.73,2.34Z"/>
  <path class="st1" d="M735.64,657.8h-6.05v12.33c0,1.12.22,1.92.66,2.39.44.47,1.11.71,2.02.73.91.02,2.03,0,3.37-.07v3.55c-3.46.46-5.99.17-7.6-.84-1.61-1.02-2.41-2.94-2.41-5.76v-12.33h-4.51v-3.82h4.51v-5.19l3.96-1.18v6.37h6.05v3.82Z"/>
  <path class="st1" d="M752.57,653.38c2.67,0,4.81.84,6.42,2.53,1.61,1.68,2.41,3.97,2.41,6.85v13.97h-3.96v-13.74c0-1.85-.5-3.28-1.5-4.3-1-1.02-2.38-1.52-4.14-1.52-1.97,0-3.57.61-4.78,1.84-1.21,1.23-1.82,3.12-1.82,5.67v12.06h-3.96v-31.86h3.96v12.38c1.61-2.58,4.06-3.87,7.37-3.87Z"/>
  <path class="st1" d="M770.59,667.17c.39,2.03,1.33,3.61,2.8,4.73,1.47,1.12,3.28,1.68,5.44,1.68,3,0,5.19-1.11,6.55-3.32l3.37,1.91c-2.21,3.43-5.55,5.14-10.01,5.14-3.61,0-6.55-1.13-8.81-3.39-2.26-2.26-3.39-5.12-3.39-8.58s1.11-6.28,3.32-8.56c2.21-2.28,5.08-3.41,8.6-3.41,3.34,0,6.06,1.18,8.17,3.53,2.11,2.35,3.16,5.18,3.16,8.49,0,.58-.05,1.17-.14,1.78h-19.07ZM778.47,657.11c-2.12,0-3.88.6-5.28,1.8-1.4,1.2-2.26,2.8-2.59,4.8h15.2c-.33-2.15-1.18-3.79-2.55-4.92-1.37-1.12-2.96-1.68-4.78-1.68Z"/>
  <path class="st1" d="M820.11,653.38c3.19,0,5.9,1.16,8.15,3.48,2.25,2.32,3.37,5.15,3.37,8.49s-1.12,6.17-3.37,8.49c-2.25,2.32-4.96,3.48-8.15,3.48-3.76,0-6.63-1.5-8.6-4.51v3.91h-3.96v-31.86h3.96v13.02c1.97-3,4.84-4.5,8.6-4.5ZM819.61,673.5c2.28,0,4.19-.78,5.73-2.34,1.55-1.56,2.32-3.5,2.32-5.8s-.77-4.24-2.32-5.8c-1.55-1.56-3.46-2.34-5.73-2.34s-4.23.78-5.78,2.34c-1.55,1.56-2.32,3.5-2.32,5.8s.77,4.24,2.32,5.8c1.55,1.56,3.47,2.34,5.78,2.34Z"/>
  <path class="st1" d="M841.22,657.8c1.3-2.82,3.67-4.23,7.1-4.23v4.14c-1.94-.09-3.61.42-5.01,1.55-1.4,1.12-2.09,2.93-2.09,5.42v12.06h-3.96v-22.75h3.96v3.82Z"/>
  <path class="st1" d="M855.1,649.83c-.76,0-1.4-.26-1.91-.77-.52-.52-.77-1.14-.77-1.87s.26-1.36.77-1.89c.52-.53,1.15-.8,1.91-.8s1.35.27,1.87.8c.52.53.77,1.16.77,1.89s-.26,1.35-.77,1.87c-.52.52-1.14.77-1.87.77ZM853.1,676.73v-22.75h3.96v22.75h-3.96Z"/>
  <path class="st1" d="M866.8,667.17c.39,2.03,1.33,3.61,2.8,4.73,1.47,1.12,3.28,1.68,5.44,1.68,3,0,5.19-1.11,6.55-3.32l3.37,1.91c-2.21,3.43-5.55,5.14-10.01,5.14-3.61,0-6.55-1.13-8.81-3.39-2.26-2.26-3.39-5.12-3.39-8.58s1.11-6.28,3.32-8.56c2.21-2.28,5.08-3.41,8.6-3.41,3.34,0,6.06,1.18,8.17,3.53,2.11,2.35,3.16,5.18,3.16,8.49,0,.58-.05,1.17-.14,1.78h-19.07ZM874.67,657.11c-2.12,0-3.88.6-5.28,1.8-1.4,1.2-2.26,2.8-2.59,4.8h15.2c-.33-2.15-1.18-3.79-2.55-4.92-1.37-1.12-2.96-1.68-4.78-1.68Z"/>
  <path class="st1" d="M902.48,648.1c-4-.33-6.01,1.4-6.01,5.19v.68h6.01v3.82h-6.01v18.93h-3.96v-18.93h-3.64v-3.82h3.64v-.68c0-3.06.86-5.39,2.57-6.96,1.71-1.58,4.18-2.26,7.4-2.05v3.82Z"/>
  <path class="st1" d="M937.52,653.97h3.96v22.75h-3.96v-3.91c-1.97,3-4.84,4.51-8.6,4.51-3.19,0-5.9-1.16-8.15-3.48-2.25-2.32-3.37-5.15-3.37-8.49s1.12-6.17,3.37-8.49c2.24-2.32,4.96-3.48,8.15-3.48,3.76,0,6.63,1.5,8.6,4.5v-3.91ZM929.42,673.5c2.31,0,4.23-.78,5.78-2.34,1.55-1.56,2.32-3.5,2.32-5.8s-.77-4.24-2.32-5.8c-1.55-1.56-3.47-2.34-5.78-2.34s-4.19.78-5.73,2.34c-1.55,1.56-2.32,3.5-2.32,5.8s.77,4.24,2.32,5.8c1.55,1.56,3.46,2.34,5.73,2.34Z"/>
  <path class="st1" d="M959.73,653.38c2.67,0,4.81.84,6.42,2.53,1.61,1.68,2.41,3.97,2.41,6.85v13.97h-3.96v-13.74c0-1.85-.5-3.28-1.5-4.3-1-1.02-2.38-1.52-4.14-1.52-1.97,0-3.57.61-4.78,1.84-1.21,1.23-1.82,3.12-1.82,5.67v12.06h-3.96v-22.75h3.96v3.28c1.61-2.58,4.06-3.87,7.37-3.87Z"/>
  <path class="st1" d="M993.81,644.87h3.96v31.86h-3.96v-3.91c-1.97,3-4.84,4.51-8.6,4.51-3.19,0-5.9-1.16-8.15-3.48-2.25-2.32-3.37-5.15-3.37-8.49s1.12-6.17,3.37-8.49c2.25-2.32,4.96-3.48,8.15-3.48,3.76,0,6.63,1.5,8.6,4.5v-13.02ZM985.71,673.5c2.31,0,4.23-.78,5.78-2.34,1.55-1.56,2.32-3.5,2.32-5.8s-.77-4.24-2.32-5.8c-1.55-1.56-3.47-2.34-5.78-2.34s-4.19.78-5.73,2.34c-1.55,1.56-2.32,3.5-2.32,5.8s.77,4.24,2.32,5.8c1.55,1.56,3.46,2.34,5.73,2.34Z"/>
  <path class="st1" d="M1027.67,677.32c-3.43,0-6.28-1.14-8.56-3.44-2.28-2.29-3.41-5.13-3.41-8.53s1.14-6.24,3.41-8.53c2.28-2.29,5.13-3.44,8.56-3.44,2.25,0,4.26.54,6.05,1.62,1.79,1.08,3.12,2.53,4,4.35l-3.32,1.91c-.58-1.21-1.46-2.18-2.66-2.91-1.2-.73-2.56-1.09-4.07-1.09-2.28,0-4.18.77-5.71,2.32-1.53,1.55-2.3,3.47-2.3,5.78s.77,4.19,2.3,5.73c1.53,1.55,3.44,2.32,5.71,2.32,1.52,0,2.88-.36,4.1-1.07,1.21-.71,2.14-1.68,2.78-2.89l3.37,1.96c-.97,1.79-2.37,3.22-4.19,4.3-1.82,1.08-3.84,1.62-6.05,1.62Z"/>
  <path class="st1" d="M1061.62,673.86c-2.34,2.31-5.17,3.46-8.51,3.46s-6.17-1.15-8.49-3.46c-2.32-2.3-3.48-5.14-3.48-8.51s1.16-6.2,3.48-8.51c2.32-2.3,5.15-3.46,8.49-3.46s6.17,1.15,8.51,3.46c2.34,2.31,3.5,5.14,3.5,8.51s-1.17,6.21-3.5,8.51ZM1053.11,673.45c2.28,0,4.19-.77,5.73-2.32s2.32-3.47,2.32-5.78-.77-4.23-2.32-5.78c-1.55-1.55-3.46-2.32-5.73-2.32s-4.14.77-5.69,2.32-2.32,3.47-2.32,5.78.77,4.23,2.32,5.78c1.55,1.55,3.44,2.32,5.69,2.32Z"/>
  <path class="st1" d="M1082.05,653.38c2.67,0,4.81.84,6.42,2.53,1.61,1.68,2.41,3.97,2.41,6.85v13.97h-3.96v-13.74c0-1.85-.5-3.28-1.5-4.3s-2.38-1.52-4.14-1.52c-1.97,0-3.57.61-4.78,1.84-1.21,1.23-1.82,3.12-1.82,5.67v12.06h-3.96v-22.75h3.96v3.28c1.61-2.58,4.07-3.87,7.37-3.87Z"/>
  <path class="st1" d="M1108.63,653.38c2.67,0,4.81.84,6.42,2.53,1.61,1.68,2.41,3.97,2.41,6.85v13.97h-3.96v-13.74c0-1.85-.5-3.28-1.5-4.3s-2.38-1.52-4.14-1.52c-1.97,0-3.57.61-4.78,1.84-1.21,1.23-1.82,3.12-1.82,5.67v12.06h-3.96v-22.75h3.96v3.28c1.61-2.58,4.07-3.87,7.37-3.87Z"/>
  <path class="st1" d="M1126.65,667.17c.39,2.03,1.33,3.61,2.8,4.73,1.47,1.12,3.28,1.68,5.44,1.68,3,0,5.19-1.11,6.55-3.32l3.37,1.91c-2.21,3.43-5.55,5.14-10.01,5.14-3.61,0-6.55-1.13-8.81-3.39-2.26-2.26-3.39-5.12-3.39-8.58s1.11-6.28,3.32-8.56c2.21-2.28,5.08-3.41,8.6-3.41,3.34,0,6.06,1.18,8.17,3.53,2.11,2.35,3.16,5.18,3.16,8.49,0,.58-.05,1.17-.14,1.78h-19.07ZM1134.53,657.11c-2.12,0-3.88.6-5.28,1.8-1.4,1.2-2.26,2.8-2.59,4.8h15.2c-.33-2.15-1.18-3.79-2.55-4.92-1.37-1.12-2.96-1.68-4.78-1.68Z"/>
  <path class="st1" d="M1161.97,677.32c-3.43,0-6.28-1.14-8.56-3.44-2.28-2.29-3.41-5.13-3.41-8.53s1.14-6.24,3.41-8.53c2.28-2.29,5.13-3.44,8.56-3.44,2.25,0,4.26.54,6.05,1.62,1.79,1.08,3.12,2.53,4,4.35l-3.32,1.91c-.58-1.21-1.46-2.18-2.66-2.91-1.2-.73-2.56-1.09-4.07-1.09-2.28,0-4.18.77-5.71,2.32-1.53,1.55-2.3,3.47-2.3,5.78s.77,4.19,2.3,5.73c1.53,1.55,3.44,2.32,5.71,2.32,1.52,0,2.88-.36,4.1-1.07,1.21-.71,2.14-1.68,2.78-2.89l3.37,1.96c-.97,1.79-2.37,3.22-4.19,4.3-1.82,1.08-3.84,1.62-6.05,1.62Z"/>
  <path class="st1" d="M1189.41,657.8h-6.05v12.33c0,1.12.22,1.92.66,2.39.44.47,1.12.71,2.03.73.91.02,2.03,0,3.37-.07v3.55c-3.46.46-5.99.17-7.6-.84-1.61-1.02-2.41-2.94-2.41-5.76v-12.33h-4.51v-3.82h4.51v-5.19l3.96-1.18v6.37h6.05v3.82Z"/>
  <path class="st1" d="M1234.24,653.97h3.72l-6.63,22.75h-4.05l-5.43-17.06-5.4,17.06h-4.24l-6.7-22.75h4.15l5,17.29,5.37-17.29h3.9l5.36,17.3,4.94-17.3Z"/>
  <path class="st1" d="M1245.38,649.83c-.76,0-1.4-.26-1.91-.77-.52-.52-.77-1.14-.77-1.87s.26-1.36.77-1.89c.52-.53,1.15-.8,1.91-.8s1.35.27,1.87.8c.52.53.77,1.16.77,1.89s-.26,1.35-.77,1.87c-.52.52-1.14.77-1.87.77ZM1243.38,676.73v-22.75h3.96v22.75h-3.96Z"/>
  <path class="st1" d="M1266.68,657.8h-6.05v12.33c0,1.12.22,1.92.66,2.39.44.47,1.12.71,2.03.73.91.02,2.03,0,3.37-.07v3.55c-3.46.46-5.99.17-7.6-.84-1.61-1.02-2.41-2.94-2.41-5.76v-12.33h-4.51v-3.82h4.51v-5.19l3.96-1.18v6.37h6.05v3.82Z"/>
  <path class="st1" d="M1283.61,653.38c2.67,0,4.81.84,6.42,2.53,1.61,1.68,2.41,3.97,2.41,6.85v13.97h-3.96v-13.74c0-1.85-.5-3.28-1.5-4.3s-2.38-1.52-4.14-1.52c-1.97,0-3.57.61-4.78,1.84-1.21,1.23-1.82,3.12-1.82,5.67v12.06h-3.96v-31.86h3.96v12.38c1.61-2.58,4.07-3.87,7.37-3.87Z"/>
  <path class="st1" d="M1321.84,677.32c-3.43,0-6.28-1.14-8.56-3.44-2.28-2.29-3.41-5.13-3.41-8.53s1.14-6.24,3.41-8.53c2.28-2.29,5.13-3.44,8.56-3.44,2.25,0,4.26.54,6.05,1.62,1.79,1.08,3.12,2.53,4,4.35l-3.32,1.91c-.58-1.21-1.46-2.18-2.66-2.91-1.2-.73-2.56-1.09-4.07-1.09-2.28,0-4.18.77-5.71,2.32-1.53,1.55-2.3,3.47-2.3,5.78s.77,4.19,2.3,5.73c1.53,1.55,3.44,2.32,5.71,2.32,1.52,0,2.88-.36,4.1-1.07,1.21-.71,2.14-1.68,2.78-2.89l3.37,1.96c-.97,1.79-2.37,3.22-4.19,4.3-1.82,1.08-3.84,1.62-6.05,1.62Z"/>
  <path class="st1" d="M1355.79,673.86c-2.34,2.31-5.17,3.46-8.51,3.46s-6.17-1.15-8.49-3.46c-2.32-2.3-3.48-5.14-3.48-8.51s1.16-6.2,3.48-8.51c2.32-2.3,5.15-3.46,8.49-3.46s6.17,1.15,8.51,3.46c2.34,2.31,3.5,5.14,3.5,8.51s-1.17,6.21-3.5,8.51ZM1347.28,673.45c2.28,0,4.19-.77,5.73-2.32s2.32-3.47,2.32-5.78-.77-4.23-2.32-5.78c-1.55-1.55-3.46-2.32-5.73-2.32s-4.14.77-5.69,2.32-2.32,3.47-2.32,5.78.77,4.23,2.32,5.78c1.55,1.55,3.44,2.32,5.69,2.32Z"/>
  <path class="st1" d="M1376.22,653.38c2.67,0,4.81.84,6.42,2.53,1.61,1.68,2.41,3.97,2.41,6.85v13.97h-3.96v-13.74c0-1.85-.5-3.28-1.5-4.3s-2.38-1.52-4.14-1.52c-1.97,0-3.57.61-4.78,1.84-1.21,1.23-1.82,3.12-1.82,5.67v12.06h-3.96v-22.75h3.96v3.28c1.61-2.58,4.07-3.87,7.37-3.87Z"/>
  <path class="st1" d="M1394.88,660.05c0,.86.45,1.55,1.34,2.07.89.52,1.96.96,3.2,1.32,1.24.36,2.48.73,3.73,1.1,1.25.37,2.31,1.06,3.18,2.07.87,1.01,1.3,2.31,1.3,3.89,0,2.06-.8,3.72-2.39,4.96-1.59,1.24-3.63,1.87-6.12,1.87-2.22,0-4.11-.49-5.69-1.46-1.58-.97-2.7-2.26-3.37-3.87l3.41-1.96c.36,1.09,1.05,1.96,2.05,2.59s2.2.96,3.6.96c1.3,0,2.38-.25,3.23-.75s1.27-1.28,1.27-2.34c0-.88-.44-1.58-1.32-2.11-.88-.53-1.94-.98-3.18-1.35s-2.48-.74-3.73-1.12c-1.25-.38-2.32-1.05-3.2-2.02s-1.32-2.21-1.32-3.73c0-1.97.77-3.59,2.3-4.87s3.45-1.91,5.76-1.91c1.85,0,3.5.42,4.94,1.25,1.44.83,2.53,2,3.25,3.48l-3.32,1.87c-.82-1.94-2.44-2.91-4.87-2.91-1.12,0-2.08.26-2.87.78-.79.52-1.18,1.25-1.18,2.2Z"/>
  <path class="st1" d="M1428.69,653.97h3.96v22.75h-3.96v-3.28c-1.61,2.58-4.07,3.87-7.37,3.87-2.67,0-4.81-.84-6.42-2.53-1.61-1.68-2.41-3.97-2.41-6.85v-13.97h3.96v13.74c0,1.85.5,3.28,1.5,4.3s2.38,1.52,4.14,1.52c1.97,0,3.56-.61,4.78-1.84,1.21-1.23,1.82-3.12,1.82-5.67v-12.06Z"/>
  <path class="st1" d="M1464.15,653.38c2.55,0,4.61.83,6.19,2.48,1.58,1.65,2.37,3.89,2.37,6.71v14.15h-3.96v-14.02c0-1.76-.46-3.12-1.37-4.1s-2.12-1.46-3.64-1.46c-1.7,0-3.06.57-4.07,1.71-1.02,1.14-1.52,2.88-1.52,5.21v12.65h-3.96v-14.02c0-1.76-.43-3.12-1.3-4.1-.86-.97-2.04-1.46-3.53-1.46-1.67,0-3.06.58-4.16,1.73-1.11,1.15-1.66,2.88-1.66,5.19v12.65h-3.96v-22.75h3.96v3.05c1.55-2.43,3.81-3.64,6.78-3.64s5.29,1.29,6.69,3.87c1.58-2.58,3.96-3.87,7.14-3.87Z"/>
  <path class="st1" d="M1481.89,667.17c.39,2.03,1.33,3.61,2.8,4.73,1.47,1.12,3.28,1.68,5.44,1.68,3,0,5.19-1.11,6.55-3.32l3.37,1.91c-2.21,3.43-5.55,5.14-10.01,5.14-3.61,0-6.55-1.13-8.81-3.39-2.26-2.26-3.39-5.12-3.39-8.58s1.11-6.28,3.32-8.56c2.21-2.28,5.08-3.41,8.6-3.41,3.34,0,6.06,1.18,8.17,3.53,2.11,2.35,3.16,5.18,3.16,8.49,0,.58-.05,1.17-.14,1.78h-19.07ZM1489.77,657.11c-2.12,0-3.88.6-5.28,1.8-1.4,1.2-2.26,2.8-2.59,4.8h15.2c-.33-2.15-1.18-3.79-2.55-4.92-1.37-1.12-2.96-1.68-4.78-1.68Z"/>
  <path class="st1" d="M1510.52,657.8c1.3-2.82,3.67-4.23,7.1-4.23v4.14c-1.94-.09-3.61.42-5.01,1.55-1.4,1.12-2.09,2.93-2.09,5.42v12.06h-3.96v-22.75h3.96v3.82Z"/>
  <path class="st1" d="M1524.95,660.05c0,.86.45,1.55,1.34,2.07.89.52,1.96.96,3.2,1.32,1.24.36,2.48.73,3.73,1.1,1.25.37,2.31,1.06,3.18,2.07.87,1.01,1.3,2.31,1.3,3.89,0,2.06-.8,3.72-2.39,4.96-1.59,1.24-3.63,1.87-6.12,1.87-2.22,0-4.11-.49-5.69-1.46-1.58-.97-2.7-2.26-3.37-3.87l3.41-1.96c.36,1.09,1.05,1.96,2.05,2.59s2.2.96,3.6.96c1.3,0,2.38-.25,3.23-.75s1.27-1.28,1.27-2.34c0-.88-.44-1.58-1.32-2.11-.88-.53-1.94-.98-3.18-1.35s-2.48-.74-3.73-1.12c-1.25-.38-2.32-1.05-3.2-2.02s-1.32-2.21-1.32-3.73c0-1.97.77-3.59,2.3-4.87s3.45-1.91,5.76-1.91c1.85,0,3.5.42,4.94,1.25,1.44.83,2.53,2,3.25,3.48l-3.32,1.87c-.82-1.94-2.44-2.91-4.87-2.91-1.12,0-2.08.26-2.87.78-.79.52-1.18,1.25-1.18,2.2Z"/>
  <path class="st1" d="M1548.7,672.04l-2.96,11.06h-3.41l1.82-11.06h4.55Z"/>
  <path class="st0" d="M571.08,707.68h13.65v63.71h-13.65v-4.28c-3.22,3.7-7.74,5.55-13.56,5.55s-11.14-2.32-15.38-6.96c-4.25-4.64-6.37-10.33-6.37-17.07s2.12-12.42,6.37-17.07c4.25-4.64,9.38-6.96,15.38-6.96s10.34,1.85,13.56,5.55v-22.48ZM552.42,756.74c2,2,4.61,3,7.83,3s5.82-1,7.83-3c2-2,3-4.7,3-8.1s-1-6.1-3-8.1c-2-2-4.61-3-7.83-3s-5.83,1-7.83,3c-2,2-3,4.7-3,8.1s1,6.1,3,8.1Z"/>
  <path class="st0" d="M610.22,733.99c.85-2.91,2.56-5.14,5.14-6.69,2.58-1.55,5.42-2.32,8.51-2.32v15.47c-3.34-.55-6.45.02-9.33,1.68-2.88,1.67-4.32,4.57-4.32,8.69v20.57h-13.65v-45.51h13.65v8.1Z"/>
  <path class="st0" d="M644.67,719.47c-1.61,1.61-3.54,2.41-5.78,2.41s-4.17-.8-5.78-2.41c-1.61-1.61-2.41-3.53-2.41-5.78s.8-4.17,2.41-5.78c1.61-1.61,3.53-2.41,5.78-2.41s4.17.8,5.78,2.41c1.61,1.61,2.41,3.54,2.41,5.78s-.81,4.17-2.41,5.78ZM632.06,771.39v-45.51h13.65v45.51h-13.65Z"/>
  <path class="st0" d="M686.58,725.89h15.11l-16.94,45.51h-15.28l-16.94-45.51h15.11l9.47,28.73,9.46-28.73Z"/>
  <path class="st0" d="M721.12,719.47c-1.61,1.61-3.54,2.41-5.78,2.41s-4.17-.8-5.78-2.41c-1.61-1.61-2.41-3.53-2.41-5.78s.8-4.17,2.41-5.78c1.61-1.61,3.53-2.41,5.78-2.41s4.17.8,5.78,2.41c1.61,1.61,2.41,3.54,2.41,5.78s-.81,4.17-2.41,5.78ZM708.52,771.39v-45.51h13.65v45.51h-13.65Z"/>
  <path class="st0" d="M760.67,724.61c4.85,0,8.9,1.67,12.15,5.01,3.25,3.34,4.87,7.95,4.87,13.83v27.94h-13.65v-25.94c0-2.67-.74-4.72-2.23-6.14-1.49-1.42-3.38-2.14-5.69-2.14-2.61,0-4.67.79-6.19,2.37-1.52,1.58-2.28,3.91-2.28,7.01v24.85h-13.65v-45.51h13.65v4.28c2.73-3.7,7.07-5.55,13.02-5.55Z"/>
  <path class="st0" d="M822.29,725.89h13.29v43.23c0,7.16-2.34,12.57-7.01,16.25-4.67,3.67-10.35,5.51-17.02,5.51-10.26,0-17.45-3.67-21.57-11.01l11.65-6.74c2.06,3.82,5.52,5.73,10.38,5.73,3.22,0,5.73-.83,7.55-2.5s2.73-4.08,2.73-7.24v-4.19c-3.16,3.94-7.59,5.92-13.29,5.92-6.37,0-11.7-2.26-15.97-6.78-4.28-4.52-6.42-9.97-6.42-16.34s2.14-11.82,6.42-16.34c4.28-4.52,9.6-6.78,15.97-6.78,5.7,0,10.13,1.97,13.29,5.92v-4.64ZM803.36,755.38c2.06,1.94,4.7,2.91,7.92,2.91s5.85-.97,7.92-2.91c2.06-1.94,3.09-4.49,3.09-7.64s-1.03-5.7-3.09-7.65c-2.06-1.94-4.7-2.91-7.92-2.91s-5.86.97-7.92,2.91c-2.06,1.94-3.09,4.49-3.09,7.65s1.03,5.7,3.09,7.64Z"/>
  <path class="st0" d="M922.96,724.61c5.22,0,9.4,1.72,12.56,5.14,3.15,3.43,4.73,8,4.73,13.7v27.94h-13.65v-26.76c0-2.31-.56-4.13-1.68-5.46-1.12-1.33-2.75-2-4.87-2-2.25,0-3.99.76-5.23,2.28-1.24,1.52-1.87,3.61-1.87,6.28v25.67h-13.65v-26.76c0-2.31-.56-4.13-1.68-5.46-1.12-1.33-2.75-2-4.87-2-2.25,0-3.99.76-5.23,2.28-1.24,1.52-1.87,3.61-1.87,6.28v25.67h-13.65v-45.51h13.65v4.19c2.49-3.64,6.55-5.46,12.2-5.46,5.28,0,9.25,2,11.92,6.01,2.79-4,7.19-6.01,13.2-6.01Z"/>
  <path class="st0" d="M963.64,754.1c1.58,4.25,5.22,6.37,10.92,6.37,3.7,0,6.61-1.15,8.74-3.46l10.92,6.28c-4.49,6.25-11.1,9.38-19.84,9.38-7.65,0-13.76-2.28-18.34-6.83-4.58-4.55-6.87-10.29-6.87-17.2s2.26-12.58,6.78-17.16c4.52-4.58,10.33-6.87,17.43-6.87,6.61,0,12.12,2.29,16.52,6.87,4.4,4.58,6.6,10.3,6.6,17.16,0,1.94-.18,3.76-.55,5.46h-32.31ZM963.37,743.91h19.57c-1.34-4.79-4.55-7.19-9.65-7.19s-8.59,2.4-9.92,7.19Z"/>
  <path class="st0" d="M1038.64,725.89h13.65v45.51h-13.65v-4.28c-3.22,3.7-7.74,5.55-13.56,5.55s-11.13-2.32-15.38-6.96c-4.25-4.64-6.37-10.33-6.37-17.07s2.12-12.42,6.37-17.07c4.25-4.64,9.38-6.96,15.38-6.96s10.34,1.85,13.56,5.55v-4.28ZM1019.98,756.74c2,2,4.61,3,7.83,3s5.83-1,7.83-3c2-2,3-4.7,3-8.1s-1-6.1-3-8.1-4.61-3-7.83-3-5.83,1-7.83,3c-2,2-3,4.7-3,8.1s1,6.1,3,8.1Z"/>
  <path class="st0" d="M1076.59,739.17c0,.91.77,1.65,2.32,2.23,1.55.58,3.41,1.15,5.6,1.73,2.18.58,4.37,1.32,6.55,2.23s4.05,2.41,5.6,4.51c1.55,2.09,2.32,4.72,2.32,7.87,0,4.92-1.82,8.63-5.46,11.15s-8.13,3.78-13.47,3.78c-9.59,0-16.11-3.61-19.57-10.83l11.83-6.74c1.21,3.58,3.79,5.37,7.74,5.37,3.28,0,4.92-.94,4.92-2.82,0-.91-.77-1.67-2.32-2.28-1.55-.61-3.41-1.2-5.6-1.77-2.18-.58-4.37-1.33-6.55-2.28-2.18-.94-4.05-2.41-5.6-4.41-1.55-2-2.32-4.46-2.32-7.37,0-4.73,1.71-8.4,5.14-11.01,3.43-2.61,7.66-3.91,12.7-3.91,3.76,0,7.19.83,10.29,2.5,3.09,1.67,5.58,4.08,7.46,7.24l-11.65,6.28c-1.46-2.67-3.49-4-6.1-4s-3.82.85-3.82,2.55Z"/>
  <path class="st0" d="M1137.03,725.89h13.65v45.51h-13.65v-4.28c-2.73,3.7-7.07,5.55-13.02,5.55-4.85,0-8.91-1.67-12.15-5.01-3.25-3.34-4.87-7.95-4.87-13.83v-27.94h13.65v25.94c0,2.67.74,4.72,2.23,6.14,1.49,1.43,3.38,2.14,5.69,2.14,2.61,0,4.67-.79,6.19-2.37,1.52-1.58,2.28-3.91,2.28-7.01v-24.85Z"/>
  <path class="st0" d="M1176.17,733.99c.85-2.91,2.56-5.14,5.14-6.69,2.58-1.55,5.42-2.32,8.51-2.32v15.47c-3.34-.55-6.45.02-9.33,1.68s-4.32,4.57-4.32,8.69v20.57h-13.65v-45.51h13.65v8.1Z"/>
  <path class="st0" d="M1229.68,725.89h13.65v45.51h-13.65v-4.28c-3.22,3.7-7.74,5.55-13.56,5.55s-11.13-2.32-15.38-6.96c-4.25-4.64-6.37-10.33-6.37-17.07s2.12-12.42,6.37-17.07c4.25-4.64,9.38-6.96,15.38-6.96s10.34,1.85,13.56,5.55v-4.28ZM1211.03,756.74c2,2,4.61,3,7.83,3s5.83-1,7.83-3c2-2,3-4.7,3-8.1s-1-6.1-3-8.1-4.61-3-7.83-3-5.83,1-7.83,3c-2,2-3,4.7-3,8.1s1,6.1,3,8.1Z"/>
  <path class="st0" d="M1282.38,724.61c6.01,0,11.13,2.32,15.38,6.96,4.25,4.64,6.37,10.33,6.37,17.07s-2.12,12.42-6.37,17.07c-4.25,4.64-9.38,6.96-15.38,6.96s-10.35-1.85-13.56-5.55v4.28h-13.65v-63.71h13.65v22.48c3.22-3.7,7.74-5.55,13.56-5.55ZM1271.87,756.74c2.03,2,4.63,3,7.78,3s5.75-1,7.78-3c2.03-2,3.05-4.7,3.05-8.1s-1.02-6.1-3.05-8.1c-2.03-2-4.63-3-7.78-3s-5.75,1-7.78,3c-2.03,2-3.05,4.7-3.05,8.1s1.02,6.1,3.05,8.1Z"/>
  <path class="st0" d="M1313.69,771.39v-66.44h13.65v66.44h-13.65Z"/>
  <path class="st0" d="M1351.38,754.1c1.58,4.25,5.22,6.37,10.92,6.37,3.7,0,6.61-1.15,8.74-3.46l10.92,6.28c-4.49,6.25-11.1,9.38-19.84,9.38-7.65,0-13.76-2.28-18.34-6.83-4.58-4.55-6.87-10.29-6.87-17.2s2.26-12.58,6.78-17.16c4.52-4.58,10.33-6.87,17.43-6.87,6.61,0,12.12,2.29,16.52,6.87,4.4,4.58,6.6,10.3,6.6,17.16,0,1.94-.18,3.76-.55,5.46h-32.31ZM1351.1,743.91h19.57c-1.34-4.79-4.55-7.19-9.65-7.19s-8.59,2.4-9.92,7.19Z"/>
  <path class="st4" d="M667.7,815.64c6.01,0,11.13,2.32,15.38,6.96,4.25,4.64,6.37,10.33,6.37,17.07s-2.12,12.42-6.37,17.07c-4.25,4.64-9.38,6.96-15.38,6.96s-10.35-1.85-13.56-5.55v4.28h-13.65v-63.71h13.65v22.48c3.22-3.7,7.74-5.55,13.56-5.55ZM657.19,847.77c2.03,2,4.63,3,7.78,3s5.75-1,7.78-3c2.03-2,3.05-4.7,3.05-8.1s-1.02-6.1-3.05-8.1c-2.03-2-4.63-3-7.78-3s-5.75,1-7.78,3c-2.03,2-3.05,4.7-3.05,8.1s1.02,6.1,3.05,8.1Z"/>
  <path class="st4" d="M712.66,825.01c.85-2.91,2.56-5.14,5.14-6.69,2.58-1.55,5.42-2.32,8.51-2.32v15.47c-3.34-.55-6.45.02-9.33,1.68-2.88,1.67-4.32,4.57-4.32,8.69v20.57h-13.65v-45.51h13.65v8.1Z"/>
  <path class="st4" d="M766.18,816.91h13.65v45.51h-13.65v-4.28c-3.22,3.7-7.74,5.55-13.56,5.55s-11.14-2.32-15.38-6.96c-4.25-4.64-6.37-10.33-6.37-17.07s2.12-12.42,6.37-17.07c4.25-4.64,9.38-6.96,15.38-6.96s10.34,1.85,13.56,5.55v-4.28ZM747.52,847.77c2,2,4.61,3,7.83,3s5.82-1,7.83-3c2-2,3-4.7,3-8.1s-1-6.1-3-8.1c-2-2-4.61-3-7.83-3s-5.83,1-7.83,3c-2,2-3,4.7-3,8.1s1,6.1,3,8.1Z"/>
  <path class="st4" d="M818.33,815.64c4.85,0,8.9,1.67,12.15,5.01,3.25,3.34,4.87,7.95,4.87,13.83v27.94h-13.65v-25.94c0-2.67-.74-4.72-2.23-6.14-1.49-1.42-3.38-2.14-5.69-2.14-2.61,0-4.67.79-6.19,2.37-1.52,1.58-2.28,3.91-2.28,7.01v24.85h-13.65v-45.51h13.65v4.28c2.73-3.7,7.07-5.55,13.02-5.55Z"/>
  <path class="st4" d="M879.59,798.71h13.65v63.71h-13.65v-4.28c-3.22,3.7-7.74,5.55-13.56,5.55s-11.14-2.32-15.38-6.96c-4.25-4.64-6.37-10.33-6.37-17.07s2.12-12.42,6.37-17.07c4.25-4.64,9.38-6.96,15.38-6.96s10.34,1.85,13.56,5.55v-22.48ZM860.93,847.77c2,2,4.61,3,7.83,3s5.82-1,7.83-3c2-2,3-4.7,3-8.1s-1-6.1-3-8.1c-2-2-4.61-3-7.83-3s-5.83,1-7.83,3c-2,2-3,4.7-3,8.1s1,6.1,3,8.1Z"/>
  <path class="st4" d="M942.57,830.2c0,.91.77,1.65,2.32,2.23,1.55.58,3.41,1.15,5.6,1.73,2.18.58,4.37,1.32,6.55,2.23,2.18.91,4.05,2.41,5.6,4.51,1.55,2.09,2.32,4.72,2.32,7.87,0,4.92-1.82,8.63-5.46,11.15-3.64,2.52-8.13,3.78-13.47,3.78-9.59,0-16.11-3.61-19.57-10.83l11.83-6.74c1.21,3.58,3.79,5.37,7.74,5.37,3.28,0,4.92-.94,4.92-2.82,0-.91-.77-1.67-2.32-2.28-1.55-.61-3.41-1.2-5.6-1.77-2.18-.58-4.37-1.33-6.55-2.28-2.18-.94-4.05-2.41-5.6-4.41-1.55-2-2.32-4.46-2.32-7.37,0-4.73,1.71-8.4,5.14-11.01,3.43-2.61,7.66-3.91,12.7-3.91,3.76,0,7.19.83,10.29,2.5,3.09,1.67,5.58,4.08,7.46,7.24l-11.65,6.28c-1.46-2.67-3.49-4-6.1-4s-3.82.85-3.82,2.55Z"/>
  <path class="st4" d="M1003.01,816.91h13.65v45.51h-13.65v-4.28c-2.73,3.7-7.07,5.55-13.02,5.55-4.85,0-8.91-1.67-12.15-5.01-3.25-3.34-4.87-7.95-4.87-13.83v-27.94h13.65v25.94c0,2.67.74,4.72,2.23,6.14,1.49,1.43,3.38,2.14,5.69,2.14,2.61,0,4.67-.79,6.19-2.37,1.52-1.58,2.28-3.91,2.28-7.01v-24.85Z"/>
  <path class="st4" d="M1050.34,863.7c-6.92,0-12.67-2.31-17.25-6.92-4.58-4.61-6.87-10.31-6.87-17.11s2.29-12.5,6.87-17.11c4.58-4.61,10.33-6.92,17.25-6.92,4.37,0,8.39,1.06,12.06,3.19,3.67,2.12,6.51,4.95,8.51,8.46l-11.92,6.92c-1.64-3.4-4.58-5.1-8.83-5.1-2.97,0-5.43.99-7.37,2.96-1.94,1.97-2.91,4.51-2.91,7.6s.97,5.63,2.91,7.6c1.94,1.97,4.4,2.96,7.37,2.96,4.31,0,7.25-1.7,8.83-5.1l11.92,6.83c-2,3.58-4.82,6.43-8.46,8.56s-7.68,3.19-12.1,3.19Z"/>
  <path class="st4" d="M1099.12,863.7c-6.92,0-12.67-2.31-17.25-6.92-4.58-4.61-6.87-10.31-6.87-17.11s2.29-12.5,6.87-17.11c4.58-4.61,10.33-6.92,17.25-6.92,4.37,0,8.39,1.06,12.06,3.19,3.67,2.12,6.51,4.95,8.51,8.46l-11.92,6.92c-1.64-3.4-4.58-5.1-8.83-5.1-2.97,0-5.43.99-7.37,2.96-1.94,1.97-2.91,4.51-2.91,7.6s.97,5.63,2.91,7.6c1.94,1.97,4.4,2.96,7.37,2.96,4.31,0,7.25-1.7,8.83-5.1l11.92,6.83c-2,3.58-4.82,6.43-8.46,8.56s-7.68,3.19-12.1,3.19Z"/>
  <path class="st4" d="M1138.26,845.13c1.58,4.25,5.22,6.37,10.92,6.37,3.7,0,6.61-1.15,8.74-3.46l10.92,6.28c-4.49,6.25-11.1,9.38-19.84,9.38-7.65,0-13.76-2.28-18.34-6.83-4.58-4.55-6.87-10.29-6.87-17.2s2.26-12.58,6.78-17.16c4.52-4.58,10.33-6.87,17.43-6.87,6.61,0,12.12,2.29,16.52,6.87,4.4,4.58,6.6,10.3,6.6,17.16,0,1.94-.18,3.76-.55,5.46h-32.31ZM1137.99,834.93h19.57c-1.34-4.79-4.55-7.19-9.65-7.19s-8.59,2.4-9.92,7.19Z"/>
  <path class="st4" d="M1191.78,830.2c0,.91.77,1.65,2.32,2.23,1.55.58,3.41,1.15,5.6,1.73,2.18.58,4.37,1.32,6.55,2.23s4.05,2.41,5.6,4.51c1.55,2.09,2.32,4.72,2.32,7.87,0,4.92-1.82,8.63-5.46,11.15s-8.13,3.78-13.47,3.78c-9.59,0-16.11-3.61-19.57-10.83l11.83-6.74c1.21,3.58,3.79,5.37,7.74,5.37,3.28,0,4.92-.94,4.92-2.82,0-.91-.77-1.67-2.32-2.28-1.55-.61-3.41-1.2-5.6-1.77-2.18-.58-4.37-1.33-6.55-2.28-2.18-.94-4.05-2.41-5.6-4.41-1.55-2-2.32-4.46-2.32-7.37,0-4.73,1.71-8.4,5.14-11.01,3.43-2.61,7.66-3.91,12.7-3.91,3.76,0,7.19.83,10.29,2.5,3.09,1.67,5.58,4.08,7.46,7.24l-11.65,6.28c-1.46-2.67-3.49-4-6.1-4s-3.82.85-3.82,2.55Z"/>
  <path class="st4" d="M1233.46,830.2c0,.91.77,1.65,2.32,2.23,1.55.58,3.41,1.15,5.6,1.73,2.18.58,4.37,1.32,6.55,2.23s4.05,2.41,5.6,4.51c1.55,2.09,2.32,4.72,2.32,7.87,0,4.92-1.82,8.63-5.46,11.15s-8.13,3.78-13.47,3.78c-9.59,0-16.11-3.61-19.57-10.83l11.83-6.74c1.21,3.58,3.79,5.37,7.74,5.37,3.28,0,4.92-.94,4.92-2.82,0-.91-.77-1.67-2.32-2.28-1.55-.61-3.41-1.2-5.6-1.77-2.18-.58-4.37-1.33-6.55-2.28-2.18-.94-4.05-2.41-5.6-4.41-1.55-2-2.32-4.46-2.32-7.37,0-4.73,1.71-8.4,5.14-11.01,3.43-2.61,7.66-3.91,12.7-3.91,3.76,0,7.19.83,10.29,2.5,3.09,1.67,5.58,4.08,7.46,7.24l-11.65,6.28c-1.46-2.67-3.49-4-6.1-4s-3.82.85-3.82,2.55Z"/>
  <path class="st4" d="M1277.88,861.15c-1.7,1.7-3.73,2.55-6.1,2.55s-4.4-.85-6.1-2.55c-1.7-1.7-2.55-3.73-2.55-6.1s.85-4.4,2.55-6.1c1.7-1.7,3.73-2.55,6.1-2.55s4.4.85,6.1,2.55c1.7,1.7,2.55,3.73,2.55,6.1s-.85,4.4-2.55,6.1Z"/>
</svg>