<?xml version="1.0" encoding="UTF-8"?>
<svg id="Layer_1" data-name="Layer 1" xmlns="http://www.w3.org/2000/svg" viewBox="0 0 110 30">
  <defs>
    <style>
      .cls-1 {
        fill: #fff;
      }

      .cls-2 {
        fill: #ffcd00;
      }
    </style>
  </defs>
  <g>
    <path class="cls-2" d="M27.66,6.74h-5.51s-.09.04-.09.09v1.1s.04.09.09.09h2.03v6.77s.04.09.09.09h1.29s.09-.04.09-.09v-6.77h2.02s.09-.04.09-.09v-1.1s-.04-.09-.09-.09h0Z"/>
    <path class="cls-2" d="M36.14,6.74h-4.44s-.09.04-.09.09v7.96s.04.09.09.09h4.44s.09-.04.09-.09v-1.1s-.04-.09-.09-.09h-3.06v-2.14h2.41s.09-.04.09-.09v-1.14s-.04-.09-.09-.09h-2.41v-2.14h3.06s.09-.04.09-.09v-1.1s-.04-.09-.09-.09h0Z"/>
    <path class="cls-2" d="M43.09,10.1s-.09-.04-.16-.08c-.86-.4-1.3-.82-1.3-1.26,0-.28.09-.5.28-.66.19-.17.45-.25.77-.25.23,0,.43.05.61.16.18.11.35.28.5.52.02.04.07.05.12.03l1.01-.52s.06-.07.04-.11c-.16-.44-.45-.79-.86-1.02-.41-.23-.92-.35-1.52-.35-.73,0-1.34.21-1.79.63-.46.42-.69.97-.69,1.64,0,.52.15.97.46,1.33.3.36.89.75,1.79,1.19.06.02.14.06.25.12.74.35,1.11.74,1.11,1.17,0,.34-.1.6-.31.79-.21.2-.5.3-.85.3-.39,0-.7-.09-.95-.26-.24-.17-.41-.43-.5-.76,0-.02-.02-.05-.05-.06s-.05-.01-.07,0l-1.03.48s-.06.06-.05.1c.14.6.44,1.07.89,1.39.45.32,1.02.48,1.72.48.83,0,1.5-.23,1.99-.69.49-.46.74-1.09.74-1.86,0-.54-.15-.99-.46-1.35-.3-.35-.86-.72-1.65-1.09h0Z"/>
    <path class="cls-2" d="M51.74,10.37l3.1-3.48s.03-.06.01-.1-.05-.05-.08-.05h-1.58s-.05.01-.07.03l-2.7,3.12v-3.06s-.04-.09-.09-.09h-1.29s-.09.04-.09.09v7.96s.04.09.09.09h1.29s.09-.04.09-.09v-3.81l2.99,3.86s.04.03.07.03h1.67s.06-.02.08-.05.01-.07-.01-.09l-3.48-4.36h0Z"/>
    <rect class="cls-2" x="58.76" y="1.44" width="1.47" height="13.44" rx=".66" ry=".66"/>
    <path class="cls-2" d="M68.37,13.54h-2.8v-6.71s-.04-.09-.09-.09h-1.29s-.09.04-.09.09v7.96s.04.09.09.09h4.19s.09-.04.09-.09v-1.16s-.04-.09-.09-.09Z"/>
    <path class="cls-2" d="M75.91,6.47s-.05-.05-.08-.05-.07.02-.08.05l-3.85,8.28s-.01.06,0,.08c.02.02.04.04.07.04h1.36s.07-.02.08-.05l.9-2h3.04l.88,2s.05.05.08.05h1.36s.06-.01.07-.04c.02-.02.02-.06,0-.08l-3.85-8.28h0ZM75.64,9.88c.05-.13.1-.27.15-.42.02-.06.04-.12.06-.18.02.07.04.14.06.2.05.15.1.29.15.41l.76,1.69h-1.94l.76-1.69h0Z"/>
    <path class="cls-2" d="M87.86,6.74h-5.51s-.09.04-.09.09v1.1s.04.09.09.09h2.03v6.77s.04.09.09.09h1.29s.09-.04.09-.09v-6.77h2.02s.09-.04.09-.09v-1.1s-.04-.09-.09-.09h0Z"/>
    <rect class="cls-2" x="41.8" y="14.83" width="1.47" height="5.34" rx=".66" ry=".66"/>
  </g>
  <g>
    <g>
      <path class="cls-1" d="M66.69,22.49c0,.39-.14.77-.4,1.03-.26.26-.63.35-1.02.35s-.74-.13-.99-.39-.44-.6-.44-1,.2-.72.45-.98c.26-.26.59-.42.98-.42s.77.12,1.02.37.4.63.4,1.03h0Z"/>
      <path class="cls-1" d="M65.32,25.37c0,.48-.18.93-.49,1.24-.31.31-.76.48-1.24.48s-.94-.15-1.25-.46c-.31-.31-.54-.78-.54-1.26s.28-.89.6-1.2c.31-.31.72-.57,1.2-.57s.92.23,1.23.54c.31.31.5.75.5,1.24h0Z"/>
      <path class="cls-1" d="M63.74,21.13c0,.44-.17.8-.45,1.09s-.65.48-1.09.48-.79-.2-1.08-.49-.55-.64-.55-1.08.22-.84.5-1.13.69-.41,1.13-.41.84.12,1.13.41.41.69.41,1.13h0Z"/>
      <path class="cls-1" d="M68.13,26.19c0,.38-.13.7-.37.94-.25.25-.56.46-.94.46s-.74-.16-.99-.41-.39-.62-.39-.99.14-.75.38-1c.25-.25.62-.32.99-.32s.75.07,1,.32c.25.25.32.62.32,1h0Z"/>
      <path class="cls-1" d="M67.91,23.93c0,.42-.36.77-.77.77s-.75-.35-.75-.77.34-.76.75-.76.77.35.77.76Z"/>
      <path class="cls-1" d="M67.03,20.43c0,.41-.32.77-.74.77s-.77-.36-.77-.77.36-.76.77-.76.74.34.74.76Z"/>
      <path class="cls-1" d="M62.08,23.85c0,.56-.49,1.04-1.05,1.04s-1.04-.48-1.04-1.04.49-1.02,1.04-1.02,1.05.46,1.05,1.02Z"/>
      <path class="cls-1" d="M69.08,22.61c0,.44-.36.81-.8.81s-.78-.37-.78-.81.34-.8.78-.8.8.36.8.8Z"/>
      <path class="cls-1" d="M65.92,27.73c0,.45-.39.83-.83.83s-.83-.38-.83-.83.38-.79.83-.79.83.34.83.79Z"/>
      <path class="cls-1" d="M64.56,19.31c0,.3-.24.55-.55.55s-.56-.24-.56-.55.26-.56.56-.56.55.25.55.56Z"/>
      <path class="cls-1" d="M65.34,20.23c0,.29-.23.51-.51.51s-.53-.23-.53-.51.24-.5.53-.5.51.22.51.5Z"/>
      <path class="cls-1" d="M65.69,19.24c0,.21-.16.38-.37.38s-.36-.17-.36-.38.15-.36.36-.36.37.15.37.36Z"/>
      <path class="cls-1" d="M64.14,20.25c0,.1-.09.18-.19.18s-.18-.08-.18-.18.08-.18.18-.18.19.07.19.18Z"/>
      <path class="cls-1" d="M64.55,20.97c0,.16-.14.28-.29.28s-.28-.12-.28-.28.13-.28.28-.28.29.12.29.28Z"/>
      <path class="cls-1" d="M63.35,19.3c0,.16-.13.28-.29.28s-.29-.12-.29-.28.13-.29.29-.29.29.13.29.29Z"/>
      <path class="cls-1" d="M60.74,22.26c0,.31-.24.56-.55.56s-.58-.25-.58-.56.27-.55.58-.55.55.23.55.55Z"/>
      <path class="cls-1" d="M61.74,26.4c0,.39-.31.71-.69.71s-.68-.32-.68-.71.3-.71.68-.71.69.32.69.71Z"/>
      <path class="cls-1" d="M64.03,27.83c0,.22-.17.4-.39.4s-.42-.17-.42-.4.19-.41.42-.41.39.18.39.41Z"/>
      <path class="cls-1" d="M63.77,23.04c0,.26-.2.48-.46.48s-.46-.22-.46-.48.2-.47.46-.47.46.21.46.47Z"/>
      <path class="cls-1" d="M62.68,23.3c0,.16-.13.3-.29.3s-.3-.13-.3-.3.14-.3.3-.3.29.13.29.3Z"/>
      <path class="cls-1" d="M66.3,24.47c0,.27-.22.48-.49.48s-.48-.21-.48-.48.22-.49.48-.49.49.22.49.49Z"/>
      <path class="cls-1" d="M67.82,21.43c0,.29-.23.53-.52.53s-.51-.24-.51-.53.22-.5.51-.5.52.21.52.5Z"/>
      <path class="cls-1" d="M60.04,23.18c0,.18-.13.32-.31.32s-.32-.14-.32-.32.14-.33.32-.33.31.15.31.33Z"/>
      <path class="cls-1" d="M60.1,24.71c0,.16-.13.29-.29.29s-.28-.13-.28-.29.12-.28.28-.28.29.12.29.28Z"/>
      <path class="cls-1" d="M60.59,25.54c0,.22-.18.4-.4.4s-.39-.18-.39-.4.17-.4.39-.4.4.18.4.4Z"/>
      <path class="cls-1" d="M61.43,25.27c0,.16-.12.3-.29.3s-.3-.14-.3-.3.14-.3.3-.3.29.14.29.3Z"/>
      <path class="cls-1" d="M62.25,26.96c0,.16-.12.3-.28.3s-.3-.14-.3-.3.14-.3.3-.3.28.13.28.3Z"/>
      <path class="cls-1" d="M69.21,24.06c0,.31-.27.56-.57.56s-.56-.26-.56-.56.25-.55.56-.55.57.24.57.55Z"/>
      <path class="cls-1" d="M68.68,25.07c0,.19-.14.34-.33.34s-.33-.15-.33-.34.14-.34.33-.34.33.16.33.34Z"/>
      <path class="cls-1" d="M68.56,21.34c0,.16-.12.28-.28.28s-.3-.12-.3-.28.14-.29.3-.29.28.13.28.29Z"/>
      <path class="cls-1" d="M67.38,22.41c0,.15-.12.27-.27.27s-.26-.12-.26-.27.11-.28.26-.28.27.13.27.28Z"/>
      <path class="cls-1" d="M67.88,20.43c0,.19-.16.36-.35.36s-.35-.17-.35-.36.16-.33.35-.33.35.14.35.33Z"/>
      <path class="cls-1" d="M66.43,19.36c0,.1-.08.18-.19.18s-.2-.08-.2-.18.09-.18.2-.18.19.08.19.18Z"/>
      <path class="cls-1" d="M66.99,19.63c0,.07-.06.14-.13.14s-.13-.06-.13-.14.06-.13.13-.13.13.06.13.13Z"/>
      <path class="cls-1" d="M63.09,27.7c0,.31-.23.56-.54.56s-.55-.26-.55-.56.24-.56.55-.56.54.25.54.56Z"/>
    </g>
    <g>
      <path class="cls-1" d="M71.14,25.52h.36l.03.16c.05-.06.21-.18.45-.18.31,0,.65.24.65.66v.9h-.4v-.85c0-.21-.16-.36-.35-.36-.15,0-.35.11-.35.36v.85h-.4v-1.54h0Z"/>
      <path class="cls-1" d="M73.67,27.09c-.15,0-.29-.03-.41-.1-.12-.07-.21-.16-.27-.28-.06-.12-.1-.26-.1-.42s.03-.29.1-.4.15-.21.27-.28.24-.1.39-.1.28.03.39.1c.11.06.2.15.26.27.06.11.09.25.09.4,0,.02,0,.05,0,.08,0,.03,0,.06-.01.09h-1.06c0,.07.03.12.06.17.03.05.08.08.13.11.05.03.11.04.17.04.08,0,.14-.01.21-.05s.1-.07.13-.13l.35.1c-.06.13-.15.23-.27.31-.12.07-.26.11-.42.11h0ZM73.96,26.14c0-.06-.02-.11-.05-.16-.03-.05-.07-.08-.11-.11s-.1-.04-.16-.04c-.05,0-.1.01-.14.04-.04.03-.08.06-.12.11-.03.04-.05.1-.06.16h.64Z"/>
      <path class="cls-1" d="M74.82,25.52v-.39h.4v.39h.34v.35h-.34v.63c0,.08.02.14.05.17.03.03.08.05.13.05.05,0,.11,0,.16,0v.34c-.09.02-.19.03-.28.02s-.17-.03-.24-.07-.12-.1-.16-.18-.06-.19-.06-.32v-.63h-.22v-.35h.22Z"/>
      <path class="cls-1" d="M76.68,27.07h-.4l-.46-1.54h.41l.26,1.04.27-1.04h.4l.26,1.04.25-1.04h.4l-.46,1.54h-.41l-.26-.97-.26.97h0Z"/>
      <path class="cls-1" d="M79,27.09c-.15,0-.28-.03-.4-.1s-.21-.16-.28-.27-.1-.26-.1-.42.03-.3.1-.42c.07-.12.16-.21.28-.28s.25-.1.4-.1.28.03.4.1c.12.06.21.16.28.27.07.12.1.26.1.42s-.04.3-.11.42c-.07.12-.17.21-.29.28-.12.06-.26.1-.41.1ZM79,26.73c.06,0,.12-.02.18-.05.06-.03.1-.08.14-.14s.06-.15.06-.25-.02-.18-.05-.24c-.03-.06-.08-.11-.14-.14-.06-.03-.12-.05-.18-.05s-.12.02-.18.05c-.05.03-.1.08-.13.14-.03.06-.05.15-.05.25s.02.18.05.24c.03.06.07.11.13.14.05.03.11.05.18.05h0Z"/>
      <path class="cls-1" d="M80.08,25.52h.36l.03.2c.04-.05.09-.1.15-.13s.11-.06.18-.07c.07-.01.13-.01.21,0v.37c-.06-.02-.11-.02-.17-.01-.06,0-.12.03-.17.06s-.1.08-.13.15c-.03.06-.05.15-.05.25v.73h-.4v-1.54Z"/>
      <path class="cls-1" d="M81.29,25.13h.4v1h.1l.51-.6h.52l-.68.77.69.78h-.52l-.52-.61h-.1v.61h-.4v-1.94h0Z"/>
    </g>
    <g>
      <path class="cls-1" d="M72.1,24.09h-.96v-3.8h.96v3.8Z"/>
      <path class="cls-1" d="M74.88,20.23c.61,0,1.01.21,1.4.53l-.47.68c-.27-.24-.57-.37-.93-.37-.69,0-1.13.49-1.13,1.12s.43,1.12,1.13,1.12c.36,0,.67-.12.93-.37l.47.68c-.39.32-.79.53-1.4.53-1.29,0-2.1-.9-2.1-1.96s.81-1.96,2.1-1.96Z"/>
      <path class="cls-1" d="M76.57,22.19c0-1.07.85-1.96,2.01-1.96s2.01.89,2.01,1.96-.85,1.96-2.01,1.96-2.01-.89-2.01-1.96h0ZM79.64,22.19c0-.63-.45-1.11-1.05-1.11s-1.05.48-1.05,1.11.44,1.11,1.05,1.11,1.05-.48,1.05-1.11Z"/>
      <polygon class="cls-1" points="84.52 20.29 83.53 22.69 82.54 20.29 81.29 20.29 81.29 24.09 82.25 24.09 82.25 21.71 83.22 24.04 83.84 24.04 84.81 21.71 84.81 24.09 85.77 24.09 85.77 20.29 84.52 20.29"/>
    </g>
  </g>
</svg>