<?xml version="1.0" encoding="UTF-8"?>
<svg id="Layer_1" data-name="Layer 1" xmlns="http://www.w3.org/2000/svg" viewBox="0 0 60 30">
  <defs>
    <style>
      .cls-1 {
        fill: #291e7f;
      }
    </style>
  </defs>
  <g>
    <path class="cls-1" d="M18.44,12.71c0,.77-.28,1.51-.78,2.01-.5.5-1.24.69-2,.69s-1.44-.25-1.94-.76c-.5-.5-.86-1.18-.86-1.95s.39-1.42.89-1.92c.5-.5,1.15-.82,1.91-.82s1.5.23,2,.73.78,1.24.78,2.01h0Z"/>
    <path class="cls-1" d="M15.77,18.35c0,.94-.35,1.82-.96,2.44-.61.62-1.49.94-2.43.94s-1.84-.29-2.46-.91c-.61-.62-1.06-1.53-1.06-2.47s.56-1.74,1.17-2.36c.61-.62,1.41-1.12,2.35-1.12s1.79.44,2.41,1.06c.61.62.98,1.48.98,2.42h0Z"/>
    <path class="cls-1" d="M12.67,10.06c0,.86-.33,1.57-.89,2.14-.56.57-1.27.94-2.13.94s-1.55-.39-2.11-.95c-.56-.57-1.08-1.26-1.08-2.12s.42-1.65.99-2.22,1.35-.8,2.21-.8,1.64.24,2.21.8c.56.57.81,1.35.81,2.22h0Z"/>
    <path class="cls-1" d="M21.26,19.96c0,.74-.25,1.36-.73,1.85-.48.49-1.1.89-1.84.89s-1.45-.31-1.94-.8c-.48-.49-.76-1.2-.76-1.94s.27-1.47.75-1.95c.48-.49,1.21-.64,1.94-.64s1.47.14,1.96.62c.48.49.62,1.23.62,1.97h0Z"/>
    <path class="cls-1" d="M20.84,15.53c0,.82-.7,1.5-1.52,1.5s-1.48-.68-1.48-1.5.67-1.49,1.48-1.49,1.52.68,1.52,1.49Z"/>
    <path class="cls-1" d="M19.1,8.67c0,.81-.64,1.52-1.44,1.52s-1.51-.7-1.51-1.52.7-1.48,1.51-1.48,1.44.67,1.44,1.48Z"/>
    <path class="cls-1" d="M9.41,15.39c0,1.09-.96,2.04-2.05,2.04s-2.05-.94-2.05-2.04.96-2,2.05-2,2.05.9,2.05,2Z"/>
    <path class="cls-1" d="M23.12,12.94c0,.86-.71,1.59-1.57,1.59s-1.53-.73-1.53-1.59.67-1.57,1.53-1.57,1.57.71,1.57,1.57Z"/>
    <path class="cls-1" d="M16.93,22.98c0,.88-.75,1.62-1.64,1.62s-1.62-.74-1.62-1.62.74-1.55,1.62-1.55,1.64.66,1.64,1.55Z"/>
    <path class="cls-1" d="M14.27,6.49c0,.6-.48,1.07-1.07,1.07s-1.1-.48-1.1-1.07.51-1.09,1.1-1.09,1.07.5,1.07,1.09h0Z"/>
    <path class="cls-1" d="M15.8,8.29c0,.56-.44,1.01-1,1.01s-1.03-.45-1.03-1.01.47-.98,1.03-.98,1,.42,1,.98Z"/>
    <path class="cls-1" d="M16.48,6.34c0,.4-.32.74-.72.74s-.7-.34-.7-.74.3-.7.7-.7.72.3.72.7h0Z"/>
    <path class="cls-1" d="M13.45,8.33c0,.2-.17.34-.37.34s-.35-.15-.35-.34.16-.34.35-.34.37.15.37.34Z"/>
    <path class="cls-1" d="M14.25,9.74c0,.31-.27.54-.58.54s-.56-.24-.56-.54.25-.55.56-.55.58.24.58.55Z"/>
    <path class="cls-1" d="M11.9,6.47c0,.31-.26.55-.58.55s-.56-.23-.56-.55.25-.57.56-.57.58.25.58.57h0Z"/>
    <path class="cls-1" d="M6.79,12.27c0,.61-.48,1.1-1.08,1.1s-1.13-.49-1.13-1.1.53-1.07,1.13-1.07,1.08.46,1.08,1.07Z"/>
    <path class="cls-1" d="M8.74,20.38c0,.76-.61,1.39-1.36,1.39s-1.34-.63-1.34-1.39.59-1.38,1.34-1.38,1.36.63,1.36,1.38h0Z"/>
    <path class="cls-1" d="M13.23,23.17c0,.44-.33.78-.77.78s-.81-.34-.81-.78.38-.8.81-.8.77.36.77.8Z"/>
    <path class="cls-1" d="M12.73,13.8c0,.5-.4.93-.89.93s-.9-.43-.9-.93.4-.92.9-.92.89.42.89.92h0Z"/>
    <path class="cls-1" d="M10.59,14.3c0,.32-.26.58-.58.58s-.58-.26-.58-.58.27-.58.58-.58.58.26.58.58Z"/>
    <path class="cls-1" d="M17.67,16.59c0,.52-.43.94-.95.94s-.94-.42-.94-.94.43-.95.94-.95.95.43.95.95Z"/>
    <path class="cls-1" d="M20.66,10.65c0,.57-.46,1.03-1.02,1.03s-.99-.47-.99-1.03.43-.98.99-.98,1.02.42,1.02.98Z"/>
    <path class="cls-1" d="M5.42,14.07c0,.35-.26.62-.61.62s-.63-.27-.63-.62.28-.65.63-.65.61.3.61.65Z"/>
    <path class="cls-1" d="M5.53,17.06c0,.31-.26.56-.57.56s-.54-.26-.54-.56.23-.55.54-.55.57.24.57.55Z"/>
    <path class="cls-1" d="M6.5,18.7c0,.43-.36.78-.79.78s-.76-.34-.76-.78.33-.79.76-.79.79.36.79.79Z"/>
    <path class="cls-1" d="M8.14,18.17c0,.32-.25.59-.56.59s-.6-.28-.6-.59.28-.59.6-.59.56.27.56.59Z"/>
    <path class="cls-1" d="M9.74,21.47c0,.32-.24.59-.55.59s-.6-.28-.6-.59.28-.58.6-.58.55.26.55.58Z"/>
    <path class="cls-1" d="M23.38,15.78c0,.6-.52,1.11-1.12,1.11s-1.09-.51-1.09-1.11.5-1.08,1.09-1.08,1.12.48,1.12,1.08Z"/>
    <path class="cls-1" d="M22.35,17.77c0,.37-.28.66-.64.66s-.64-.29-.64-.66.27-.67.64-.67.64.31.64.67Z"/>
    <path class="cls-1" d="M22.12,10.45c0,.31-.23.55-.54.55s-.58-.24-.58-.55.27-.56.58-.56.54.25.54.56Z"/>
    <path class="cls-1" d="M19.79,12.56c0,.29-.23.53-.52.53s-.52-.24-.52-.53.23-.55.52-.55.52.25.52.55Z"/>
    <path class="cls-1" d="M20.77,8.68c0,.37-.32.7-.69.7s-.69-.32-.69-.7.32-.65.69-.65.69.28.69.65Z"/>
    <path class="cls-1" d="M17.93,6.58c0,.21-.16.36-.37.36s-.38-.15-.38-.36.18-.36.38-.36.37.16.37.36Z"/>
    <path class="cls-1" d="M19.02,7.12c0,.14-.11.27-.25.27s-.26-.12-.26-.27.12-.26.26-.26.25.12.25.26Z"/>
    <path class="cls-1" d="M11.39,22.93c0,.6-.45,1.11-1.05,1.11s-1.07-.51-1.07-1.11.48-1.09,1.07-1.09,1.05.49,1.05,1.09Z"/>
  </g>
  <g>
    <path class="cls-1" d="M27.15,18.65h.7l.05.31c.1-.11.41-.35.88-.35.6,0,1.28.46,1.28,1.3v1.77h-.78v-1.66c0-.41-.31-.7-.68-.7-.29,0-.68.21-.68.71v1.66h-.77v-3.03h0Z"/>
    <path class="cls-1" d="M32.12,21.72c-.3,0-.57-.07-.8-.2-.23-.13-.41-.32-.54-.56-.13-.24-.19-.51-.19-.82s.06-.56.19-.79.3-.41.52-.54c.22-.13.48-.2.76-.2s.55.06.77.19c.22.13.39.3.52.52.12.22.18.49.18.78,0,.04,0,.09,0,.15,0,.05-.01.11-.02.17h-2.08c.02.13.06.24.12.33.07.09.15.16.25.21.1.05.21.08.34.08.15,0,.28-.03.4-.09.12-.06.2-.14.26-.25l.68.21c-.12.26-.3.46-.54.6-.24.14-.51.21-.82.21h0ZM32.7,19.86c0-.11-.03-.21-.09-.31-.06-.09-.13-.16-.22-.21-.09-.05-.2-.08-.31-.08-.1,0-.2.03-.28.08-.09.05-.16.12-.23.21-.06.09-.1.19-.12.31h1.26Z"/>
    <path class="cls-1" d="M34.36,18.65v-.77h.78v.77h.67v.68h-.67v1.23c0,.16.03.27.1.33.07.06.15.1.26.1.1,0,.21,0,.31-.02v.67c-.19.04-.37.05-.54.04-.18-.02-.33-.06-.47-.14-.14-.08-.25-.2-.32-.36-.08-.16-.12-.37-.12-.62v-1.23h-.43v-.68h.43,0Z"/>
    <path class="cls-1" d="M38.02,21.68h-.79l-.9-3.03h.8l.5,2.05.53-2.05h.77l.51,2.05.5-2.05h.79l-.9,3.03h-.81l-.5-1.9-.51,1.9h0Z"/>
    <path class="cls-1" d="M42.57,21.72c-.29,0-.56-.06-.79-.19-.23-.13-.41-.31-.54-.54-.13-.23-.2-.51-.2-.82s.07-.6.2-.83c.14-.23.32-.41.55-.54s.5-.19.79-.19.55.06.79.19c.23.13.42.31.56.54.14.23.21.51.21.82s-.07.6-.21.83-.33.41-.56.54c-.24.13-.5.19-.8.19h0ZM42.56,21.03c.12,0,.24-.03.36-.09.11-.06.21-.16.28-.28.07-.13.11-.29.11-.49s-.03-.35-.1-.48c-.07-.13-.16-.22-.27-.28-.11-.06-.23-.09-.36-.09s-.24.03-.35.09c-.11.06-.19.16-.26.28-.06.13-.1.29-.1.49s.03.35.09.48c.06.13.15.22.25.28s.22.09.35.09h0Z"/>
    <path class="cls-1" d="M44.67,18.65h.7l.05.39c.08-.1.18-.19.29-.26.11-.07.22-.11.35-.14.13-.03.26-.02.41,0v.73c-.11-.04-.22-.05-.34-.03-.12.02-.23.06-.33.13-.1.07-.19.17-.25.29-.07.13-.1.29-.1.48v1.43h-.77v-3.03h0Z"/>
    <path class="cls-1" d="M47.05,17.88h.78v1.95h.19l1-1.18h1.01l-1.33,1.5,1.34,1.52h-1.02l-1.01-1.2h-.19v1.2h-.78v-3.8h0Z"/>
  </g>
  <g>
    <path class="cls-1" d="M29.04,15.84h-1.88v-7.45h1.88v7.45Z"/>
    <path class="cls-1" d="M34.49,8.28c1.19,0,1.98.41,2.74,1.04l-.91,1.33c-.52-.48-1.12-.72-1.83-.72-1.36,0-2.21.97-2.21,2.19s.85,2.19,2.21,2.19c.71,0,1.31-.24,1.83-.72l.91,1.33c-.77.63-1.55,1.04-2.74,1.04-2.52,0-4.11-1.77-4.11-3.84s1.59-3.84,4.11-3.84h0Z"/>
    <path class="cls-1" d="M37.8,12.12c0-2.1,1.66-3.84,3.95-3.84s3.95,1.74,3.95,3.84-1.66,3.84-3.95,3.84-3.95-1.74-3.95-3.84ZM43.81,12.12c0-1.23-.87-2.17-2.06-2.17s-2.05.94-2.05,2.17.86,2.17,2.05,2.17,2.06-.94,2.06-2.17Z"/>
    <polygon class="cls-1" points="53.37 8.4 51.43 13.1 49.5 8.4 47.05 8.4 47.05 15.84 48.93 15.84 48.93 11.19 50.82 15.76 52.05 15.76 53.94 11.19 53.94 15.84 55.82 15.84 55.82 8.4 53.37 8.4"/>
  </g>
</svg>