<?xml version="1.0" encoding="UTF-8"?>
<svg id="Layer_1" data-name="Layer 1" xmlns="http://www.w3.org/2000/svg" viewBox="0 0 50 30">
  <defs>
    <style>
      .cls-1 {
        fill: #fff;
      }
    </style>
  </defs>
  <g>
    <g>
      <path class="cls-1" d="M16.17,19.25c0,.59-.21,1.15-.59,1.54-.38.38-.95.53-1.53.53s-1.1-.19-1.48-.58c-.38-.38-.66-.9-.66-1.49s.3-1.08.68-1.47c.38-.38.88-.63,1.46-.63s1.15.17,1.53.56.6.95.6,1.54h0Z"/>
      <path class="cls-1" d="M14.12,23.56c0,.72-.27,1.39-.73,1.86-.47.47-1.14.72-1.85.72s-1.41-.22-1.88-.7c-.47-.47-.81-1.17-.81-1.88s.42-1.33.89-1.8c.47-.47,1.08-.86,1.79-.86s1.37.34,1.84.81c.47.47.75,1.13.75,1.85h0Z"/>
      <path class="cls-1" d="M11.76,17.22c0,.66-.25,1.2-.68,1.63-.43.43-.97.72-1.62.72s-1.18-.3-1.61-.73c-.43-.43-.83-.96-.83-1.62s.32-1.26.75-1.69,1.03-.61,1.69-.61,1.26.18,1.69.61c.43.43.62,1.03.62,1.69h0Z"/>
      <path class="cls-1" d="M18.32,24.79c0,.57-.19,1.04-.56,1.41-.37.37-.84.68-1.41.68s-1.11-.24-1.48-.61c-.37-.37-.58-.92-.58-1.49s.21-1.12.57-1.49c.37-.37.92-.49,1.48-.49s1.13.1,1.5.48c.37.37.47.94.47,1.5h0Z"/>
      <path class="cls-1" d="M18,21.41c0,.62-.54,1.15-1.16,1.15s-1.13-.52-1.13-1.15.51-1.14,1.13-1.14,1.16.52,1.16,1.14Z"/>
      <path class="cls-1" d="M16.67,16.17c0,.62-.49,1.16-1.1,1.16s-1.15-.54-1.15-1.16.54-1.13,1.15-1.13,1.1.51,1.1,1.13Z"/>
      <path class="cls-1" d="M9.27,21.3c0,.83-.73,1.56-1.56,1.56s-1.56-.72-1.56-1.56.73-1.52,1.56-1.52,1.56.69,1.56,1.52Z"/>
      <path class="cls-1" d="M19.74,19.43c0,.66-.55,1.22-1.2,1.22s-1.17-.56-1.17-1.22.51-1.2,1.17-1.2,1.2.54,1.2,1.2Z"/>
      <path class="cls-1" d="M15.02,27.1c0,.68-.58,1.24-1.25,1.24s-1.24-.56-1.24-1.24.57-1.18,1.24-1.18,1.25.51,1.25,1.18Z"/>
      <path class="cls-1" d="M12.98,14.5c0,.46-.36.82-.82.82s-.84-.36-.84-.82.39-.84.84-.84.82.38.82.84h0Z"/>
      <path class="cls-1" d="M14.15,15.87c0,.43-.34.77-.76.77s-.79-.34-.79-.77.36-.75.79-.75.76.32.76.75Z"/>
      <path class="cls-1" d="M14.67,14.39c0,.31-.25.57-.55.57s-.54-.26-.54-.57.23-.54.54-.54.55.23.55.54h0Z"/>
      <path class="cls-1" d="M12.35,15.91c0,.15-.13.26-.28.26s-.27-.11-.27-.26.12-.26.27-.26.28.11.28.26Z"/>
      <path class="cls-1" d="M12.96,16.98c0,.24-.2.42-.44.42s-.43-.18-.43-.42.19-.42.43-.42.44.18.44.42Z"/>
      <path class="cls-1" d="M11.17,14.48c0,.24-.2.42-.44.42s-.43-.18-.43-.42.19-.44.43-.44.44.19.44.44h0Z"/>
      <path class="cls-1" d="M7.26,18.92c0,.47-.36.84-.83.84s-.87-.37-.87-.84.4-.82.87-.82.83.35.83.82Z"/>
      <path class="cls-1" d="M8.75,25.11c0,.58-.46,1.06-1.04,1.06s-1.03-.48-1.03-1.06.45-1.06,1.03-1.06,1.04.48,1.04,1.06h0Z"/>
      <path class="cls-1" d="M12.18,27.25c0,.34-.25.59-.59.59s-.62-.26-.62-.59.29-.61.62-.61.59.28.59.61Z"/>
      <path class="cls-1" d="M11.8,20.08c0,.38-.3.71-.68.71s-.69-.33-.69-.71.31-.7.69-.7.68.32.68.7h0Z"/>
      <path class="cls-1" d="M10.16,20.47c0,.24-.2.44-.44.44s-.45-.2-.45-.44.21-.44.45-.44.44.2.44.44Z"/>
      <path class="cls-1" d="M15.58,22.22c0,.4-.33.72-.73.72s-.72-.32-.72-.72.33-.73.72-.73.73.33.73.73Z"/>
      <path class="cls-1" d="M17.86,17.68c0,.43-.35.79-.78.79s-.76-.36-.76-.79.33-.75.76-.75.78.32.78.75Z"/>
      <path class="cls-1" d="M6.21,20.29c0,.27-.2.47-.47.47s-.48-.21-.48-.47.21-.49.48-.49.47.23.47.49Z"/>
      <path class="cls-1" d="M6.3,22.57c0,.24-.2.43-.44.43s-.41-.19-.41-.43.18-.42.41-.42.44.18.44.42Z"/>
      <path class="cls-1" d="M7.04,23.83c0,.33-.27.59-.6.59s-.58-.26-.58-.59.25-.6.58-.6.6.27.6.6Z"/>
      <path class="cls-1" d="M8.29,23.42c0,.24-.19.45-.43.45s-.46-.21-.46-.45.21-.45.46-.45.43.21.43.45Z"/>
      <path class="cls-1" d="M9.52,25.94c0,.24-.18.45-.42.45s-.45-.21-.45-.45.21-.44.45-.44.42.2.42.44Z"/>
      <path class="cls-1" d="M19.94,21.6c0,.46-.4.84-.86.84s-.84-.39-.84-.84.38-.82.84-.82.86.37.86.82Z"/>
      <path class="cls-1" d="M19.15,23.12c0,.28-.21.5-.49.5s-.49-.22-.49-.5.21-.51.49-.51.49.23.49.51Z"/>
      <path class="cls-1" d="M18.98,17.53c0,.24-.18.42-.42.42s-.45-.18-.45-.42.21-.43.45-.43.42.19.42.43Z"/>
      <path class="cls-1" d="M17.2,19.13c0,.22-.18.4-.4.4s-.4-.18-.4-.4.17-.42.4-.42.4.19.4.42Z"/>
      <path class="cls-1" d="M17.94,16.18c0,.28-.25.53-.53.53s-.53-.25-.53-.53.25-.5.53-.5.53.21.53.5Z"/>
      <path class="cls-1" d="M15.78,14.57c0,.16-.13.27-.28.27s-.29-.12-.29-.27.14-.28.29-.28.28.12.28.28Z"/>
      <path class="cls-1" d="M16.61,14.98c0,.11-.09.2-.19.2s-.2-.09-.2-.2.09-.2.2-.2.19.09.19.2Z"/>
      <path class="cls-1" d="M10.78,27.06c0,.46-.35.84-.8.84s-.82-.39-.82-.84.36-.83.82-.83.8.37.8.83Z"/>
    </g>
    <g>
      <path class="cls-1" d="M22.82,23.79h.54l.04.24c.07-.08.32-.27.67-.27.46,0,.98.35.98.99v1.35h-.6v-1.27c0-.32-.23-.54-.52-.54-.23,0-.52.16-.52.54v1.27h-.59v-2.31h0Z"/>
      <path class="cls-1" d="M26.62,26.14c-.23,0-.43-.05-.61-.15-.18-.1-.31-.24-.41-.43-.1-.18-.15-.39-.15-.63s.05-.43.15-.61.23-.31.4-.41c.17-.1.36-.15.58-.15s.42.05.59.14c.17.1.3.23.4.4.09.17.14.37.14.6,0,.03,0,.07,0,.11,0,.04,0,.09-.02.13h-1.59c.01.1.04.18.09.25.05.07.11.12.19.16.08.04.16.06.26.06.11,0,.22-.02.31-.07.09-.05.16-.11.2-.19l.52.16c-.09.2-.23.35-.41.46-.18.11-.39.16-.63.16h0ZM27.06,24.72c0-.09-.03-.16-.07-.23-.04-.07-.1-.12-.17-.16-.07-.04-.15-.06-.24-.06-.08,0-.15.02-.22.06-.07.04-.13.09-.17.16-.05.07-.08.15-.09.24h.96Z"/>
      <path class="cls-1" d="M28.33,23.79v-.59h.6v.59h.51v.52h-.51v.94c0,.12.03.21.08.25.05.05.12.08.2.08.08,0,.16,0,.24-.01v.51c-.14.03-.28.04-.41.03-.13-.01-.25-.05-.36-.11-.1-.06-.19-.15-.25-.28-.06-.12-.09-.28-.09-.47v-.94h-.33v-.52h.33,0Z"/>
      <path class="cls-1" d="M31.13,26.11h-.61l-.68-2.31h.61l.38,1.56.41-1.56h.59l.39,1.56.38-1.56h.61l-.68,2.31h-.62l-.38-1.45-.39,1.45h0Z"/>
      <path class="cls-1" d="M34.6,26.14c-.22,0-.43-.05-.6-.15-.18-.1-.31-.23-.41-.41-.1-.18-.15-.39-.15-.63s.05-.45.15-.63c.1-.18.24-.32.42-.41s.38-.15.6-.15.42.05.6.15c.18.1.32.23.43.41.1.18.16.39.16.63s-.05.45-.16.63-.25.32-.43.41c-.18.1-.38.15-.61.15h0ZM34.6,25.61c.1,0,.19-.02.27-.07.09-.05.16-.12.21-.22.06-.1.08-.22.08-.37s-.03-.27-.08-.36c-.05-.1-.12-.17-.21-.22-.08-.05-.18-.07-.28-.07s-.18.02-.27.07c-.08.05-.15.12-.2.22-.05.1-.07.22-.07.37s.02.27.07.36c.05.1.11.17.19.22s.17.07.26.07h0Z"/>
      <path class="cls-1" d="M36.21,23.79h.54l.04.3c.06-.08.14-.15.22-.2.08-.05.17-.09.27-.11.1-.02.2-.02.31,0v.55c-.08-.03-.17-.04-.26-.02-.09.01-.18.04-.25.1-.08.05-.14.13-.19.22-.05.1-.08.22-.08.37v1.09h-.59v-2.31h0Z"/>
      <path class="cls-1" d="M38.03,23.2h.6v1.49h.15l.76-.9h.77l-1.02,1.15,1.03,1.17h-.78l-.77-.92h-.14v.92h-.6v-2.9h0Z"/>
    </g>
    <g>
      <path class="cls-1" d="M24.26,21.65h-1.44v-5.69h1.44v5.69Z"/>
      <path class="cls-1" d="M28.43,15.87c.91,0,1.51.32,2.1.8l-.7,1.02c-.4-.37-.85-.55-1.4-.55-1.04,0-1.69.74-1.69,1.67s.65,1.67,1.69,1.67c.54,0,1-.19,1.4-.55l.7,1.02c-.59.48-1.19.8-2.1.8-1.93,0-3.14-1.35-3.14-2.94s1.21-2.94,3.14-2.94h0Z"/>
      <path class="cls-1" d="M30.96,18.8c0-1.6,1.27-2.94,3.02-2.94s3.02,1.33,3.02,2.94-1.27,2.94-3.02,2.94-3.02-1.33-3.02-2.94ZM35.56,18.8c0-.94-.67-1.66-1.58-1.66s-1.57.72-1.57,1.66.66,1.66,1.57,1.66,1.58-.72,1.58-1.66Z"/>
      <polygon class="cls-1" points="42.86 15.96 41.38 19.55 39.9 15.96 38.03 15.96 38.03 21.65 39.47 21.65 39.47 18.09 40.91 21.58 41.85 21.58 43.29 18.09 43.29 21.65 44.73 21.65 44.73 15.96 42.86 15.96"/>
    </g>
  </g>
  <g>
    <path class="cls-1" d="M5.76,6.11h-.49V1.79h.54l1.6,3.64,1.6-3.64h.54v4.31h-.49v-3.34l-1.47,3.34h-.35l-1.47-3.34v3.34Z"/>
    <path class="cls-1" d="M11.78,6.15c-.29,0-.54-.07-.77-.21-.22-.14-.4-.33-.53-.57s-.19-.52-.19-.83.06-.57.19-.8.3-.42.52-.55c.22-.13.47-.2.76-.2s.53.06.75.18c.22.12.39.29.51.51s.18.47.17.75c0,.05,0,.09,0,.14s0,.1-.01.16h-2.39c0,.19.06.36.14.51s.2.27.34.35.3.13.48.13c.24,0,.44-.05.61-.14.17-.09.29-.22.36-.39l.4.16c-.12.26-.3.46-.54.59-.23.14-.51.21-.82.21ZM12.7,4.32c0-.18-.03-.33-.11-.47s-.19-.24-.34-.32c-.14-.08-.31-.12-.5-.12-.16,0-.31.04-.45.12s-.25.18-.34.32c-.09.14-.14.29-.16.47,0,0,1.89,0,1.89,0Z"/>
    <path class="cls-1" d="M13.91,3.02h.43l.03.44c.09-.15.21-.27.37-.35s.34-.13.55-.13.42.05.59.16.32.26.42.47c.1-.21.24-.37.43-.47.19-.1.41-.15.64-.15s.43.05.61.15.31.25.41.45c.1.2.15.45.15.75v1.78h-.46v-1.72c0-.32-.07-.56-.21-.73s-.33-.25-.59-.25-.47.09-.62.27-.23.44-.23.79v1.64h-.46v-1.72c0-.32-.06-.56-.2-.73s-.32-.25-.58-.25-.46.09-.61.27c-.14.18-.22.44-.22.79v1.64h-.46v-3.08h0Z"/>
    <path class="cls-1" d="M19.79,3.65c.09-.19.23-.35.43-.47s.44-.19.73-.19.53.06.74.2.38.31.49.55.18.51.18.84-.06.6-.18.84-.28.42-.5.55c-.21.13-.46.19-.74.19s-.51-.06-.7-.18c-.18-.12-.32-.27-.42-.44l-.03.57h-.43V1.67h.46v1.98s-.05,0-.05,0ZM21.86,4.56c0-.35-.09-.63-.27-.84s-.43-.31-.74-.31c-.19,0-.37.05-.52.14s-.27.22-.36.39-.13.38-.13.62.04.45.13.62.21.31.36.39c.15.09.33.14.52.14.31,0,.55-.1.74-.31s.27-.49.27-.84Z"/>
    <path class="cls-1" d="M24.35,6.15c-.29,0-.54-.07-.77-.21-.22-.14-.4-.33-.53-.57s-.19-.52-.19-.83.06-.57.19-.8c.13-.23.3-.42.52-.55s.47-.2.76-.2.53.06.75.18c.22.12.39.29.51.51s.18.47.17.75c0,.05,0,.09,0,.14,0,.05,0,.1-.01.16h-2.39c0,.19.06.36.14.51.09.15.2.27.34.35s.3.13.48.13c.24,0,.44-.05.61-.14.17-.09.29-.22.36-.39l.4.16c-.12.26-.3.46-.54.59-.23.14-.51.21-.82.21h0ZM25.27,4.32c0-.18-.03-.33-.11-.47s-.19-.24-.34-.32-.31-.12-.5-.12c-.16,0-.31.04-.45.12s-.25.18-.34.32-.14.29-.16.47h1.89,0Z"/>
    <path class="cls-1" d="M26.48,3.02h.43l.02.45c.08-.11.18-.21.3-.28s.25-.13.39-.16c.14-.03.29-.03.45,0v.46c-.17-.03-.33-.03-.47,0s-.26.1-.35.18-.18.2-.23.34-.08.3-.08.48v1.62h-.46v-3.08h0Z"/>
    <path class="cls-1" d="M31.64,6.15c-.29,0-.55-.06-.78-.19s-.41-.31-.54-.55-.2-.52-.2-.84.07-.61.2-.85c.13-.24.32-.42.55-.55s.49-.19.79-.19.55.06.79.19.42.31.55.55.2.52.2.84-.07.61-.2.85-.32.42-.55.55c-.23.13-.5.19-.79.19ZM31.63,5.71c.18,0,.35-.04.51-.12s.29-.21.39-.38c.1-.17.15-.39.15-.65s-.05-.48-.15-.65c-.1-.17-.23-.29-.39-.37s-.33-.12-.51-.12-.35.04-.51.12-.28.21-.38.38c-.1.17-.14.39-.14.65s.05.48.14.65.22.29.37.37.32.12.5.12h0Z"/>
    <path class="cls-1" d="M34.06,2.66c0-.22.04-.42.11-.57s.19-.27.35-.34.38-.1.65-.08v.41c-.25-.02-.42.02-.51.12s-.14.25-.14.46v.36h.68v.43h-.68v2.65h-.46v-2.65h-.43v-.43h.43v-.36h0Z"/>
  </g>
</svg>